<svg width="392" height="609" viewBox="0 0 392 609" fill="none" xmlns="http://www.w3.org/2000/svg">
<g opacity="0.2">
<path d="M34.3814 526.59L68.7075 509.14C70.7065 507.883 73.0542 507.114 75.5082 506.913C77.9623 506.711 80.4336 507.084 82.6669 507.993L93.251 513.328C91.0114 512.431 88.5383 512.069 86.0854 512.279C83.6325 512.49 81.2878 513.264 79.2917 514.524L44.9655 531.924C39.2931 535.145 34.5743 539.488 31.194 544.6C27.8137 549.712 25.8674 555.448 25.5138 561.339V596.239C25.2597 598.331 25.6567 600.445 26.6634 602.357C27.67 604.27 29.2493 605.911 31.2349 607.108L20.6511 601.773C18.6653 600.564 17.0871 598.914 16.081 596.994C15.0749 595.074 14.6776 592.954 14.9301 590.854V555.955C15.2834 550.07 17.2299 544.341 20.6106 539.237C23.9913 534.133 28.7102 529.8 34.3814 526.59Z" fill="#C4C4C4"/>
<path d="M44.9646 531.924C39.2922 535.144 34.5734 539.488 31.1931 544.6C27.8128 549.712 25.8665 555.447 25.5129 561.339V596.239C25.5129 607.008 34.3232 611.196 45.0788 606.21L79.7482 588.76C85.413 585.544 90.1272 581.209 93.5071 576.106C96.887 571.004 98.8374 565.278 99.1998 559.395V524.495C99.1998 513.676 90.3895 509.538 79.5767 514.524L44.9646 531.924Z" fill="#A9ABAC"/>
<path d="M61.6143 537.51C74.4294 531.079 84.4984 536.214 84.4984 549.027C84.1006 556.003 81.8212 562.798 77.8451 568.861C73.869 574.925 68.3082 580.087 61.6143 583.927C48.8564 590.358 38.7302 585.223 38.7302 572.41C39.1415 565.437 41.4268 558.646 45.4017 552.584C49.3766 546.522 54.9299 541.359 61.6143 537.51ZM67.3353 568.521V547.681L49.3139 567.175L67.3353 568.521Z" fill="#F0907E"/>
<path d="M29.4578 439.683C28.1732 440.417 27.1049 441.404 26.3396 442.565C25.5743 443.726 25.1333 445.027 25.0525 446.364V511.177C25.0525 513.62 27.055 514.617 29.5151 513.371L94.3344 480.765C95.6264 480.034 96.703 479.048 97.4781 477.887C98.2532 476.727 98.7049 475.424 98.7966 474.084V409.271C98.7966 406.828 96.7945 405.83 94.3344 407.077L29.4578 439.683Z" fill="#114860"/>
<path d="M18.9896 434.301L83.8089 401.695C84.2891 401.459 84.8311 401.335 85.3824 401.335C85.9336 401.335 86.4753 401.459 86.9554 401.695L97.5396 407.029C97.0329 406.827 96.4729 406.748 95.919 406.801C95.3651 406.854 94.8375 407.036 94.3927 407.328L29.4592 439.685C28.1746 440.419 27.1063 441.407 26.341 442.567C25.5756 443.728 25.1347 445.029 25.0539 446.366V511.18C25.001 511.652 25.0954 512.128 25.3269 512.558C25.5585 512.988 25.9189 513.356 26.3699 513.622L15.7858 508.288C15.3348 508.021 14.9747 507.654 14.7432 507.224C14.5116 506.794 14.4173 506.318 14.4701 505.845V441.031C14.5548 439.677 15.0088 438.36 15.7949 437.189C16.581 436.019 17.6762 435.029 18.9896 434.301Z" fill="#2A7596"/>
<path d="M61.6105 436.993C74.4256 430.561 84.4946 435.697 84.4946 448.51C84.1013 455.486 81.8237 462.283 77.8472 468.347C73.8707 474.412 68.3077 479.572 61.6105 483.409C48.8526 489.891 38.7264 484.706 38.7264 471.942C39.1289 464.961 41.4101 458.16 45.3853 452.089C49.3606 446.018 54.9186 440.847 61.6105 436.993ZM67.3315 468.004V447.163L49.3102 466.657L67.3315 468.004Z" fill="#A9ABAC"/>
<path fill-rule="evenodd" clip-rule="evenodd" d="M318.655 379.705V375.317L325.692 371.777V376.165L318.655 379.705Z" fill="#EE6F57"/>
<path fill-rule="evenodd" clip-rule="evenodd" d="M306.076 386.039V381.651L313.112 378.111V382.549L306.076 386.039Z" fill="#EE6F57"/>
<path fill-rule="evenodd" clip-rule="evenodd" d="M292.626 392.67L294.743 387.285L300.865 384.194L300.121 389.18C297.775 390.277 295.258 391.523 292.626 392.67Z" fill="#EE6F57"/>
<path fill-rule="evenodd" clip-rule="evenodd" d="M356.476 360.711V356.273L363.513 352.733V357.171L356.476 360.711Z" fill="#EE6F57"/>
<path fill-rule="evenodd" clip-rule="evenodd" d="M343.887 367.042V362.604L350.924 359.064V363.502L343.887 367.042Z" fill="#EE6F57"/>
<path fill-rule="evenodd" clip-rule="evenodd" d="M331.358 373.328V368.941L338.395 365.401V369.789L331.358 373.328Z" fill="#EE6F57"/>
<path fill-rule="evenodd" clip-rule="evenodd" d="M391.315 334.536L387.082 333.938V327.855L391.487 327.008C391.487 329.55 391.429 332.043 391.315 334.536Z" fill="#EE6F57"/>
<path fill-rule="evenodd" clip-rule="evenodd" d="M382.618 347.352L379.929 344.46C382.191 343.237 384.045 341.518 385.307 339.475L389.025 341.17C387.503 343.657 385.303 345.78 382.618 347.352Z" fill="#EE6F57"/>
<path fill-rule="evenodd" clip-rule="evenodd" d="M369.288 354.229L369.002 349.991L375.123 346.9L376.782 350.44L369.288 354.229Z" fill="#EE6F57"/>
<path fill-rule="evenodd" clip-rule="evenodd" d="M391.487 295.701L387.082 297.944V290.914L391.487 288.721V295.701Z" fill="#EE6F57"/>
<path fill-rule="evenodd" clip-rule="evenodd" d="M391.487 308.316L387.082 310.559V303.529L391.487 301.286V308.316Z" fill="#EE6F57"/>
<path fill-rule="evenodd" clip-rule="evenodd" d="M391.487 320.973L387.082 322.918V316.087L391.487 313.844V320.973Z" fill="#EE6F57"/>
<path fill-rule="evenodd" clip-rule="evenodd" d="M391.487 257.907L387.082 260.101V253.719L391.487 250.528V257.907Z" fill="#EE6F57"/>
<path fill-rule="evenodd" clip-rule="evenodd" d="M391.487 270.475L387.082 272.719V265.689L391.487 263.445V270.475Z" fill="#EE6F57"/>
<path fill-rule="evenodd" clip-rule="evenodd" d="M391.487 283.037L387.082 285.231V278.251L391.487 276.008V283.037Z" fill="#EE6F57"/>
<path fill-rule="evenodd" clip-rule="evenodd" d="M372.835 241.704L371.92 246.59L365.512 249.831V245.443L372.835 241.704Z" fill="#EE6F57"/>
<path fill-rule="evenodd" clip-rule="evenodd" d="M385.996 236.174L382.792 241.758C380.631 242.209 378.59 243.022 376.785 244.151L378.787 238.766C380.97 237.496 383.42 236.615 385.996 236.174Z" fill="#EE6F57"/>
<path fill-rule="evenodd" clip-rule="evenodd" d="M391.43 244.498L387.082 248.785C387.082 247.788 387.082 246.741 387.082 245.744C387.05 244.869 386.775 244.014 386.281 243.251L390.172 238.266C390.828 239.144 391.204 240.16 391.259 241.207C391.373 242.104 391.373 243.301 391.43 244.498Z" fill="#EE6F57"/>
<path fill-rule="evenodd" clip-rule="evenodd" d="M334.676 260.898V265.336L327.696 268.876V264.438L334.676 260.898Z" fill="#EE6F57"/>
<path fill-rule="evenodd" clip-rule="evenodd" d="M347.322 254.572V259.009L340.285 262.549V258.112L347.322 254.572Z" fill="#EE6F57"/>
<path fill-rule="evenodd" clip-rule="evenodd" d="M359.851 248.284V252.672L352.814 256.211V251.824L359.851 248.284Z" fill="#EE6F57"/>
<path fill-rule="evenodd" clip-rule="evenodd" d="M296.348 280.245L297.835 283.885C295.776 284.932 293.773 285.879 291.714 286.976L288.968 284.184C291.371 282.788 293.831 281.541 296.348 280.245Z" fill="#EE6F57"/>
<path fill-rule="evenodd" clip-rule="evenodd" d="M309.445 273.611V278.049L302.695 281.439L302.294 277.201L309.445 273.611Z" fill="#EE6F57"/>
<path fill-rule="evenodd" clip-rule="evenodd" d="M322.035 267.331V271.718L314.998 275.258V270.821L322.035 267.331Z" fill="#EE6F57"/>
<path fill-rule="evenodd" clip-rule="evenodd" d="M280.784 316.486L285.189 314.242V321.272L280.784 323.515V316.486Z" fill="#EE6F57"/>
<path fill-rule="evenodd" clip-rule="evenodd" d="M280.784 303.329L285.189 302.681V308.763L280.784 310.857V303.329Z" fill="#EE6F57"/>
<path fill-rule="evenodd" clip-rule="evenodd" d="M283.704 289.414L287.365 291.259C285.935 293.227 285.181 295.51 285.191 297.84L280.958 297.441C281.073 294.605 282.019 291.842 283.704 289.414Z" fill="#EE6F57"/>
<path fill-rule="evenodd" clip-rule="evenodd" d="M280.784 354.333L285.189 352.09V359.119L280.784 361.363V354.333Z" fill="#EE6F57"/>
<path fill-rule="evenodd" clip-rule="evenodd" d="M280.784 341.718L285.189 339.524V346.554L280.784 348.748V341.718Z" fill="#EE6F57"/>
<path fill-rule="evenodd" clip-rule="evenodd" d="M280.784 329.157L285.189 326.963V333.993L280.784 336.187V329.157Z" fill="#EE6F57"/>
<path fill-rule="evenodd" clip-rule="evenodd" d="M281.699 392.573L285.704 387.587C286.047 388.308 286.672 388.899 287.468 389.255C288.265 389.611 289.18 389.709 290.052 389.531L286.963 395.115C285.885 395.267 284.78 395.1 283.826 394.638C282.871 394.177 282.122 393.45 281.699 392.573Z" fill="#EE6F57"/>
<path fill-rule="evenodd" clip-rule="evenodd" d="M280.784 379.861L285.189 376.77V382.902L280.841 387.289C280.784 384.896 280.784 382.353 280.784 379.861Z" fill="#EE6F57"/>
<path fill-rule="evenodd" clip-rule="evenodd" d="M280.784 366.993L285.189 364.799V371.828L280.784 374.022V366.993Z" fill="#EE6F57"/>
<path fill-rule="evenodd" clip-rule="evenodd" d="M178.266 450.351V445.963L185.302 442.424V446.811L178.266 450.351Z" fill="#EE6F57"/>
<path fill-rule="evenodd" clip-rule="evenodd" d="M165.676 456.689V452.302L172.713 448.762V453.149L165.676 456.689Z" fill="#EE6F57"/>
<path fill-rule="evenodd" clip-rule="evenodd" d="M152.4 463.32L154.517 457.886L160.638 454.845L159.894 459.83C157.377 460.877 154.86 462.174 152.4 463.32Z" fill="#EE6F57"/>
<path fill-rule="evenodd" clip-rule="evenodd" d="M216.081 431.308V426.92L223.118 423.381V427.768L216.081 431.308Z" fill="#EE6F57"/>
<path fill-rule="evenodd" clip-rule="evenodd" d="M203.492 437.642V433.255L210.528 429.715V434.102L203.492 437.642Z" fill="#EE6F57"/>
<path fill-rule="evenodd" clip-rule="evenodd" d="M190.963 443.975V439.588L198 436.048V440.435L190.963 443.975Z" fill="#EE6F57"/>
<path fill-rule="evenodd" clip-rule="evenodd" d="M250.92 405.232L246.687 404.634V398.502L251.092 397.704C251.092 400.247 251.035 402.69 250.92 405.232Z" fill="#EE6F57"/>
<path fill-rule="evenodd" clip-rule="evenodd" d="M242.228 417.998L239.539 415.107C241.807 413.874 243.678 412.158 244.974 410.121L248.635 411.766C247.113 414.267 244.914 416.406 242.228 417.998Z" fill="#EE6F57"/>
<path fill-rule="evenodd" clip-rule="evenodd" d="M228.893 424.876L228.607 420.638L234.729 417.547L236.388 421.087L228.893 424.876Z" fill="#EE6F57"/>
<path fill-rule="evenodd" clip-rule="evenodd" d="M251.092 366.34L246.744 368.584V361.554L251.092 359.311V366.34Z" fill="#EE6F57"/>
<path fill-rule="evenodd" clip-rule="evenodd" d="M251.092 378.958L246.744 381.152V374.122L251.092 371.929V378.958Z" fill="#EE6F57"/>
<path fill-rule="evenodd" clip-rule="evenodd" d="M251.092 391.624L246.744 393.568V386.688L251.092 384.494V391.624Z" fill="#EE6F57"/>
<path fill-rule="evenodd" clip-rule="evenodd" d="M251.092 328.504L246.744 330.747V324.366L251.092 321.125V328.504Z" fill="#EE6F57"/>
<path fill-rule="evenodd" clip-rule="evenodd" d="M251.092 341.119L246.744 343.362V336.332L251.092 334.089V341.119Z" fill="#EE6F57"/>
<path fill-rule="evenodd" clip-rule="evenodd" d="M251.092 353.684L246.744 355.878V348.848L251.092 346.654V353.684Z" fill="#EE6F57"/>
<path fill-rule="evenodd" clip-rule="evenodd" d="M232.495 312.354L231.523 317.24L225.115 320.481V316.044L232.495 312.354Z" fill="#EE6F57"/>
<path fill-rule="evenodd" clip-rule="evenodd" d="M245.602 306.82L242.455 312.404C240.262 312.817 238.194 313.633 236.391 314.797L238.393 309.413C240.551 308.102 243.011 307.217 245.602 306.82Z" fill="#EE6F57"/>
<path fill-rule="evenodd" clip-rule="evenodd" d="M251.036 315.141L246.688 319.428C246.688 318.431 246.688 317.384 246.688 316.387C246.665 315.511 246.39 314.654 245.887 313.894L249.778 308.609C250.427 309.491 250.802 310.505 250.865 311.551C250.979 312.748 251.036 313.944 251.036 315.141Z" fill="#EE6F57"/>
<path fill-rule="evenodd" clip-rule="evenodd" d="M194.286 331.545V335.982L187.306 339.472V335.085L194.286 331.545Z" fill="#EE6F57"/>
<path fill-rule="evenodd" clip-rule="evenodd" d="M206.927 325.211V329.598L199.891 333.138V328.751L206.927 325.211Z" fill="#EE6F57"/>
<path fill-rule="evenodd" clip-rule="evenodd" d="M219.456 318.885V323.322L212.42 326.862V322.425L219.456 318.885Z" fill="#EE6F57"/>
<path fill-rule="evenodd" clip-rule="evenodd" d="M155.954 350.843L157.442 354.532C155.382 355.529 153.38 356.526 151.32 357.623L148.574 354.831C150.977 353.435 153.437 352.139 155.954 350.843Z" fill="#EE6F57"/>
<path fill-rule="evenodd" clip-rule="evenodd" d="M169.056 344.259V348.646L162.305 352.086L161.904 347.848L169.056 344.259Z" fill="#EE6F57"/>
<path fill-rule="evenodd" clip-rule="evenodd" d="M181.64 337.925V342.362L174.603 345.852V341.465L181.64 337.925Z" fill="#EE6F57"/>
<path fill-rule="evenodd" clip-rule="evenodd" d="M140.39 387.136L144.795 384.893V391.923L140.39 394.116V387.136Z" fill="#EE6F57"/>
<path fill-rule="evenodd" clip-rule="evenodd" d="M140.39 373.971L144.795 373.323V379.406L140.39 381.5V373.971Z" fill="#EE6F57"/>
<path fill-rule="evenodd" clip-rule="evenodd" d="M143.31 360.064L146.971 361.859C145.573 363.858 144.821 366.149 144.797 368.49L140.564 368.091C140.679 365.255 141.624 362.492 143.31 360.064Z" fill="#EE6F57"/>
<path fill-rule="evenodd" clip-rule="evenodd" d="M140.39 424.972L144.795 422.729V429.758L140.39 431.952V424.972Z" fill="#EE6F57"/>
<path fill-rule="evenodd" clip-rule="evenodd" d="M140.39 412.361L144.795 410.167V417.147L140.39 419.391V412.361Z" fill="#EE6F57"/>
<path fill-rule="evenodd" clip-rule="evenodd" d="M140.39 399.799L144.795 397.605V404.635L140.39 406.829V399.799Z" fill="#EE6F57"/>
<path fill-rule="evenodd" clip-rule="evenodd" d="M141.305 463.216L145.309 458.23C145.662 458.942 146.292 459.522 147.087 459.869C147.883 460.215 148.793 460.306 149.657 460.125L146.568 465.759C145.493 465.894 144.396 465.718 143.445 465.259C142.495 464.8 141.743 464.083 141.305 463.216Z" fill="#EE6F57"/>
<path fill-rule="evenodd" clip-rule="evenodd" d="M140.39 450.503L144.795 447.412V453.544L140.447 457.932C140.39 455.539 140.39 452.996 140.39 450.503Z" fill="#EE6F57"/>
<path fill-rule="evenodd" clip-rule="evenodd" d="M140.39 437.644L144.795 435.4V442.43L140.39 444.674V437.644Z" fill="#EE6F57"/>
<path fill-rule="evenodd" clip-rule="evenodd" d="M37.8709 520.997V516.61L44.908 513.07V517.458L37.8709 520.997Z" fill="#EE6F57"/>
<path fill-rule="evenodd" clip-rule="evenodd" d="M25.2858 527.327V522.94L32.3225 519.4V523.788L25.2858 527.327Z" fill="#EE6F57"/>
<path fill-rule="evenodd" clip-rule="evenodd" d="M12.0159 533.96L14.1326 528.526L20.2542 525.435L19.5104 530.42L12.0159 533.96Z" fill="#EE6F57"/>
<path fill-rule="evenodd" clip-rule="evenodd" d="M75.7443 501.955V497.567L82.7238 494.027V498.415L75.7443 501.955Z" fill="#EE6F57"/>
<path fill-rule="evenodd" clip-rule="evenodd" d="M63.097 508.288V503.901L70.1338 500.361V504.749L63.097 508.288Z" fill="#EE6F57"/>
<path fill-rule="evenodd" clip-rule="evenodd" d="M50.5686 514.619V510.181L57.6053 506.691V511.079L50.5686 514.619Z" fill="#EE6F57"/>
<path fill-rule="evenodd" clip-rule="evenodd" d="M110.527 475.783L106.294 475.235V469.102L110.642 468.305C110.699 470.798 110.642 473.34 110.527 475.783Z" fill="#EE6F57"/>
<path fill-rule="evenodd" clip-rule="evenodd" d="M101.833 488.649L99.2014 485.757C101.446 484.515 103.295 482.8 104.579 480.771L108.241 482.466C106.711 484.949 104.512 487.07 101.833 488.649Z" fill="#EE6F57"/>
<path fill-rule="evenodd" clip-rule="evenodd" d="M88.4983 495.518L88.2123 491.231L94.3338 488.189L95.9928 491.729L88.4983 495.518Z" fill="#EE6F57"/>
<path fill-rule="evenodd" clip-rule="evenodd" d="M110.758 436.991L106.353 439.234V432.204L110.758 429.961V436.991Z" fill="#EE6F57"/>
<path fill-rule="evenodd" clip-rule="evenodd" d="M110.758 449.605L106.353 451.799V444.769L110.758 442.575V449.605Z" fill="#EE6F57"/>
<path fill-rule="evenodd" clip-rule="evenodd" d="M110.758 462.22L106.353 464.165V457.334L110.758 455.141V462.22Z" fill="#EE6F57"/>
<path fill-rule="evenodd" clip-rule="evenodd" d="M110.758 399.147L106.353 401.39V395.008L110.758 391.768V399.147Z" fill="#EE6F57"/>
<path fill-rule="evenodd" clip-rule="evenodd" d="M110.758 411.761L106.353 413.955V406.925L110.758 404.731V411.761Z" fill="#EE6F57"/>
<path fill-rule="evenodd" clip-rule="evenodd" d="M110.758 424.335L106.353 426.528V419.498L110.758 417.305V424.335Z" fill="#EE6F57"/>
<path fill-rule="evenodd" clip-rule="evenodd" d="M92.1063 382.997L91.1338 387.833L84.726 391.074V386.687L92.1063 382.997Z" fill="#EE6F57"/>
<path fill-rule="evenodd" clip-rule="evenodd" d="M105.206 377.414L102.06 382.998C99.8744 383.458 97.8139 384.289 95.9956 385.441L98.1124 380.306C100.223 378.927 102.639 377.942 105.206 377.414Z" fill="#EE6F57"/>
<path fill-rule="evenodd" clip-rule="evenodd" d="M110.641 385.791L106.35 390.079C106.35 389.082 106.35 388.034 106.35 387.037C106.318 386.147 106.043 385.275 105.549 384.495L109.497 379.26C110.095 380.162 110.465 381.165 110.584 382.201C110.584 383.348 110.641 384.594 110.641 385.791Z" fill="#EE6F57"/>
<path fill-rule="evenodd" clip-rule="evenodd" d="M53.948 402.195V406.583L46.9109 410.122V405.735L53.948 402.195Z" fill="#EE6F57"/>
<path fill-rule="evenodd" clip-rule="evenodd" d="M66.533 395.861V400.249L59.4962 403.789V399.401L66.533 395.861Z" fill="#EE6F57"/>
<path fill-rule="evenodd" clip-rule="evenodd" d="M79.0618 389.528V393.966L72.025 397.456V393.068L79.0618 389.528Z" fill="#EE6F57"/>
<path fill-rule="evenodd" clip-rule="evenodd" d="M15.5596 421.485L17.0471 425.125L10.9256 428.266L8.17959 425.474C10.5824 424.078 13.0423 422.782 15.5596 421.485Z" fill="#EE6F57"/>
<path fill-rule="evenodd" clip-rule="evenodd" d="M28.6565 414.905V419.293L21.9057 422.683L21.5052 418.495L28.6565 414.905Z" fill="#EE6F57"/>
<path fill-rule="evenodd" clip-rule="evenodd" d="M41.246 408.571V412.959L34.2092 416.499V412.111L41.246 408.571Z" fill="#EE6F57"/>
<path fill-rule="evenodd" clip-rule="evenodd" d="M-3.14713e-05 457.733L4.40527 455.539V462.569L-3.14713e-05 464.762V457.733Z" fill="#EE6F57"/>
<path fill-rule="evenodd" clip-rule="evenodd" d="M-3.14713e-05 444.627L4.40527 443.929V450.061L-3.14713e-05 452.155V444.627Z" fill="#EE6F57"/>
<path fill-rule="evenodd" clip-rule="evenodd" d="M2.915 430.711L6.57654 432.506C5.17812 434.504 4.42684 436.796 4.40252 439.137L0.169013 438.688C0.284192 435.868 1.22974 433.121 2.915 430.711Z" fill="#EE6F57"/>
<path fill-rule="evenodd" clip-rule="evenodd" d="M-3.14713e-05 495.573L4.40527 493.379V500.409L-3.14713e-05 502.603V495.573Z" fill="#EE6F57"/>
<path fill-rule="evenodd" clip-rule="evenodd" d="M-3.14713e-05 483.015L4.40527 480.771V487.801L-3.14713e-05 489.995V483.015Z" fill="#EE6F57"/>
<path fill-rule="evenodd" clip-rule="evenodd" d="M-3.14713e-05 470.447L4.40527 468.203V475.233L-3.14713e-05 477.476V470.447Z" fill="#EE6F57"/>
<path fill-rule="evenodd" clip-rule="evenodd" d="M0.854706 533.863L4.80223 528.877C5.15492 529.588 5.78452 530.168 6.57993 530.515C7.37533 530.862 8.28556 530.952 9.15027 530.772L6.06069 536.355C4.99697 536.518 3.90184 536.359 2.9554 535.906C2.00895 535.453 1.26788 534.732 0.854706 533.863Z" fill="#EE6F57"/>
<path fill-rule="evenodd" clip-rule="evenodd" d="M-3.14713e-05 521.15L4.40527 518.059V524.141L0.114501 528.578C8.01086e-05 526.135 -3.14713e-05 523.642 -3.14713e-05 521.15Z" fill="#EE6F57"/>
<path fill-rule="evenodd" clip-rule="evenodd" d="M-3.14713e-05 508.294L4.40527 506.051V513.081L-3.14713e-05 515.324V508.294Z" fill="#EE6F57"/>
<path d="M299.835 403.485L364.655 370.879C365.111 370.587 365.647 370.405 366.21 370.353C366.773 370.3 367.342 370.379 367.858 370.58L378.442 375.964C377.952 375.729 377.401 375.605 376.84 375.605C376.28 375.605 375.729 375.729 375.238 375.964L310.419 408.57C309.135 409.304 308.066 410.292 307.301 411.452C306.536 412.613 306.095 413.915 306.014 415.251V480.065C305.944 480.541 306.025 481.024 306.246 481.463C306.468 481.902 306.823 482.281 307.273 482.558L296.689 477.173C296.248 476.9 295.899 476.53 295.678 476.101C295.457 475.671 295.371 475.198 295.43 474.73V409.917C295.546 408.621 296.003 407.366 296.768 406.251C297.532 405.135 298.582 404.189 299.835 403.485Z" fill="#F1A394"/>
<path d="M310.419 408.819C309.134 409.553 308.066 410.54 307.301 411.701C306.535 412.862 306.094 414.163 306.014 415.5V480.313C306.014 482.756 307.959 483.753 310.419 482.507L375.524 450.1C376.795 449.366 377.854 448.385 378.618 447.234C379.382 446.084 379.831 444.796 379.929 443.469V378.656C379.929 376.213 377.927 375.266 375.467 376.462L310.419 408.819Z" fill="#EE6F57"/>
<path d="M299.835 292.913L364.655 260.307C365.14 260.057 365.693 259.925 366.256 259.925C366.82 259.925 367.373 260.057 367.858 260.307L378.442 265.641C377.926 265.44 377.357 265.362 376.794 265.414C376.231 265.467 375.695 265.648 375.238 265.941L310.419 298.547C309.128 299.275 308.055 300.261 307.289 301.422C306.523 302.584 306.086 303.889 306.014 305.227V370.041C305.955 370.509 306.041 370.982 306.262 371.411C306.483 371.841 306.832 372.211 307.273 372.484L296.689 367.149C296.248 366.865 295.9 366.486 295.679 366.048C295.458 365.611 295.373 365.131 295.43 364.656V299.843C295.466 298.463 295.886 297.112 296.653 295.905C297.42 294.698 298.512 293.671 299.835 292.913Z" fill="#2A7596"/>
<path d="M310.417 298.29C309.126 299.018 308.054 300.004 307.287 301.166C306.521 302.328 306.084 303.632 306.012 304.971V369.784C306.012 372.227 307.957 373.174 310.417 371.978L375.294 339.322C376.574 338.596 377.64 337.617 378.405 336.465C379.171 335.313 379.614 334.02 379.699 332.691V267.877C379.699 265.385 377.697 264.437 375.237 265.684L310.417 298.29Z" fill="#114860"/>
<path d="M299.835 182.38L364.655 149.724C365.145 149.488 365.696 149.364 366.256 149.364C366.817 149.364 367.368 149.488 367.858 149.724L378.442 154.859C377.932 154.646 377.365 154.556 376.801 154.6C376.237 154.644 375.697 154.819 375.238 155.108L310.419 187.714C309.135 188.448 308.066 189.436 307.301 190.596C306.536 191.757 306.095 193.058 306.014 194.395V259.209C305.962 259.683 306.051 260.161 306.271 260.598C306.491 261.034 306.836 261.414 307.273 261.701L296.689 256.317C296.248 256.044 295.899 255.674 295.678 255.244C295.457 254.815 295.371 254.342 295.43 253.874V189.06C295.497 187.721 295.932 186.415 296.699 185.252C297.465 184.09 298.541 183.105 299.835 182.38Z" fill="#F1A394"/>
<path d="M307.618 188.312C306.333 189.046 305.265 190.033 304.5 191.194C303.734 192.355 303.294 193.656 303.213 194.993V259.806C303.213 262.249 305.158 263.246 307.618 262L372.494 229.394C373.77 228.651 374.831 227.662 375.595 226.503C376.359 225.344 376.805 224.047 376.9 222.713V157.9C376.9 155.457 374.897 154.459 372.437 155.706L307.618 188.312Z" fill="#EE6F57"/>
<path d="M157.954 364.201L222.774 331.594C223.24 331.32 223.778 331.153 224.339 331.109C224.899 331.066 225.463 331.147 225.977 331.345L236.561 336.68C236.045 336.479 235.476 336.4 234.913 336.453C234.35 336.505 233.814 336.687 233.358 336.979L168.538 369.585C167.254 370.319 166.186 371.306 165.42 372.467C164.655 373.628 164.214 374.929 164.133 376.266V441.079C164.074 441.547 164.16 442.02 164.381 442.45C164.602 442.879 164.951 443.25 165.392 443.522L154.808 438.188C154.358 437.911 154.003 437.533 153.782 437.093C153.56 436.654 153.48 436.171 153.549 435.695V370.881C153.63 369.545 154.071 368.243 154.836 367.083C155.602 365.922 156.67 364.935 157.954 364.201Z" fill="#2A7596"/>
<path d="M168.536 369.586C167.251 370.32 166.183 371.308 165.418 372.468C164.653 373.629 164.212 374.93 164.131 376.267V441.081C164.131 443.524 166.076 444.521 168.536 443.274L233.412 410.668C234.688 409.926 235.749 408.936 236.513 407.777C237.277 406.619 237.724 405.321 237.818 403.987V339.174C237.818 336.731 235.815 335.734 233.355 336.98L168.536 369.586Z" fill="#114860"/>
<path d="M199.315 398.799L212.931 391.919L218.252 404.134L213.103 406.726V408.023L223.629 402.738V401.442L220.368 403.037L202.862 364.598L197.141 367.44L179.978 423.429L176.831 425.024V426.32L199.201 415.202V413.906L194.28 416.349L199.315 398.799ZM212.531 390.723L200.059 397.004L205.78 375.965L212.531 390.723Z" fill="#A9ABAC"/>
<path d="M157.954 253.674L222.774 221.068C223.23 220.776 223.767 220.595 224.329 220.542C224.892 220.49 225.461 220.568 225.977 220.769L236.561 226.154C236.071 225.918 235.52 225.794 234.96 225.794C234.399 225.794 233.848 225.918 233.358 226.154L168.538 258.76C167.254 259.494 166.186 260.481 165.42 261.642C164.655 262.803 164.214 264.104 164.133 265.441V330.254C164.063 330.73 164.144 331.214 164.366 331.653C164.587 332.092 164.942 332.47 165.392 332.747L154.808 327.362C154.367 327.09 154.018 326.72 153.797 326.29C153.576 325.861 153.49 325.387 153.549 324.919V260.106C153.665 258.811 154.122 257.556 154.887 256.44C155.651 255.324 156.701 254.378 157.954 253.674Z" fill="#2A7596"/>
<path d="M168.536 259.006C167.251 259.74 166.183 260.728 165.418 261.888C164.653 263.049 164.212 264.351 164.131 265.687V330.501C164.131 332.944 166.076 333.941 168.536 332.694L233.412 300.088C234.683 299.353 235.742 298.373 236.506 297.223C237.27 296.072 237.719 294.784 237.818 293.457V228.644C237.818 226.151 235.815 225.204 233.355 226.4L168.536 259.006Z" fill="#114860"/>
<path d="M193.024 289.671L211.617 280.298L219.112 297.1L222.373 295.505L202.349 250.634L182.326 315.746L185.529 314.151L193.024 289.671ZM194.111 286.082L202.349 259.409L210.53 277.806L194.111 286.082Z" fill="#EE6F57"/>
<path d="M157.954 33.6035L222.774 0.997131C223.259 0.747098 223.812 0.615234 224.376 0.615234C224.939 0.615234 225.492 0.747098 225.977 0.997131L236.561 6.33181C236.071 6.09613 235.52 5.97243 234.96 5.97243C234.399 5.97243 233.848 6.09613 233.358 6.33181L168.538 38.9877C167.244 39.7127 166.168 40.6981 165.402 41.8606C164.635 43.0232 164.2 44.3291 164.133 45.6686V110.482C164.074 110.95 164.16 111.423 164.381 111.853C164.602 112.282 164.951 112.652 165.392 112.925L154.808 107.54C154.367 107.268 154.018 106.898 153.797 106.468C153.576 106.039 153.49 105.565 153.549 105.097V40.284C153.63 38.9473 154.071 37.6458 154.836 36.4852C155.602 35.3245 156.67 34.3375 157.954 33.6035Z" fill="#C4C4C4"/>
<path d="M168.536 38.99C167.242 39.715 166.166 40.7003 165.399 41.8629C164.633 43.0254 164.198 44.3313 164.131 45.6709V110.484C164.131 112.927 166.076 113.875 168.536 112.678L233.412 80.022C234.693 79.2959 235.759 78.317 236.524 77.165C237.289 76.013 237.732 74.7201 237.818 73.391V8.57764C237.818 6.08481 235.815 5.13748 233.355 6.33403L168.536 38.99Z" fill="#A9ABAC"/>
<path d="M190.792 77.378L209.9 67.7558L215.221 78.1759L221.857 74.8353L200.06 33.9033L199.66 34.1525L177.92 96.9217L185.643 93.033L190.792 77.378ZM193.08 70.4479L200.174 48.7105L207.497 63.169L193.08 70.4479Z" fill="#EE6F57"/>
<path d="M157.954 143.09L222.774 110.484C223.259 110.234 223.812 110.103 224.376 110.103C224.939 110.103 225.492 110.234 225.977 110.484L236.561 115.819C236.045 115.618 235.476 115.54 234.913 115.592C234.35 115.645 233.814 115.826 233.358 116.118L168.538 148.724C167.247 149.452 166.174 150.438 165.408 151.6C164.642 152.762 164.205 154.067 164.133 155.405V220.219C164.074 220.687 164.16 221.16 164.381 221.589C164.602 222.019 164.951 222.389 165.392 222.661L154.808 217.327C154.358 217.05 154.003 216.672 153.782 216.233C153.56 215.793 153.48 215.31 153.549 214.834V150.021C153.585 148.641 154.005 147.29 154.772 146.083C155.539 144.876 156.631 143.849 157.954 143.09Z" fill="#C4C4C4"/>
<path d="M168.536 148.478C167.245 149.206 166.172 150.192 165.406 151.354C164.639 152.516 164.202 153.82 164.131 155.159V219.972C164.131 222.415 166.076 223.362 168.536 222.166L233.412 189.51C234.693 188.783 235.759 187.805 236.524 186.653C237.289 185.501 237.732 184.208 237.818 182.879V118.066C237.818 115.623 235.815 114.625 233.355 115.872L168.536 148.478Z" fill="#A9ABAC"/>
<path d="M205.326 138.898L196.973 143.136L187.19 207.202L193.712 203.911L195.429 191.746L206.127 186.362L207.671 196.882L214.308 193.541L205.326 138.898ZM205.326 181.127L196.229 185.664L200.921 152.06L205.326 181.127Z" fill="#EE6F57"/>
<path d="M299.835 78.7252L364.655 46.2686C365.121 45.9937 365.659 45.8265 366.219 45.7829C366.78 45.7393 367.344 45.8208 367.858 46.0194L378.442 51.2542C377.926 51.053 377.357 50.9747 376.794 51.0272C376.231 51.0798 375.695 51.2613 375.238 51.5534L310.419 84.1594C309.135 84.8934 308.066 85.8808 307.301 87.0414C306.536 88.2021 306.095 89.5035 306.014 90.8403V155.654C305.955 156.122 306.041 156.595 306.262 157.024C306.483 157.454 306.832 157.824 307.273 158.097L296.689 152.762C296.239 152.485 295.884 152.107 295.662 151.668C295.441 151.229 295.36 150.745 295.43 150.269V85.4557C295.502 84.1103 295.939 82.799 296.705 81.6291C297.47 80.4592 298.543 79.4641 299.835 78.7252Z" fill="#C4C4C4"/>
<path d="M310.417 84.108C309.133 84.842 308.065 85.8291 307.299 86.9897C306.534 88.1504 306.093 89.4519 306.012 90.7886V155.602C306.012 158.045 307.957 159.042 310.417 157.796L375.294 125.19C376.569 124.447 377.63 123.458 378.394 122.299C379.159 121.14 379.605 119.843 379.699 118.509V53.6954C379.699 51.2524 377.697 50.2553 375.237 51.5017L310.417 84.108Z" fill="#A9ABAC"/>
</g>
</svg>
