<svg width="124" height="124" viewBox="0 0 124 124" fill="none" xmlns="http://www.w3.org/2000/svg">
<circle cx="62" cy="62" r="62" fill="#145374"/>
<g clip-path="url(#clip0_1427_43369)">
<path d="M91.936 43.2611H81.4356V31.6305C81.426 31.5232 81.4052 31.3905 81.3603 31.2453C81.3234 31.1284 81.2801 31.0289 81.2384 30.9468H81.24L74.6765 20.6079C74.1922 19.8579 72.9317 19.8579 72.4458 20.6079L65.8839 30.9453C65.8358 31.0226 65.7764 31.1332 65.7364 31.2753C65.6947 31.4174 65.6866 31.5405 65.6866 31.6305V43.2611H60.4364V21.2916C60.4364 20.5811 59.8463 20 59.1247 20H40.7506C40.029 20 39.4372 20.5811 39.4372 21.2916V43.2611H28.9385C26.772 43.2626 25 45.0074 25 47.1389V89.7847C25 91.9179 26.772 93.6626 28.9385 93.6626H49.9376V101.415H44.6874C43.9658 101.415 43.3741 101.998 43.3741 102.708C43.3741 103.419 43.9658 104 44.6874 104H76.187C76.9087 104 77.4988 103.419 77.4988 102.708C77.4988 101.998 76.9087 101.415 76.187 101.415H70.9368V93.6626H74.8737C75.5953 93.6626 76.187 93.08 76.187 92.3695C76.187 91.6589 75.5953 91.0779 74.8737 91.0779H28.9368C28.2152 91.0779 27.6251 90.4953 27.6251 89.7847V83.3237H74.8737C75.5953 83.3237 76.1854 82.7426 76.1854 82.0321C76.1854 81.3216 75.5953 80.7389 74.8737 80.7389H27.6235V47.1389C27.6235 46.4284 28.2136 45.8474 28.9352 45.8474H91.9344C92.6561 45.8474 93.2478 46.4284 93.2478 47.1389V69.1084C93.2478 69.8189 93.8379 70.4 94.5595 70.4C95.2812 70.4 95.8729 69.8189 95.8729 69.1084V47.1389C95.8729 45.0074 94.1009 43.2611 91.936 43.2611ZM52.5627 93.661H68.3117V101.415H52.5627V93.661ZM57.8113 43.2611H42.0623V39.3847H47.3125C48.0342 39.3847 48.6243 38.8037 48.6243 38.0932C48.6243 37.3826 48.0342 36.8 47.3125 36.8H42.0623V34.2153H47.3125C48.0342 34.2153 48.6243 33.6342 48.6243 32.9237C48.6243 32.2132 48.0342 31.6321 47.3125 31.6321H42.0623V29.0474H47.3125C48.0342 29.0474 48.6243 28.4663 48.6243 27.7558C48.6243 27.0453 48.0342 26.4626 47.3125 26.4626H42.0623V22.5847H57.8113V43.2611ZM73.5619 23.7342L77.7618 30.3389H69.3621L73.5619 23.7342ZM78.8121 43.2611H68.3117V32.9237H78.8121V43.2611Z" fill="#EE6F57"/>
<path d="M68.3115 93.6611H52.5625V101.415H68.3115V93.6611Z" fill="#E5E5E5"/>
<path d="M77.762 30.3389H69.3623L73.5621 23.7342L77.762 30.3389Z" fill="#145374"/>
<path d="M78.8119 32.9237H68.3115V43.2611H78.8119V32.9237Z" fill="#E5E5E5"/>
<path d="M57.8115 22.5847V43.261H42.0625V39.3847H47.3127C48.0343 39.3847 48.6244 38.8037 48.6244 38.0931C48.6244 37.3826 48.0343 36.8 47.3127 36.8H42.0625V34.2152H47.3127C48.0343 34.2152 48.6244 33.6342 48.6244 32.9237C48.6244 32.2131 48.0343 31.6321 47.3127 31.6321H42.0625V29.0473H47.3127C48.0343 29.0473 48.6244 28.4663 48.6244 27.7558C48.6244 27.0452 48.0343 26.4626 47.3127 26.4626H42.0625V22.5847H57.8115Z" fill="#E5E5E5"/>
<path d="M108.003 83.439L105.692 82.8705C105.535 82.43 105.365 82.0037 105.167 81.6042L106.388 79.5879C106.704 79.0842 106.611 78.4242 106.192 78.0105L102.582 74.4579C102.162 74.0316 101.493 73.9542 100.982 74.2637L98.9341 75.4653C98.514 75.2726 98.0794 75.0911 97.648 74.949L97.0691 72.6737C96.9264 72.0926 96.4004 71.6916 95.7975 71.6916H90.7044C90.1015 71.6916 89.5755 72.0926 89.4328 72.6737L88.8539 74.949C88.4081 75.1037 87.9751 75.2726 87.5678 75.4653L85.52 74.2637C85.0084 73.9542 84.3397 74.0442 83.9196 74.4579L80.3099 78.0105C79.8897 78.4242 79.7983 79.0842 80.1142 79.5879L81.3346 81.6042C81.2672 81.7447 81.2015 81.8884 81.1389 82.0321C81.0138 82.3084 80.9 82.5895 80.7958 82.8705L78.4866 83.439C77.9093 83.5811 77.502 84.0974 77.502 84.6926V89.7058C77.502 90.3011 77.9093 90.8174 78.4994 90.9595L80.8102 91.5279C80.9128 91.8153 81.0219 92.0979 81.1421 92.3695C81.2063 92.5132 81.2752 92.6553 81.3474 92.7942L80.1271 94.8105C79.8111 95.3142 79.9042 95.9742 80.3227 96.3863L83.9324 99.9405C84.3526 100.354 85.0213 100.432 85.5344 100.135L87.5822 98.9332C88.0008 99.1258 88.4353 99.3074 88.8683 99.4495L89.4456 101.725C89.5899 102.306 90.1143 102.705 90.7173 102.705H95.8103C96.4133 102.705 96.9392 102.304 97.0836 101.725L97.6609 99.4495C98.1067 99.2947 98.5396 99.1258 98.947 98.9332L100.995 100.135C101.506 100.432 102.175 100.354 102.595 99.9405L106.205 96.3863C106.625 95.9742 106.716 95.3142 106.402 94.8105L105.18 92.7942C105.377 92.3805 105.562 91.9542 105.706 91.5279L108.015 90.9595C108.593 90.8174 109 90.3011 109 89.7058V84.6926C109 84.0974 108.593 83.5811 108.003 83.439ZM106.375 88.6984L104.354 89.2021C103.894 89.319 103.54 89.6553 103.41 90.0942C103.187 90.8568 102.884 91.5674 102.517 92.2274C102.294 92.6269 102.294 93.1179 102.542 93.519L103.62 95.2763L101.466 97.3953L99.6814 96.3358C99.2885 96.1037 98.777 96.0895 98.3697 96.3105C97.701 96.6721 96.9649 96.969 96.2048 97.1884C95.7574 97.3179 95.403 97.6669 95.2988 98.1184L94.7872 100.122H91.742L91.2304 98.1184C91.1117 97.6669 90.7702 97.3179 90.3244 97.1884C89.5627 96.969 88.8282 96.6721 88.1595 96.3105C87.7522 96.0895 87.2535 96.0895 86.8462 96.3358L85.0613 97.3953L82.9093 95.2763L83.9853 93.519C84.1088 93.309 84.1713 93.0753 84.1713 92.8416C84.1713 92.8037 84.1697 92.7642 84.1649 92.7263C84.1665 92.7232 84.1649 92.72 84.1649 92.7184C84.1617 92.6853 84.1569 92.6521 84.1505 92.619C84.1457 92.5826 84.1377 92.5463 84.1264 92.5116C84.1232 92.4958 84.1184 92.48 84.1136 92.4642C84.104 92.4311 84.0928 92.4011 84.0799 92.3695C84.0607 92.3205 84.0382 92.2732 84.0126 92.2274C83.6438 91.5674 83.3423 90.8442 83.1194 90.0942C82.9879 89.6553 82.6335 89.3063 82.1749 89.2021L80.1271 88.6984V85.7L82.1476 85.1963C82.6078 85.0795 82.9622 84.7447 83.0921 84.3042C83.315 83.5558 83.6181 82.8311 83.9853 82.1726C84.2082 81.7716 84.2082 81.2805 83.9597 80.8811L82.8836 79.1237L85.0357 77.0047L86.8205 78.0642C87.2134 78.2963 87.7249 78.309 88.1322 78.0895C88.801 77.7279 89.537 77.4311 90.2971 77.21C90.7445 77.0805 91.0989 76.7332 91.2031 76.28L91.7147 74.2779H94.7599L95.2715 76.28C95.3902 76.7332 95.7317 77.0821 96.1775 77.21C96.9392 77.4295 97.6737 77.7279 98.344 78.0895C98.7497 78.309 99.2484 78.309 99.6557 78.0642L101.441 77.0047L103.593 79.1237L102.517 80.8811C102.281 81.2821 102.266 81.7716 102.491 82.1726C102.858 82.8311 103.16 83.5432 103.383 84.3042C103.514 84.7447 103.868 85.0937 104.327 85.1963L106.375 85.7V88.6984Z" fill="#EE6F57"/>
<path d="M104.327 85.1963C103.868 85.0937 103.514 84.7447 103.382 84.3042C103.16 83.5432 102.858 82.8311 102.491 82.1726C102.266 81.7716 102.281 81.2821 102.516 80.881L103.592 79.1237L101.44 77.0047L99.6556 78.0642C99.2483 78.3089 98.7496 78.3089 98.3439 78.0895C97.6736 77.7279 96.9391 77.4295 96.1774 77.21C95.7316 77.0821 95.3901 76.7332 95.2714 76.28L94.7598 74.2779H91.7146L91.203 76.28C91.0988 76.7332 90.7444 77.0805 90.297 77.21C89.5369 77.431 88.8009 77.7279 88.1321 78.0895C87.7248 78.3089 87.2133 78.2963 86.8204 78.0642L85.0356 77.0047L82.8835 79.1237L83.9596 80.881C84.2081 81.2805 84.2081 81.7716 83.9852 82.1726C83.618 82.8311 83.3149 83.5558 83.092 84.3042C82.9621 84.7447 82.6077 85.0795 82.1475 85.1963L80.127 85.7V88.6984L82.1748 89.2021C82.6334 89.3063 82.9878 89.6553 83.1193 90.0942C83.3422 90.8442 83.6437 91.5674 84.0125 92.2274C84.2354 92.6268 84.221 93.1179 83.9852 93.5189L82.9092 95.2763L85.0612 97.3953L86.8461 96.3358C87.2534 96.0895 87.7521 96.0895 88.1594 96.3105C88.8281 96.6721 89.5626 96.9689 90.3243 97.1884C90.7701 97.3179 91.1116 97.6668 91.2303 98.1184L91.7419 100.122H94.7871L95.2987 98.1184C95.4029 97.6668 95.7573 97.3179 96.2047 97.1884C96.9648 96.9689 97.7009 96.6721 98.3696 96.3105C98.7769 96.0895 99.2884 96.1037 99.6813 96.3358L101.466 97.3953L103.62 95.2763L102.542 93.5189C102.294 93.1179 102.294 92.6268 102.516 92.2274C102.884 91.5674 103.187 90.8568 103.41 90.0942C103.54 89.6553 103.894 89.3189 104.354 89.2021L106.375 88.6984V85.7L104.327 85.1963ZM93.2492 95.1863C88.7736 95.1863 85.1382 91.6068 85.1382 87.2C85.1382 82.7932 88.7736 79.2137 93.2492 79.2137C97.7249 79.2137 101.36 82.7932 101.36 87.2C101.36 91.6068 97.7249 95.1863 93.2492 95.1863Z" fill="#145374"/>
<path d="M93.2497 79.2137C88.774 79.2137 85.1387 82.7932 85.1387 87.2C85.1387 91.6068 88.774 95.1863 93.2497 95.1863C97.7254 95.1863 101.361 91.6068 101.361 87.2C101.361 82.7932 97.7254 79.2137 93.2497 79.2137ZM93.2497 92.6016C90.2317 92.6016 87.7638 90.1858 87.7638 87.2C87.7638 84.2142 90.2173 81.7984 93.2497 81.7984C96.2821 81.7984 98.7356 84.2158 98.7356 87.2C98.7356 90.1842 96.2677 92.6016 93.2497 92.6016Z" fill="#EE6F57"/>
<path d="M95.3491 92.1909C98.1483 91.0493 99.4775 87.8895 98.3181 85.1334C97.1586 82.3773 93.9495 81.0684 91.1504 82.2101C88.3512 83.3517 87.022 86.5114 88.1814 89.2676C89.3409 92.0237 92.55 93.3325 95.3491 92.1909Z" fill="#E5E5E5"/>
<path d="M80.1251 63.9374H74.8749C74.1533 63.9374 73.5632 64.52 73.5632 65.2305V66.5221H68.7203C72.1328 64.1569 74.4291 60.3958 74.8236 56.1832H76.1883C76.9099 56.1832 77.5 55.6021 77.5 54.8916V49.7221C77.5 49.0116 76.9099 48.4305 76.1883 48.4305H70.9381C70.2165 48.4305 69.6263 49.0116 69.6263 49.7221V54.8916C69.6263 55.6021 70.2165 56.1832 70.9381 56.1832H72.1729C71.6741 60.6042 68.6161 64.3779 64.3761 65.8511V65.2305C64.3761 64.52 63.786 63.9374 63.0644 63.9374H57.8142C57.0926 63.9374 56.5008 64.52 56.5008 65.2305V65.8511C52.2625 64.3779 49.2173 60.6042 48.7057 56.1832H49.9389C50.6605 56.1832 51.2522 55.6021 51.2522 54.8916V49.7221C51.2522 49.0116 50.6605 48.4305 49.9389 48.4305H44.6887C43.9671 48.4305 43.3769 49.0116 43.3769 49.7221V54.8916C43.3769 55.6021 43.9671 56.1832 44.6887 56.1832H46.0678C46.4607 60.3974 48.757 64.1569 52.1711 66.5221H47.3154V65.2305C47.3154 64.52 46.7237 63.9374 46.002 63.9374H40.7518C40.0302 63.9374 39.4385 64.52 39.4385 65.2305V70.4C39.4385 71.1105 40.0302 71.6916 40.7518 71.6916H46.0004C46.722 71.6916 47.3138 71.1105 47.3138 70.4V69.1069H56.5008V70.4C56.5008 71.1105 57.091 71.6916 57.8126 71.6916H63.0628C63.7844 71.6916 64.3761 71.1105 64.3761 70.4V69.1069H73.5632V70.4C73.5632 71.1105 74.1533 71.6916 74.8749 71.6916H80.1251C80.8467 71.6916 81.4369 71.1105 81.4369 70.4V65.2305C81.4369 64.52 80.8467 63.9374 80.1251 63.9374ZM72.2498 51.0153H74.8749V53.6H72.2498V51.0153ZM48.6255 53.6H46.0004V51.0153H48.6255V53.6ZM44.6887 69.1084H42.0636V66.5237H44.6887V69.1084ZM61.751 69.1084H59.1259V66.5237H61.751V69.1084ZM78.8134 69.1084H76.1883V66.5237H78.8134V69.1084Z" fill="#145374"/>
<path d="M44.6886 66.5237H42.0635V69.1084H44.6886V66.5237Z" fill="#EE6F57"/>
<path d="M48.6261 51.0153H46.001V53.6H48.6261V51.0153Z" fill="#EE6F57"/>
<path d="M74.8751 51.0153H72.25V53.6H74.8751V51.0153Z" fill="#EE6F57"/>
<path d="M78.8136 66.5237H76.1885V69.1084H78.8136V66.5237Z" fill="#EE6F57"/>
<path d="M61.7511 66.5237H59.126V69.1084H61.7511V66.5237Z" fill="#EE6F57"/>
<path d="M61.7501 87.2C61.7501 87.9137 61.1632 88.4916 60.4384 88.4916C59.7135 88.4916 59.125 87.9137 59.125 87.2C59.125 86.4863 59.7119 85.9069 60.4384 85.9069C61.1648 85.9069 61.7501 86.4863 61.7501 87.2Z" fill="#E5E5E5"/>
<path d="M93.2473 69.1084V47.1389C93.2473 46.4284 92.6556 45.8474 91.934 45.8474H28.9348C28.2132 45.8474 27.623 46.4284 27.623 47.1389V80.7389H74.8732C75.5949 80.7389 76.185 81.3216 76.185 82.0321H81.1385C81.2011 81.8884 81.2668 81.7447 81.3342 81.6042L80.1138 79.5879C79.7979 79.0842 79.8893 78.4242 80.3095 78.0105L83.9192 74.4579C84.3393 74.0442 85.008 73.9542 85.5196 74.2637L87.5674 75.4652C87.9747 75.2726 88.4077 75.1037 88.8535 74.9489L89.4324 72.6737C89.5751 72.0926 90.1011 71.6916 90.704 71.6916H94.5591V70.4C93.8375 70.4 93.2473 69.8189 93.2473 69.1084ZM81.4368 70.4C81.4368 71.1105 80.8467 71.6916 80.1251 71.6916H74.8748C74.1532 71.6916 73.5631 71.1105 73.5631 70.4V69.1068H64.3761V70.4C64.3761 71.1105 63.7843 71.6916 63.0627 71.6916H57.8125C57.0909 71.6916 56.5008 71.1105 56.5008 70.4V69.1068H47.3137V70.4C47.3137 71.1105 46.722 71.6916 46.0004 71.6916H40.7518C40.0301 71.6916 39.4384 71.1105 39.4384 70.4V65.2305C39.4384 64.52 40.0301 63.9374 40.7518 63.9374H46.002C46.7236 63.9374 47.3153 64.52 47.3153 65.2305V66.5221H52.171C48.7569 64.1568 46.4606 60.3974 46.0677 56.1831H44.6886C43.967 56.1831 43.3769 55.6021 43.3769 54.8916V49.7221C43.3769 49.0116 43.967 48.4305 44.6886 48.4305H49.9388C50.6604 48.4305 51.2522 49.0116 51.2522 49.7221V54.8916C51.2522 55.6021 50.6604 56.1831 49.9388 56.1831H48.7056C49.2172 60.6042 52.2624 64.3779 56.5008 65.851V65.2305C56.5008 64.52 57.0925 63.9374 57.8141 63.9374H63.0643C63.7859 63.9374 64.3761 64.52 64.3761 65.2305V65.851C68.616 64.3779 71.6741 60.6042 72.1728 56.1831H70.938C70.2164 56.1831 69.6263 55.6021 69.6263 54.8916V49.7221C69.6263 49.0116 70.2164 48.4305 70.938 48.4305H76.1882C76.9098 48.4305 77.5 49.0116 77.5 49.7221V54.8916C77.5 55.6021 76.9098 56.1831 76.1882 56.1831H74.8235C74.4291 60.3958 72.1327 64.1568 68.7202 66.5221H73.5631V65.2305C73.5631 64.52 74.1532 63.9374 74.8748 63.9374H80.1251C80.8467 63.9374 81.4368 64.52 81.4368 65.2305V70.4Z" fill="#E5E5E5"/>
<path d="M80.8101 91.5279L78.4993 90.9595C77.9092 90.8174 77.5019 90.3011 77.5019 89.7058V84.6926C77.5019 84.0974 77.9092 83.5811 78.4865 83.4389L80.7957 82.8705C80.8999 82.5895 81.0138 82.3084 81.1389 82.0321H76.1853C76.1853 82.7426 75.5952 83.3237 74.8736 83.3237H27.625V89.7847C27.625 90.4953 28.2151 91.0779 28.9367 91.0779H74.8736C75.5952 91.0779 76.187 91.6589 76.187 92.3695H81.1421C81.0218 92.0979 80.9128 91.8153 80.8101 91.5279ZM60.438 88.4916C59.7115 88.4916 59.1246 87.9137 59.1246 87.2C59.1246 86.4863 59.7115 85.9068 60.438 85.9068C61.1644 85.9068 61.7497 86.4863 61.7497 87.2C61.7497 87.9137 61.1628 88.4916 60.438 88.4916Z" fill="#145374"/>
</g>
<defs>
<clipPath id="clip0_1427_43369">
<rect width="84" height="84" fill="white" transform="translate(25 20)"/>
</clipPath>
</defs>
</svg>
