<svg width="245" height="169" viewBox="0 0 245 169" fill="none" xmlns="http://www.w3.org/2000/svg">
<g clip-path="url(#clip0_594_8854)">
<path d="M237.089 0H7.91088C3.54182 0 0 3.56415 0 7.96075V161.039C0 165.436 3.54182 169 7.91088 169H237.089C241.458 169 245 165.436 245 161.039V7.96075C245 3.56415 241.458 0 237.089 0Z" fill="#E3E3E3"/>
<path d="M7.91088 169H237.089C241.46 169 245 165.438 245 161.039V152.926H0V161.039C0 165.438 3.54012 169 7.91088 169Z" fill="#124F70"/>
<path d="M126.396 160.96C126.396 158.79 124.649 157.039 122.5 157.039C120.351 157.039 118.604 158.797 118.604 160.96C118.604 163.122 120.351 164.88 122.5 164.88C124.649 164.88 126.396 163.122 126.396 160.96Z" fill="#D0D0D6" stroke="#003049" stroke-width="1.5" stroke-linecap="round" stroke-linejoin="round"/>
<path d="M237.089 0H7.91088C3.54012 0 0 3.56243 0 7.96075H245C245 3.56243 241.46 0 237.089 0Z" fill="#124F70"/>
<path d="M227.682 21.2288H16.2371V123.717H227.682V21.2288Z" fill="#EE6F57"/>
<path d="M227.682 123.717H16.2371V138.544H227.682V123.717Z" fill="#1F364E"/>
<path d="M65.1131 29.0168H24.4775V31.9491H65.1131V29.0168Z" fill="#1F364E"/>
<path d="M84.6463 29.0168H67.5918V31.9491H84.6463V29.0168Z" fill="#E3E3E3"/>
<path d="M98.9189 38.165H24.4775V41.0972H98.9189V38.165Z" fill="#1F364E"/>
<path d="M134.709 38.165H103.461V41.0972H134.709V38.165Z" fill="#E3E3E3"/>
<path d="M180.671 38.165H140.326V41.0972H180.671V38.165Z" fill="#1F364E"/>
<path d="M200.073 38.165H183.137V41.0972H200.073V38.165Z" fill="#E3E3E3"/>
<path d="M76.7751 47.3066H24.4775V50.2389H76.7751V47.3066Z" fill="#1F364E"/>
<path d="M101.919 47.3066H79.9658V50.2389H101.919V47.3066Z" fill="#E3E3E3"/>
<path d="M49.588 56.4551H24.4775V59.3873H49.588V56.4551Z" fill="#1F364E"/>
<path d="M61.6587 56.4551H51.1174V59.3873H61.6587V56.4551Z" fill="#E3E3E3"/>
<path d="M94.3439 56.4551H69.2334V59.3873H94.3439V56.4551Z" fill="#1F364E"/>
<path d="M106.421 56.4551H95.8799V59.3873H106.421V56.4551Z" fill="#E3E3E3"/>
<path d="M160.696 56.4551H113.996V59.3873H160.696V56.4551Z" fill="#1F364E"/>
<path d="M183.157 56.4551H163.551V59.3873H183.157V56.4551Z" fill="#E3E3E3"/>
<path d="M101.912 65.6033H24.4775V68.5355H101.912V65.6033Z" fill="#1F364E"/>
<path d="M139.139 65.6033H106.639V68.5355H139.139V65.6033Z" fill="#E3E3E3"/>
<path d="M163.3 65.6033H90.428V68.5355H163.3V65.6033Z" fill="#1F364E"/>
<path d="M198.339 65.6033H167.75V68.5355H198.339V65.6033Z" fill="#E3E3E3"/>
<path d="M124.873 74.7515H24.4775V77.6837H124.873V74.7515Z" fill="#1F364E"/>
<path d="M173.143 74.7515H131.004V77.6837H173.143V74.7515Z" fill="#E3E3E3"/>
<path d="M186.967 74.7515H144.993V77.6837H186.967V74.7515Z" fill="#1F364E"/>
<path d="M207.14 74.7515H189.525V77.6837H207.14V74.7515Z" fill="#E3E3E3"/>
<path d="M61.6587 83.8931H24.4775V86.8253H61.6587V83.8931Z" fill="#1F364E"/>
<path d="M79.5307 83.8931H63.9265V86.8253H79.5307V83.8931Z" fill="#E3E3E3"/>
<path d="M202.268 83.8931H167.618V86.8253H202.268V83.8931Z" fill="#1F364E"/>
<path d="M218.927 83.8931H204.384V86.8253H218.927V83.8931Z" fill="#E3E3E3"/>
<path d="M135.83 83.8931H86.0044V86.8253H135.83V83.8931Z" fill="#1F364E"/>
<path d="M159.78 83.8931H138.869V86.8253H159.78V83.8931Z" fill="#E3E3E3"/>
<path d="M120.034 93.0413H24.4775V95.9735H120.034V93.0413Z" fill="#1F364E"/>
<path d="M165.977 93.0413H125.869V95.9735H165.977V93.0413Z" fill="#E3E3E3"/>
<path d="M84.1849 102.189H24.4775V105.122H84.1849V102.189Z" fill="#1F364E"/>
<path d="M112.882 102.189H87.824V105.122H112.882V102.189Z" fill="#E3E3E3"/>
<path d="M179.663 102.189H122.5V105.122H179.663V102.189Z" fill="#1F364E"/>
<path d="M207.14 102.189H183.15V105.122H207.14V102.189Z" fill="#E3E3E3"/>
<path d="M76.3729 111.338H24.4775V114.27H76.3729V111.338Z" fill="#1F364E"/>
<path d="M101.319 111.338H79.5374V114.27H101.319V111.338Z" fill="#E3E3E3"/>
<path d="M133.364 111.338H105.234V114.27H133.364V111.338Z" fill="#1F364E"/>
<path d="M146.885 111.338H135.078V114.27H146.885V111.338Z" fill="#E3E3E3"/>
</g>
<defs>
<clipPath id="clip0_594_8854">
<rect width="245" height="169" fill="white"/>
</clipPath>
</defs>
</svg>
