<svg width="579" height="659" viewBox="0 0 579 659" fill="none" xmlns="http://www.w3.org/2000/svg">
<g opacity="0.2">
<path d="M449.159 657.047L519.487 614.965C520.042 614.703 520.52 614.294 520.873 613.779C521.225 613.264 521.44 612.661 521.494 612.032V604.725C521.431 605.344 521.213 605.936 520.861 606.441C520.508 606.947 520.035 607.348 519.487 607.605L449.159 649.686C447.668 650.473 446.018 650.883 444.345 650.883C442.672 650.883 441.022 650.473 439.531 649.686L369.873 607.605C369.339 607.349 368.877 606.955 368.534 606.459C368.191 605.964 367.978 605.384 367.917 604.778V612.138C367.969 612.741 368.172 613.319 368.506 613.814C368.84 614.31 369.294 614.707 369.822 614.965L439.737 657.047C441.202 657.799 442.814 658.19 444.448 658.19C446.082 658.19 447.695 657.799 449.159 657.047Z" fill="#A9ABAC"/>
<path d="M449.108 649.682C447.617 650.468 445.968 650.879 444.294 650.879C442.621 650.879 440.972 650.468 439.481 649.682L369.874 607.6C369.292 607.396 368.787 607.009 368.429 606.492C368.071 605.976 367.879 605.356 367.879 604.72C367.879 604.084 368.071 603.464 368.429 602.947C368.787 602.431 369.292 602.043 369.874 601.84L440.202 559.758C441.687 558.984 443.327 558.581 444.99 558.581C446.652 558.581 448.292 558.984 449.778 559.758L519.693 601.84C522.319 603.44 522.268 606 519.693 607.6L449.108 649.682Z" fill="#C4C4C4"/>
<path d="M420.327 590.584L424.961 601.252L420.688 603.812L412.759 586.211L442.105 590.958L437.832 593.518L420.327 590.584Z" fill="#114860"/>
<path d="M423.212 612.136L419.66 610.002L448.954 601.948L463.576 597.948L467.18 600.082L423.212 612.136Z" fill="#114860"/>
<path d="M466.768 618.371L462.134 607.704L466.356 605.144L474.336 622.744L444.938 617.944L449.263 615.384L466.768 618.371Z" fill="#114860"/>
<path d="M72.48 279.287L2.15234 237.205C1.59724 236.944 1.11897 236.535 0.766251 236.019C0.413528 235.504 0.198914 234.901 0.144379 234.272V226.965C0.207565 227.585 0.426132 228.176 0.778351 228.682C1.13057 229.187 1.60429 229.588 2.15234 229.845L72.48 271.927C73.9709 272.713 75.6205 273.124 77.2937 273.124C78.967 273.124 80.6165 272.713 82.1075 271.927L151.766 229.845C152.3 229.59 152.762 229.195 153.105 228.699C153.448 228.204 153.66 227.625 153.722 227.018V234.379C153.67 234.981 153.467 235.559 153.133 236.055C152.799 236.551 152.345 236.947 151.817 237.205L81.9015 279.287C80.4373 280.039 78.8251 280.43 77.1908 280.43C75.5565 280.43 73.9442 280.039 72.48 279.287Z" fill="#EA6D55"/>
<path d="M72.535 271.926C74.0259 272.713 75.6756 273.123 77.3489 273.123C79.0222 273.123 80.6717 272.713 82.1627 271.926L151.769 229.844C152.351 229.64 152.856 229.253 153.214 228.737C153.572 228.22 153.764 227.6 153.764 226.964C153.764 226.328 153.572 225.708 153.214 225.192C152.856 224.675 152.351 224.288 151.769 224.084L81.4418 182.002C79.9563 181.228 78.3166 180.825 76.6538 180.825C74.991 180.825 73.3513 181.228 71.8658 182.002L1.94998 224.084C-0.67572 225.684 -0.624237 228.244 1.94998 229.844L72.535 271.926Z" fill="#F0907E"/>
<path d="M101.316 212.835L96.6818 223.503L100.955 226.063L108.884 208.462L79.5376 213.209L83.8107 215.769L101.316 212.835Z" fill="#C4C4C4"/>
<path d="M98.4308 234.38L101.983 232.246L72.6887 224.193L58.067 220.192L54.4632 222.326L98.4308 234.38Z" fill="#C4C4C4"/>
<path d="M54.875 240.615L59.5086 229.948L55.287 227.388L47.3068 244.988L76.7045 240.188L72.3796 237.628L54.875 240.615Z" fill="#C4C4C4"/>
<path d="M184.862 566.855L255.19 524.827C255.745 524.565 256.223 524.156 256.576 523.641C256.929 523.126 257.143 522.523 257.198 521.894V514.533C257.143 515.162 256.929 515.765 256.576 516.281C256.223 516.796 255.745 517.205 255.19 517.467L184.862 559.548C183.371 560.335 181.722 560.745 180.049 560.745C178.375 560.745 176.726 560.335 175.235 559.548L105.371 517.467C104.836 517.211 104.375 516.817 104.032 516.321C103.689 515.826 103.476 515.246 103.414 514.64V522C103.466 522.61 103.675 523.194 104.019 523.691C104.363 524.188 104.83 524.581 105.371 524.827L175.235 566.855C176.726 567.642 178.375 568.052 180.049 568.052C181.722 568.052 183.371 567.642 184.862 566.855Z" fill="#114860"/>
<path d="M184.811 559.548C183.32 560.335 181.67 560.744 179.997 560.744C178.324 560.744 176.674 560.335 175.183 559.548L105.319 517.466C104.737 517.263 104.232 516.875 103.874 516.358C103.516 515.842 103.324 515.222 103.324 514.586C103.324 513.95 103.516 513.33 103.874 512.814C104.232 512.297 104.737 511.909 105.319 511.706L175.646 469.624C177.132 468.85 178.772 468.447 180.435 468.447C182.097 468.447 183.737 468.85 185.223 469.624L255.138 511.706C257.764 513.306 257.713 515.866 255.138 517.466L184.811 559.548Z" fill="#2A7596"/>
<path d="M185.998 503.222C191.488 501.769 197.117 500.946 202.781 500.769L204.532 504.449C199.415 504.69 194.339 505.513 189.396 506.902C184.197 508.284 179.208 510.402 174.568 513.196C170.632 515.455 167.14 518.458 164.271 522.049C162.124 524.625 160.699 527.761 160.152 531.116L154.026 530.103C154.425 526.4 155.856 522.898 158.144 520.023C161.279 515.94 165.186 512.564 169.626 510.102C174.745 507.025 180.256 504.709 185.998 503.222Z" fill="#F1A394"/>
<path d="M238.903 25.7804L220.497 14.5438C218.889 13.3243 217.61 11.7987 216.761 10.087C215.911 8.37516 215.515 6.52304 215.601 4.67509C215.843 1.04807 218.434 -0.449637 221.376 1.38536L239.783 12.6219C241.41 13.8338 242.707 15.3564 243.573 17.0699C244.439 18.7835 244.851 20.6415 244.775 22.4974C244.527 26.2088 241.84 27.6997 238.903 25.7804Z" fill="#00334E"/>
<path d="M222.971 257.076L204.565 245.839C202.946 244.646 201.657 243.138 200.806 241.437C199.954 239.737 199.562 237.893 199.663 236.055C199.906 232.428 202.496 230.93 205.439 232.765L223.85 243.918C225.477 245.13 226.775 246.652 227.641 248.366C228.507 250.079 228.918 251.937 228.842 253.793C228.6 257.42 225.913 258.911 222.971 257.076Z" fill="#00334E"/>
<path d="M274.837 288.718L238.039 266.17C236.42 264.978 235.132 263.47 234.28 261.77C233.429 260.07 233.037 258.227 233.138 256.39C233.381 252.765 235.971 251.267 238.913 253.102L275.716 275.565C277.365 276.741 278.681 278.244 279.55 279.948C280.42 281.652 280.819 283.506 280.712 285.352C280.464 289.062 277.88 290.475 274.837 288.718Z" fill="#A9ABAC"/>
<path d="M407.891 369.888L289.669 298.044C288.026 296.847 286.717 295.328 285.849 293.613C284.982 291.897 284.581 290.035 284.68 288.179C284.922 284.556 287.601 283.151 290.548 284.9L408.781 356.574C410.389 357.792 411.667 359.316 412.516 361.026C413.365 362.736 413.761 364.586 413.675 366.432C413.606 370.323 411.034 371.567 407.891 369.888Z" fill="#EE6F57"/>
<path d="M311.713 70.1928L255.678 36.1032C254.06 34.911 252.772 33.4037 251.92 31.7045C251.068 30.0053 250.677 28.1624 250.778 26.3261C251.026 22.6173 253.61 21.2044 256.557 22.9538L312.592 57.0434C314.229 58.2459 315.534 59.7661 316.401 61.4806C317.268 63.1952 317.672 65.0559 317.581 66.9121C317.339 70.5366 314.749 72.0338 311.713 70.1928Z" fill="#A9ABAC"/>
<path d="M497.315 182.96L328.77 80.6177C327.144 79.4071 325.847 77.8864 324.982 76.1748C324.116 74.4632 323.705 72.6074 323.781 70.7536C324.023 67.1307 326.708 65.6415 329.649 67.4744L498.194 169.816C499.801 171.034 501.079 172.558 501.928 174.268C502.777 175.977 503.174 177.827 503.087 179.673C502.654 183.281 500.065 184.778 497.315 182.96Z" fill="#EE6F57"/>
<path d="M254.687 59.0033L236.281 47.7663C234.632 46.5902 233.316 45.0862 232.446 43.3816C231.576 41.6771 231.178 39.8225 231.284 37.9753C231.527 34.3483 234.117 32.8501 237.155 34.6923L255.561 45.9288C257.211 47.1049 258.526 48.6094 259.396 50.314C260.266 52.0185 260.665 53.8732 260.558 55.7203C260.316 59.3473 257.703 61.1829 254.687 59.0033Z" fill="#00334E"/>
<path d="M327.601 103.333L271.465 69.3211C269.857 68.1024 268.579 66.5779 267.73 64.8673C266.881 63.1567 266.485 61.3059 266.571 59.4592C266.813 55.8347 269.403 54.338 272.344 56.1718L328.474 90.268C330.093 91.4602 331.38 92.9674 332.232 94.6666C333.084 96.3658 333.475 98.2087 333.374 100.045C333.132 103.669 330.447 105.159 327.601 103.333Z" fill="#A9ABAC"/>
<path d="M512.916 216.09L344.376 113.664C342.768 112.445 341.49 110.922 340.641 109.212C339.793 107.502 339.396 105.652 339.483 103.807C339.725 100.184 342.308 98.7715 345.255 100.52L513.795 202.947C515.413 204.138 516.701 205.645 517.552 207.343C518.404 209.042 518.795 210.884 518.694 212.719C518.441 216.511 515.857 217.923 512.916 216.09Z" fill="#EE6F57"/>
<path d="M252.996 83.5421L234.59 72.3057C232.952 71.1023 231.646 69.5812 230.779 67.8655C229.912 66.1497 229.508 64.2877 229.599 62.4303C229.841 58.8034 232.432 57.3052 235.47 59.1474L253.876 70.3838C255.514 71.5872 256.82 73.1083 257.687 74.824C258.554 76.5398 258.958 78.4018 258.867 80.2592C258.625 83.8861 256.034 85.3843 252.996 83.5421Z" fill="#00334E"/>
<path d="M251.391 106.804L232.985 95.5673C231.347 94.364 230.041 92.8428 229.174 91.1271C228.307 89.4114 227.903 87.5494 227.994 85.692C228.236 82.0651 230.827 80.5669 233.864 82.4091L252.271 93.6454C253.92 94.8215 255.235 96.3255 256.105 98.03C256.975 99.7346 257.374 101.589 257.268 103.436C257.025 107.063 254.435 108.562 251.391 106.804Z" fill="#00334E"/>
<path d="M244.943 200.457L226.537 189.221C224.888 188.045 223.572 186.541 222.702 184.836C221.832 183.132 221.434 181.277 221.54 179.43C221.783 175.803 224.373 174.305 227.411 176.147L245.823 187.299C247.461 188.503 248.766 190.024 249.634 191.74C250.501 193.455 250.905 195.317 250.814 197.175C250.572 200.802 247.981 202.3 244.943 200.457Z" fill="#00334E"/>
<path d="M243.365 223.299L224.959 212.062C223.321 210.859 222.015 209.337 221.148 207.622C220.281 205.906 219.877 204.044 219.968 202.186C220.21 198.56 222.795 197.146 225.839 198.904L244.245 210.14C245.883 211.344 247.188 212.865 248.056 214.581C248.923 216.296 249.327 218.158 249.236 220.016C248.994 223.643 246.403 225.141 243.365 223.299Z" fill="#00334E"/>
<path d="M238.882 288.446L220.476 277.209C218.838 276.006 217.532 274.484 216.665 272.769C215.798 271.053 215.393 269.191 215.484 267.334C215.727 263.707 218.317 262.209 221.355 264.051L239.761 275.288C241.411 276.464 242.726 277.968 243.596 279.672C244.466 281.377 244.865 283.231 244.758 285.078C244.516 288.705 241.925 290.204 238.882 288.446Z" fill="#00334E"/>
<path d="M289.278 319.121L253.393 297.236C251.755 296.033 250.45 294.513 249.583 292.798C248.716 291.083 248.312 289.222 248.403 287.365C248.645 283.74 251.235 282.242 254.272 284.083L290.157 305.969C291.806 307.144 293.121 308.648 293.991 310.352C294.861 312.055 295.259 313.909 295.153 315.756C294.933 319.044 292.321 320.879 289.278 319.121Z" fill="#A9ABAC"/>
<path d="M428.513 403.729L305.216 329.044C303.579 327.842 302.274 326.322 301.407 324.608C300.54 322.894 300.136 321.034 300.227 319.178C300.469 315.555 303.059 314.059 306.095 315.899L429.011 390.555C430.619 391.773 431.897 393.297 432.746 395.007C433.594 396.717 433.991 398.567 433.905 400.413C434.234 404.08 431.448 405.646 428.513 403.729Z" fill="#EE6F57"/>
<path d="M498.472 378.634L480.066 367.398C478.56 366.196 477.363 364.72 476.562 363.076C475.761 361.432 475.376 359.661 475.434 357.889C475.676 354.263 478.261 352.849 481.209 354.599L499.615 365.835C501.253 367.039 502.559 368.56 503.426 370.276C504.293 371.992 504.697 373.854 504.606 375.711C504.101 378.979 501.51 380.476 498.472 378.634Z" fill="#00334E"/>
<path d="M239.609 120.982L221.202 109.746C219.583 108.553 218.295 107.044 217.443 105.344C216.591 103.643 216.2 101.799 216.301 99.9617C216.543 96.3347 219.134 94.8364 222.082 96.587L240.488 107.824C242.126 109.027 243.432 110.548 244.299 112.264C245.166 113.98 245.57 115.842 245.479 117.699C245.237 121.326 243.123 122.861 239.609 120.982Z" fill="#00334E"/>
<path d="M290.652 152.046L255.221 130.534C253.612 129.315 252.334 127.791 251.485 126.08C250.636 124.369 250.239 122.517 250.326 120.67C250.568 117.045 253.152 115.631 256.1 117.381L291.531 138.894C293.139 140.112 294.418 141.637 295.267 143.348C296.116 145.059 296.513 146.91 296.426 148.758C296.184 152.383 293.594 153.881 290.652 152.046Z" fill="#A9ABAC"/>
<path d="M480.223 267.506L455.279 252.383C453.671 251.163 452.392 249.639 451.543 247.927C450.694 246.216 450.297 244.364 450.383 242.516C450.625 238.89 453.216 237.392 456.158 239.227L481.102 254.35C482.74 255.553 484.046 257.074 484.913 258.789C485.78 260.505 486.184 262.366 486.093 264.223C485.851 267.85 483.26 269.348 480.223 267.506Z" fill="#00334E"/>
<path d="M364.013 196.582L306.41 161.611C304.785 160.405 303.495 158.883 302.644 157.17C301.793 155.456 301.407 153.599 301.516 151.75C301.758 148.125 304.342 146.713 307.289 148.462L364.893 183.433C366.5 184.652 367.779 186.176 368.628 187.886C369.477 189.597 369.873 191.448 369.787 193.294C369.539 197.003 366.949 198.5 364.013 196.582Z" fill="#EE6F57"/>
<path d="M237.856 146.451L219.45 135.214C217.842 133.994 216.563 132.469 215.714 130.757C214.864 129.045 214.467 127.193 214.554 125.345C214.796 121.718 217.387 120.22 220.329 122.055L238.736 133.292C240.374 134.496 241.68 136.017 242.547 137.732C243.414 139.448 243.818 141.31 243.727 143.168C243.485 146.795 241.371 148.329 237.856 146.451Z" fill="#00334E"/>
<path d="M231.461 239.254L213.054 228.017C211.446 226.798 210.167 225.273 209.318 223.561C208.468 221.849 208.072 219.997 208.158 218.149C208.401 214.522 210.991 213.024 213.934 214.859L232.34 226.095C233.989 227.271 235.305 228.775 236.175 230.48C237.045 232.185 237.443 234.039 237.337 235.886C237.095 239.513 234.98 241.048 231.461 239.254Z" fill="#00334E"/>
<path d="M288.9 177.514L253.469 156.003C251.861 154.784 250.582 153.259 249.733 151.548C248.884 149.837 248.487 147.986 248.574 146.139C248.816 142.513 251.406 141.015 254.348 142.85L289.779 164.361C291.398 165.554 292.686 167.062 293.538 168.761C294.39 170.461 294.781 172.305 294.68 174.142C294.438 177.767 291.848 179.264 288.9 177.514Z" fill="#A9ABAC"/>
<path d="M284.027 247.992L260.557 233.744C258.901 232.555 257.583 231.036 256.714 229.317C255.845 227.598 255.451 225.73 255.566 223.87C255.808 220.244 258.393 218.83 261.436 220.588L284.901 234.921C286.52 236.113 287.808 237.622 288.66 239.322C289.512 241.022 289.904 242.866 289.803 244.703C289.56 248.329 286.97 249.827 284.027 247.992Z" fill="#A9ABAC"/>
<path d="M384.137 309.044L360.672 294.712C359.053 293.519 357.765 292.011 356.913 290.311C356.061 288.611 355.67 286.767 355.771 284.93C356.013 281.303 358.604 279.805 361.546 281.64L385.017 295.888C386.666 297.064 387.981 298.568 388.851 300.272C389.721 301.976 390.12 303.831 390.013 305.678C389.788 309.051 387.181 310.802 384.137 309.044Z" fill="#00334E"/>
<path d="M547.791 361.936L236.204 172.685C234.596 171.467 233.318 169.944 232.47 168.234C231.621 166.524 231.224 164.675 231.311 162.829C231.553 159.207 234.142 157.711 237.083 159.543L548.67 348.795C550.278 350.013 551.556 351.536 552.404 353.246C553.253 354.955 553.65 356.805 553.563 358.65C553.321 362.273 550.754 363.432 547.791 361.936Z" fill="#A9ABAC"/>
<path d="M349.109 214.19L304.664 187.165C303.056 185.946 301.778 184.422 300.929 182.711C300.08 181 299.683 179.149 299.77 177.302C300.012 173.677 302.602 172.18 305.544 174.014L349.988 201.039C351.637 202.215 352.952 203.718 353.822 205.422C354.691 207.125 355.09 208.979 354.984 210.825C354.736 214.534 352.151 215.947 349.109 214.19Z" fill="#EE6F57"/>
<path d="M344.256 284.665L299.805 257.724C298.198 256.505 296.919 254.981 296.07 253.27C295.221 251.56 294.824 249.708 294.911 247.862C295.153 244.237 297.743 242.739 300.685 244.573L345.129 271.598C346.778 272.774 348.093 274.277 348.963 275.981C349.832 277.685 350.231 279.538 350.125 281.384C349.882 285.009 347.292 286.507 344.256 284.665Z" fill="#EE6F57"/>
<path d="M463.591 357.005L400.84 318.847C399.221 317.655 397.933 316.148 397.082 314.449C396.23 312.75 395.839 310.907 395.94 309.071C396.182 305.446 398.772 303.949 401.713 305.783L464.47 343.856C466.107 345.058 467.412 346.578 468.279 348.293C469.146 350.007 469.55 351.868 469.459 353.724C469.211 357.433 466.605 359.183 463.591 357.005Z" fill="#F2F2F2"/>
<path d="M440.073 243.027L382.565 208.064C380.939 206.853 379.643 205.331 378.777 203.619C377.911 201.906 377.5 200.05 377.576 198.195C377.818 194.571 380.497 193.165 383.445 194.915L440.952 229.878C442.578 231.089 443.875 232.611 444.741 234.323C445.607 236.035 446.018 237.892 445.942 239.746C445.7 243.371 443.009 244.945 440.073 243.027Z" fill="#F2F2F2"/>
<path d="M325.906 127.87L269.776 93.7734C268.151 92.5675 266.861 91.0456 266.01 89.3318C265.16 87.6179 264.773 85.7608 264.882 83.9121C265.125 80.2876 267.708 78.8747 270.656 80.6241L326.785 114.721C328.393 115.94 329.672 117.464 330.521 119.174C331.37 120.885 331.766 122.736 331.68 124.582C331.437 128.207 328.758 129.612 325.906 127.87Z" fill="#A9ABAC"/>
<path d="M446.117 201.042L389.987 166.946C388.369 165.753 387.081 164.246 386.229 162.547C385.378 160.848 384.986 159.005 385.087 157.169C385.329 153.544 387.919 152.047 390.861 153.881L446.996 187.893C448.604 189.112 449.882 190.636 450.731 192.346C451.58 194.057 451.977 195.908 451.89 197.754C451.648 201.379 449.059 202.876 446.117 201.042Z" fill="#528098"/>
<path d="M371.2 155.54L342.855 138.295C341.247 137.075 339.969 135.551 339.119 133.839C338.27 132.128 337.874 130.277 337.96 128.429C338.203 124.803 340.793 123.305 343.735 125.14L372.08 142.385C373.729 143.561 375.044 145.065 375.914 146.769C376.784 148.473 377.182 150.327 377.076 152.174C376.833 155.8 374.624 157.326 371.2 155.54Z" fill="#EE6F57"/>
<path d="M556.279 268.11L464.255 212.485C462.647 211.267 461.369 209.743 460.52 208.033C459.671 206.323 459.274 204.473 459.361 202.626C459.603 199.003 462.193 197.506 465.134 199.339L557.158 254.964C558.795 256.166 560.1 257.686 560.967 259.4C561.834 261.114 562.238 262.975 562.147 264.83C561.905 268.454 559.315 269.951 556.279 268.11Z" fill="#EE6F57"/>
<path d="M237.458 309.09L219.046 297.937C217.408 296.734 216.102 295.213 215.235 293.497C214.368 291.781 213.964 289.92 214.055 288.062C214.297 284.435 216.887 282.937 219.925 284.779L238.331 296.016C239.981 297.192 241.296 298.696 242.166 300.401C243.036 302.105 243.435 303.96 243.328 305.807C243.086 309.434 240.495 310.932 237.458 309.09Z" fill="#00334E"/>
<path d="M310.37 353.413L254.235 319.401C252.627 318.182 251.349 316.658 250.5 314.948C249.651 313.237 249.254 311.386 249.341 309.54C249.583 305.915 252.172 304.418 255.114 306.252L311.244 340.348C312.862 341.54 314.15 343.047 315.002 344.747C315.853 346.446 316.244 348.289 316.144 350.125C315.901 353.749 313.216 355.239 310.37 353.413Z" fill="#A9ABAC"/>
<path d="M430.578 426.672L374.448 392.576C372.84 391.357 371.562 389.833 370.713 388.123C369.864 386.412 369.467 384.561 369.554 382.715C369.796 379.09 372.386 377.593 375.327 379.427L431.457 413.523C433.082 414.729 434.373 416.251 435.223 417.965C436.074 419.678 436.46 421.536 436.351 423.384C436.109 427.009 433.525 428.422 430.578 426.672Z" fill="#528098"/>
<path d="M355.663 381.085L327.312 363.923C325.704 362.704 324.426 361.179 323.577 359.468C322.727 357.756 322.331 355.905 322.417 354.057C322.66 350.431 325.244 349.018 328.192 350.768L356.537 368.014C358.175 369.217 359.48 370.738 360.347 372.453C361.214 374.168 361.618 376.03 361.527 377.887C361.291 381.429 359.059 383.293 355.663 381.085Z" fill="#EE6F57"/>
<path d="M540.738 493.739L448.714 438.114C447.107 436.896 445.828 435.372 444.98 433.662C444.131 431.952 443.734 430.102 443.82 428.255C444.063 424.632 446.652 423.135 449.593 424.968L541.617 480.593C543.255 481.795 544.559 483.315 545.426 485.029C546.293 486.743 546.697 488.604 546.606 490.459C546.364 494.083 543.775 495.58 540.738 493.739Z" fill="#EE6F57"/>
</g>
</svg>
