<svg width="164" height="180" viewBox="0 0 164 180" fill="none" xmlns="http://www.w3.org/2000/svg">
<path d="M126.798 178.949L146.651 167.482C146.808 167.411 146.943 167.299 147.042 167.159C147.142 167.018 147.203 166.854 147.218 166.683V164.691C147.2 164.86 147.138 165.022 147.039 165.159C146.94 165.297 146.806 165.406 146.651 165.476L126.798 176.944C126.377 177.158 125.911 177.27 125.439 177.27C124.966 177.27 124.501 177.158 124.08 176.944L104.415 165.476C104.264 165.407 104.134 165.299 104.037 165.164C103.94 165.029 103.88 164.871 103.863 164.706V166.712C103.877 166.876 103.935 167.033 104.029 167.168C104.123 167.304 104.252 167.412 104.401 167.482L124.138 178.949C124.551 179.154 125.006 179.261 125.468 179.261C125.929 179.261 126.384 179.154 126.798 178.949Z" fill="#A9ABAC"/>
<path d="M126.783 176.942C126.362 177.157 125.897 177.269 125.424 177.269C124.952 177.269 124.486 177.157 124.065 176.942L104.415 165.475C104.251 165.419 104.108 165.314 104.007 165.173C103.906 165.032 103.852 164.863 103.852 164.69C103.852 164.517 103.906 164.348 104.007 164.207C104.108 164.066 104.251 163.961 104.415 163.905L124.269 152.438C124.688 152.227 125.151 152.117 125.62 152.117C126.09 152.117 126.553 152.227 126.972 152.438L146.709 163.905C147.451 164.341 147.436 165.039 146.709 165.475L126.783 176.942Z" fill="#C4C4C4"/>
<path d="M118.658 160.838L119.966 163.745L118.76 164.443L116.522 159.646L124.806 160.94L123.6 161.638L118.658 160.838Z" fill="#114860"/>
<path d="M119.473 166.711L118.47 166.129L126.74 163.935L130.867 162.845L131.885 163.426L119.473 166.711Z" fill="#114860"/>
<path d="M131.768 168.41L130.46 165.503L131.652 164.806L133.905 169.602L125.606 168.294L126.827 167.596L131.768 168.41Z" fill="#114860"/>
<path d="M20.4608 76.0089L0.607243 64.5415C0.450539 64.4702 0.315521 64.3587 0.21595 64.2183C0.116375 64.0779 0.0557861 63.9136 0.0403938 63.7421V61.751C0.0582314 61.9199 0.11993 62.0812 0.219364 62.2188C0.318798 62.3565 0.452526 62.4658 0.607243 62.5358L20.4608 74.0032C20.8817 74.2176 21.3473 74.3294 21.8197 74.3294C22.2921 74.3294 22.7577 74.2176 23.1786 74.0032L42.8432 62.5358C42.9941 62.4662 43.1243 62.3587 43.2212 62.2236C43.318 62.0886 43.378 61.9308 43.3955 61.7655V63.7712C43.3808 63.9354 43.3235 64.0929 43.2292 64.228C43.1348 64.3631 43.0068 64.4712 42.8578 64.5415L23.1205 76.0089C22.7071 76.2138 22.252 76.3204 21.7906 76.3204C21.3293 76.3204 20.8741 76.2138 20.4608 76.0089Z" fill="#EA6D55"/>
<path d="M20.4763 74.0029C20.8972 74.2173 21.3629 74.3291 21.8353 74.3291C22.3077 74.3291 22.7733 74.2173 23.1942 74.0029L42.8443 62.5355C43.0084 62.48 43.1511 62.3745 43.2521 62.2337C43.3531 62.0929 43.4075 61.924 43.4075 61.7507C43.4075 61.5774 43.3531 61.4085 43.2521 61.2677C43.1511 61.1269 43.0084 61.0214 42.8443 60.9659L22.9907 49.4985C22.5714 49.2876 22.1085 49.1777 21.6391 49.1777C21.1697 49.1777 20.7068 49.2876 20.2874 49.4985L0.550148 60.9659C-0.19109 61.4019 -0.176556 62.0995 0.550148 62.5355L20.4763 74.0029Z" fill="#F0907E"/>
<path d="M28.601 57.9008L27.2929 60.8076L28.4993 61.5052L30.7375 56.709L22.4531 58.0024L23.6594 58.7001L28.601 57.9008Z" fill="#C4C4C4"/>
<path d="M27.7867 63.7714L28.7896 63.19L20.5197 60.9953L16.392 59.9053L15.3746 60.4867L27.7867 63.7714Z" fill="#C4C4C4"/>
<path d="M15.4909 65.4706L16.7989 62.5638L15.6071 61.8662L13.3543 66.6624L21.6533 65.3543L20.4324 64.6567L15.4909 65.4706Z" fill="#C4C4C4"/>
<path d="M52.1865 154.372L72.04 142.919C72.1967 142.848 72.3317 142.737 72.4313 142.596C72.5309 142.456 72.5915 142.291 72.6069 142.12V140.114C72.5915 140.286 72.5309 140.45 72.4313 140.59C72.3317 140.731 72.1967 140.842 72.04 140.914L52.1865 152.381C51.7656 152.595 51.2999 152.707 50.8276 152.707C50.3552 152.707 49.8895 152.595 49.4686 152.381L29.7459 140.914C29.595 140.844 29.4648 140.736 29.368 140.601C29.2711 140.466 29.2111 140.308 29.1936 140.143V142.149C29.2082 142.315 29.2671 142.474 29.3643 142.61C29.4614 142.745 29.5933 142.852 29.7459 142.919L49.4686 154.372C49.8895 154.587 50.3552 154.698 50.8276 154.698C51.2999 154.698 51.7656 154.587 52.1865 154.372Z" fill="#114860"/>
<path d="M52.1719 152.381C51.751 152.595 51.2853 152.707 50.813 152.707C50.3406 152.707 49.8749 152.595 49.454 152.381L29.7313 140.913C29.5672 140.858 29.4245 140.752 29.3235 140.612C29.2224 140.471 29.1681 140.302 29.1681 140.129C29.1681 139.955 29.2224 139.786 29.3235 139.646C29.4245 139.505 29.5672 139.399 29.7313 139.344L49.5848 127.876C50.0042 127.665 50.4671 127.556 50.9365 127.556C51.4059 127.556 51.8688 127.665 52.2882 127.876L72.0254 139.344C72.7666 139.78 72.7521 140.477 72.0254 140.913L52.1719 152.381Z" fill="#2A7596"/>
<path d="M52.507 137.032C54.057 136.636 55.646 136.412 57.2451 136.363L57.7392 137.366C56.2947 137.432 54.8618 137.656 53.4662 138.035C51.9988 138.411 50.5902 138.988 49.2804 139.75C48.1693 140.365 47.1834 141.184 46.3736 142.162C45.7674 142.864 45.3653 143.719 45.2109 144.633L43.4813 144.357C43.5942 143.348 43.9981 142.393 44.644 141.61C45.529 140.498 46.6319 139.578 47.8851 138.907C49.3302 138.068 50.8861 137.437 52.507 137.032Z" fill="#F1A394"/>
<path d="M67.4301 6.93097L62.2499 3.87345C61.7974 3.54135 61.438 3.12535 61.1998 2.65818C60.9616 2.191 60.851 1.68515 60.8766 1.1801C60.9473 0.188767 61.6784 -0.222357 62.5066 0.276999L67.6868 3.33452C68.1444 3.66454 68.5091 4.07968 68.752 4.54734C68.995 5.01499 69.1097 5.52242 69.087 6.02965C69.0147 7.04404 68.2566 7.45338 67.4301 6.93097Z" fill="#00334E"/>
<path d="M62.9324 69.9598L57.7522 66.9021C57.2966 66.5772 56.9346 66.166 56.6956 65.7019C56.4567 65.2379 56.3475 64.7342 56.3772 64.232C56.4479 63.2406 57.1791 62.8294 58.0072 63.3287L63.189 66.3633C63.6467 66.6933 64.0113 67.1085 64.2543 67.5761C64.4973 68.0438 64.6119 68.5512 64.5893 69.0585C64.5185 70.0498 63.7605 70.4591 62.9324 69.9598Z" fill="#00334E"/>
<path d="M77.5674 78.5824L67.2087 72.4442C66.7531 72.1194 66.391 71.708 66.152 71.2439C65.9131 70.7799 65.804 70.2762 65.8336 69.774C65.9044 68.7826 66.6356 68.3714 67.4637 68.8707L77.8241 74.9859C78.2882 75.3061 78.6579 75.7162 78.902 76.1814C79.146 76.6466 79.2572 77.1531 79.2259 77.658C79.1535 78.6723 78.4241 79.0606 77.5674 78.5824Z" fill="#A9ABAC"/>
<path d="M115.1 100.701L81.812 81.1321C81.3495 80.8057 80.9814 80.3911 80.738 79.9225C80.4945 79.454 80.3828 78.9449 80.4118 78.437C80.4826 77.4457 81.2389 77.0594 82.0687 77.5357L115.36 97.0584C115.813 97.3905 116.172 97.8063 116.41 98.2735C116.649 98.7407 116.759 99.2465 116.734 99.7516C116.712 100.816 115.985 101.158 115.1 100.701Z" fill="#EE6F57"/>
<path d="M87.9707 19.0332L72.1949 9.75095C71.7394 9.42608 71.3773 9.01483 71.1383 8.55077C70.8993 8.0867 70.7902 7.58302 70.8199 7.08081C70.8923 6.06642 71.6218 5.67819 72.4516 6.1545L88.2273 15.4367C88.6882 15.7644 89.0551 16.1792 89.2983 16.6474C89.5416 17.1157 89.6544 17.6242 89.6275 18.1319C89.5568 19.1232 88.8256 19.5345 87.9707 19.0332Z" fill="#A9ABAC"/>
<path d="M140.327 49.7624L92.8675 21.8832C92.4098 21.5531 92.0452 21.138 91.8023 20.6703C91.5593 20.2027 91.4446 19.6953 91.4673 19.188C91.538 18.1967 92.296 17.7874 93.1241 18.2867L140.584 46.166C141.037 46.4981 141.396 46.9139 141.634 47.3811C141.872 47.8483 141.983 48.3541 141.957 48.8592C141.833 49.8467 141.102 50.2579 140.327 49.7624Z" fill="#EE6F57"/>
<path d="M71.886 15.9841L66.7058 12.9265C66.2417 12.6063 65.872 12.1962 65.6279 11.731C65.3839 11.2658 65.2727 10.7593 65.304 10.2544C65.3747 9.2631 66.1058 8.85184 66.9608 9.35311L72.141 12.4106C72.6051 12.7308 72.9748 13.1411 73.2189 13.6062C73.4629 14.0714 73.5741 14.578 73.5428 15.0828C73.4721 16.0742 72.7344 16.5776 71.886 15.9841Z" fill="#00334E"/>
<path d="M92.4559 28.0641L76.6516 18.8031C76.1991 18.471 75.8398 18.055 75.6015 17.5879C75.3633 17.1207 75.2527 16.6148 75.2783 16.1098C75.3491 15.1185 76.0802 14.7073 76.9083 15.2067L92.7109 24.4907C93.1665 24.8156 93.5285 25.2268 93.7675 25.6909C94.0064 26.155 94.1155 26.6586 94.0859 27.1608C94.0151 28.1522 93.2572 28.5615 92.4559 28.0641Z" fill="#A9ABAC"/>
<path d="M144.732 58.7904L97.2733 30.888C96.8208 30.5559 96.4614 30.1401 96.2232 29.6729C95.985 29.2057 95.8744 28.6999 95.9 28.1948C95.9707 27.2035 96.7002 26.8153 97.53 27.2916L144.988 55.1939C145.444 55.5188 145.806 55.93 146.045 56.3941C146.284 56.8582 146.393 57.3618 146.363 57.8641C146.289 58.9015 145.56 59.2897 144.732 58.7904Z" fill="#EE6F57"/>
<path d="M71.4085 22.6711L66.2283 19.6136C65.7675 19.2859 65.4005 18.8712 65.1572 18.4029C64.9139 17.9347 64.8012 17.4261 64.8281 16.9185C64.8989 15.9272 65.63 15.5159 66.485 16.0172L71.6652 19.0747C72.1261 19.4024 72.493 19.8171 72.7363 20.2854C72.9796 20.7536 73.0923 21.2622 73.0654 21.7698C72.9946 22.7612 72.2635 23.1724 71.4085 22.6711Z" fill="#00334E"/>
<path d="M70.9554 29.01L65.7752 25.9525C65.3143 25.6248 64.9474 25.2101 64.7041 24.7418C64.4608 24.2736 64.3481 23.765 64.375 23.2574C64.4457 22.266 65.1769 21.8548 66.0318 22.356L71.2121 25.4136C71.6761 25.7338 72.0459 26.1438 72.2899 26.609C72.534 27.0742 72.6451 27.5808 72.6139 28.0856C72.5432 29.0769 71.812 29.4882 70.9554 29.01Z" fill="#00334E"/>
<path d="M69.1352 54.5309L63.9549 51.4734C63.4909 51.1532 63.1211 50.743 62.8771 50.2778C62.633 49.8126 62.5219 49.306 62.5531 48.8012C62.6239 47.8099 63.355 47.3987 64.2099 47.9L69.3918 50.9345C69.8527 51.2621 70.2197 51.6769 70.4629 52.1451C70.7062 52.6134 70.8189 53.1219 70.792 53.6296C70.7213 54.6209 69.9901 55.0322 69.1352 54.5309Z" fill="#00334E"/>
<path d="M68.6897 60.7552L63.5095 57.6977C63.0487 57.37 62.6817 56.9551 62.4384 56.4869C62.1952 56.0186 62.0825 55.5101 62.1093 55.0024C62.1801 54.0111 62.9096 53.6229 63.7662 54.1011L68.9464 57.1588C69.4073 57.4865 69.7742 57.9012 70.0175 58.3695C70.2608 58.8377 70.3735 59.3463 70.3466 59.8539C70.2758 60.8452 69.5447 61.2565 68.6897 60.7552Z" fill="#00334E"/>
<path d="M67.424 78.5082L62.2438 75.4505C61.783 75.1229 61.416 74.7081 61.1727 74.2398C60.9294 73.7716 60.8167 73.2631 60.8436 72.7554C60.9144 71.7641 61.6455 71.3528 62.5005 71.8541L67.6807 74.9117C68.1448 75.232 68.5145 75.642 68.7586 76.1072C69.0026 76.5724 69.1137 77.0789 69.0825 77.5838C69.0118 78.5751 68.2806 78.9864 67.424 78.5082Z" fill="#00334E"/>
<path d="M81.6444 86.8672L71.5427 80.9095C71.0818 80.5818 70.7149 80.1671 70.4716 79.6988C70.2284 79.2306 70.1156 78.722 70.1425 78.2144C70.2132 77.2231 70.9443 76.8118 71.7993 77.3131L81.901 83.2708C82.3651 83.591 82.7349 84.001 82.9789 84.4662C83.223 84.9314 83.3341 85.438 83.3029 85.9428C83.2387 86.8419 82.501 87.3454 81.6444 86.8672Z" fill="#A9ABAC"/>
<path d="M120.92 109.922L86.2026 89.5795C85.7417 89.2518 85.3747 88.8369 85.1315 88.3686C84.8882 87.9004 84.7755 87.3918 84.8024 86.8842C84.8731 85.8929 85.6042 85.4817 86.4592 85.983L121.069 106.318C121.522 106.65 121.881 107.066 122.119 107.533C122.358 108 122.468 108.506 122.443 109.011C122.533 110.014 121.747 110.445 120.92 109.922Z" fill="#EE6F57"/>
<path d="M140.707 103.085L135.527 100.027C135.103 99.6999 134.766 99.2973 134.542 98.8486C134.317 98.3999 134.21 97.9162 134.227 97.4321C134.298 96.4408 135.027 96.0526 135.857 96.5289L141.037 99.5864C141.498 99.9141 141.865 100.329 142.109 100.797C142.352 101.265 142.465 101.774 142.438 102.282C142.293 103.175 141.562 103.586 140.707 103.085Z" fill="#00334E"/>
<path d="M67.6292 32.8737L62.449 29.8162C61.9934 29.4913 61.6314 29.0799 61.3924 28.6159C61.1535 28.1518 61.0444 27.6481 61.074 27.1459C61.1448 26.1546 61.8759 25.7433 62.7056 26.2196L67.8858 29.2772C68.3467 29.6049 68.7137 30.0197 68.957 30.4879C69.2002 30.9562 69.3129 31.4647 69.286 31.9724C69.2153 32.9637 68.6184 33.3845 67.6292 32.8737Z" fill="#00334E"/>
<path d="M82.0325 41.3387L72.0585 35.4828C71.606 35.1507 71.2466 34.7348 71.0083 34.2676C70.7701 33.8005 70.6595 33.2946 70.6852 32.7896C70.7559 31.7982 71.4854 31.41 72.3151 31.8863L82.2892 37.7423C82.7417 38.0744 83.1011 38.4902 83.3393 38.9574C83.5775 39.4246 83.6882 39.9304 83.6626 40.4355C83.5918 41.4268 82.8606 41.8381 82.0325 41.3387Z" fill="#A9ABAC"/>
<path d="M135.552 72.8017L128.531 68.6859C128.079 68.3538 127.719 67.938 127.481 67.4708C127.243 67.0036 127.132 66.4978 127.158 65.9927C127.229 65.0014 127.96 64.5901 128.788 65.0895L135.809 69.2053C136.27 69.533 136.637 69.9477 136.88 70.416C137.123 70.8842 137.236 71.3928 137.209 71.9004C137.138 72.8918 136.407 73.303 135.552 72.8017Z" fill="#00334E"/>
<path d="M102.735 53.4747L86.5172 43.9525C86.0598 43.6239 85.6969 43.2086 85.4583 42.7406C85.2196 42.2725 85.1118 41.7649 85.1438 41.2593C85.2145 40.268 85.9441 39.8797 86.7738 40.356L102.991 49.8783C103.444 50.2104 103.803 50.6262 104.041 51.0934C104.28 51.5606 104.39 52.0664 104.365 52.5715C104.292 53.5859 103.561 53.9971 102.735 53.4747Z" fill="#EE6F57"/>
<path d="M67.1346 39.8139L61.9544 36.7562C61.5019 36.4241 61.1425 36.0083 60.9043 35.5411C60.666 35.0739 60.5554 34.5681 60.5811 34.063C60.6518 33.0717 61.3829 32.6604 62.211 33.1598L67.3912 36.2174C67.8521 36.5451 68.2191 36.9599 68.4623 37.4281C68.7056 37.8964 68.8183 38.4049 68.7914 38.9126C68.7207 39.9039 68.1238 40.3248 67.1346 39.8139Z" fill="#00334E"/>
<path d="M65.3289 65.1028L60.1487 62.0453C59.6962 61.7132 59.3368 61.2973 59.0986 60.8302C58.8604 60.363 58.7498 59.8571 58.7754 59.3521C58.8461 58.3608 59.5772 57.9495 60.4054 58.4489L65.5856 61.5064C66.0496 61.8266 66.4194 62.2367 66.6635 62.7018C66.9075 63.167 67.0186 63.6736 66.9874 64.1784C66.9167 65.1698 66.3198 65.5906 65.3289 65.1028Z" fill="#00334E"/>
<path d="M81.5379 48.279L71.5639 42.4232C71.1114 42.0911 70.752 41.6753 70.5137 41.2081C70.2755 40.7409 70.1649 40.2351 70.1906 39.73C70.2613 38.7387 70.9924 38.3274 71.8205 38.8268L81.7946 44.6826C82.2501 45.0074 82.6122 45.4187 82.8512 45.8828C83.0902 46.3468 83.1993 46.8507 83.1696 47.3529C83.0989 48.3442 82.3677 48.7553 81.5379 48.279Z" fill="#A9ABAC"/>
<path d="M80.1668 67.4844L73.5606 63.6068C73.0947 63.2828 72.7241 62.8686 72.4803 62.3994C72.2366 61.9302 72.1268 61.4199 72.1604 60.9116C72.2311 59.9203 72.9606 59.5321 73.8172 60.0103L80.4218 63.911C80.8774 64.2358 81.2394 64.6471 81.4784 65.1112C81.7174 65.5752 81.8265 66.0789 81.7968 66.5811C81.7261 67.5724 80.9949 67.9837 80.1668 67.4844Z" fill="#A9ABAC"/>
<path d="M108.428 84.1211L101.823 80.2205C101.368 79.8956 101.006 79.4844 100.767 79.0203C100.528 78.5562 100.419 78.0525 100.448 77.5503C100.519 76.559 101.25 76.1477 102.078 76.6471L108.685 80.5247C109.149 80.8449 109.518 81.255 109.762 81.7202C110.006 82.1854 110.118 82.6919 110.086 83.1967C110.021 84.1189 109.284 84.5994 108.428 84.1211Z" fill="#00334E"/>
<path d="M154.528 98.534L66.7852 46.9721C66.3327 46.64 65.9733 46.2241 65.7351 45.7569C65.4968 45.2898 65.3863 44.7839 65.4119 44.2788C65.4826 43.2875 66.2137 42.8763 67.0418 43.3756L154.784 94.9376C155.237 95.2697 155.596 95.6855 155.834 96.1527C156.073 96.6199 156.183 97.1257 156.158 97.6308C156.087 98.6221 155.362 98.9412 154.528 98.534Z" fill="#A9ABAC"/>
<path d="M98.5318 58.2733L86.0198 50.9154C85.5673 50.5833 85.2079 50.1675 84.9696 49.7003C84.7314 49.2331 84.6208 48.7273 84.6464 48.2222C84.7171 47.2309 85.4483 46.8196 86.2764 47.319L98.7885 54.6768C99.2525 54.997 99.6223 55.4071 99.8663 55.8723C100.11 56.3375 100.222 56.844 100.19 57.3489C100.118 58.3633 99.3884 58.7515 98.5318 58.2733Z" fill="#EE6F57"/>
<path d="M97.1616 77.4777L84.6479 70.143C84.1954 69.8109 83.836 69.395 83.5978 68.9278C83.3596 68.4607 83.2489 67.9548 83.2745 67.4497C83.3453 66.4584 84.0765 66.0472 84.9046 66.5465L97.4166 73.9042C97.8807 74.2244 98.2505 74.6347 98.4945 75.0998C98.7386 75.565 98.8497 76.0716 98.8185 76.5764C98.7477 77.5678 98.0166 77.979 97.1616 77.4777Z" fill="#EE6F57"/>
<path d="M130.844 97.19L113.177 86.7996C112.721 86.4747 112.359 86.0635 112.12 85.5994C111.881 85.1353 111.772 84.6316 111.802 84.1294C111.872 83.1381 112.603 82.7268 113.432 83.2262L131.1 93.5935C131.561 93.9212 131.928 94.3359 132.171 94.8042C132.415 95.2724 132.527 95.781 132.5 96.2886C132.428 97.303 131.692 97.7834 130.844 97.19Z" fill="#F2F2F2"/>
<path d="M124.206 66.131L108.016 56.6107C107.558 56.2806 107.194 55.8655 106.951 55.3978C106.708 54.9302 106.593 54.4228 106.616 53.9155C106.686 52.9242 107.443 52.5379 108.272 53.0142L124.463 62.5345C124.921 62.8646 125.285 63.2797 125.528 63.7474C125.771 64.215 125.886 64.7224 125.863 65.2297C125.792 66.221 125.033 66.6534 124.206 66.131Z" fill="#F2F2F2"/>
<path d="M91.9775 34.7503L76.1749 25.4662C75.7175 25.1376 75.3547 24.7223 75.116 24.2542C74.8773 23.7862 74.7696 23.2786 74.8016 22.773C74.8724 21.7816 75.6018 21.3934 76.4316 21.8697L92.2342 31.1539C92.6867 31.486 93.0461 31.9018 93.2843 32.369C93.5225 32.8362 93.6331 33.342 93.6075 33.8471C93.5368 34.8384 92.7804 35.2247 91.9775 34.7503Z" fill="#A9ABAC"/>
<path d="M125.913 54.6902L110.111 45.406C109.655 45.0812 109.293 44.6699 109.054 44.2058C108.815 43.7418 108.706 43.2381 108.735 42.7359C108.806 41.7445 109.537 41.3333 110.366 41.8326L126.17 51.0937C126.622 51.4258 126.982 51.8417 127.22 52.3089C127.458 52.776 127.569 53.2819 127.543 53.7869C127.472 54.7783 126.741 55.1895 125.913 54.6902Z" fill="#528098"/>
<path d="M104.774 42.2909L96.7953 37.5971C96.3428 37.265 95.9834 36.8491 95.7452 36.3819C95.507 35.9148 95.3964 35.4089 95.422 34.9038C95.4927 33.9125 96.2239 33.5013 97.052 34.0006L105.031 38.6945C105.495 39.0147 105.864 39.4247 106.108 39.8899C106.353 40.3551 106.464 40.8617 106.432 41.3665C106.362 42.3578 105.738 42.7768 104.774 42.2909Z" fill="#EE6F57"/>
<path d="M157 72.9663L131.089 57.8168C130.636 57.4847 130.277 57.0688 130.038 56.6017C129.8 56.1345 129.69 55.6286 129.715 55.1236C129.786 54.1322 130.517 53.721 131.345 54.2203L157.256 69.3699C157.717 69.6976 158.084 70.1123 158.327 70.5806C158.57 71.0488 158.683 71.5574 158.656 72.065C158.586 73.0563 157.855 73.4676 157 72.9663Z" fill="#EE6F57"/>
<path d="M67.022 84.1336L61.8401 81.099C61.3793 80.7713 61.0123 80.3565 60.769 79.8883C60.5258 79.42 60.4131 78.9115 60.4399 78.4038C60.5107 77.4125 61.2418 77.0013 62.0968 77.5025L67.277 80.5602C67.7411 80.8804 68.1108 81.2905 68.3549 81.7557C68.5989 82.2209 68.7101 82.7274 68.6788 83.2322C68.6081 84.2236 67.877 84.6348 67.022 84.1336Z" fill="#00334E"/>
<path d="M87.5917 96.2115L71.7874 86.9506C71.3349 86.6185 70.9755 86.2026 70.7373 85.7354C70.499 85.2683 70.3885 84.7624 70.4141 84.2574C70.4848 83.266 71.2159 82.8548 72.044 83.3541L87.8467 92.6381C88.3022 92.963 88.6642 93.3743 88.9032 93.8383C89.1422 94.3024 89.2513 94.8061 89.2216 95.3083C89.1509 96.2996 88.3929 96.709 87.5917 96.2115Z" fill="#A9ABAC"/>
<path d="M121.526 116.175L105.724 106.891C105.271 106.559 104.912 106.143 104.674 105.676C104.435 105.209 104.325 104.703 104.35 104.198C104.421 103.206 105.152 102.795 105.98 103.295L121.783 112.579C122.24 112.907 122.603 113.322 122.842 113.791C123.081 114.259 123.188 114.766 123.156 115.272C123.086 116.263 122.356 116.651 121.526 116.175Z" fill="#528098"/>
<path d="M100.388 103.752L92.4076 99.0814C91.9551 98.7493 91.5957 98.3334 91.3575 97.8663C91.1192 97.3991 91.0087 96.8932 91.0343 96.3882C91.105 95.3969 91.8345 95.0086 92.6642 95.485L100.643 100.179C101.104 100.506 101.471 100.921 101.714 101.39C101.957 101.858 102.07 102.366 102.043 102.874C101.974 103.842 101.344 104.353 100.388 103.752Z" fill="#EE6F57"/>
<path d="M152.612 134.451L126.702 119.301C126.249 118.969 125.89 118.553 125.651 118.086C125.413 117.619 125.303 117.113 125.328 116.608C125.399 115.617 126.13 115.205 126.958 115.705L152.869 130.854C153.33 131.182 153.697 131.597 153.94 132.065C154.183 132.533 154.296 133.042 154.269 133.549C154.199 134.541 153.467 134.952 152.612 134.451Z" fill="#EE6F57"/>
</svg>
