<svg width="100" height="100" viewBox="0 0 100 100" fill="none" xmlns="http://www.w3.org/2000/svg">
<path d="M68.75 90.6252C68.75 91.454 68.4208 92.2489 67.8347 92.8349C67.2487 93.421 66.4538 93.7502 65.625 93.7502H34.375C33.5462 93.7502 32.7514 93.421 32.1653 92.8349C31.5793 92.2489 31.25 91.454 31.25 90.6252C31.25 89.7964 31.5793 89.0016 32.1653 88.4155C32.7514 87.8294 33.5462 87.5002 34.375 87.5002H65.625C66.4538 87.5002 67.2487 87.8294 67.8347 88.4155C68.4208 89.0016 68.75 89.7964 68.75 90.6252ZM84.375 40.6252C84.3885 45.8348 83.2116 50.9785 80.9343 55.6639C78.6569 60.3493 75.3392 64.4525 71.2344 67.6604C70.4669 68.2487 69.844 69.0047 69.4134 69.8706C68.9828 70.7365 68.7559 71.6894 68.75 72.6565V75.0002C68.75 76.6578 68.0915 78.2475 66.9194 79.4196C65.7473 80.5917 64.1576 81.2502 62.5 81.2502H37.5C35.8424 81.2502 34.2527 80.5917 33.0806 79.4196C31.9085 78.2475 31.25 76.6578 31.25 75.0002V72.6565C31.2494 71.701 31.0297 70.7584 30.6078 69.9011C30.1859 69.0438 29.5731 68.2946 28.8164 67.7111C24.7219 64.5223 21.4065 60.4437 19.121 55.7842C16.8356 51.1247 15.6401 46.0064 15.625 40.8166C15.5235 22.1994 30.5703 6.69552 49.1719 6.25021C53.7553 6.13976 58.3145 6.94729 62.5811 8.62528C66.8477 10.3033 70.7356 12.8178 74.0158 16.0209C77.2961 19.224 79.9024 23.0509 81.6815 27.2763C83.4605 31.5018 84.3764 36.0405 84.375 40.6252ZM78.125 40.6252C78.1261 36.8739 77.3768 33.1603 75.921 29.7029C74.4653 26.2455 72.3326 23.1143 69.6486 20.4936C66.9645 17.8729 63.7833 15.8156 60.2922 14.4428C56.801 13.07 53.0706 12.4096 49.3203 12.5002C34.086 12.8596 21.793 25.5432 21.875 40.7776C21.8893 45.022 22.8688 49.2077 24.7393 53.0178C26.6098 56.8279 29.3224 60.1626 32.6719 62.7697C34.1775 63.9402 35.3954 65.4397 36.2323 67.1533C37.0691 68.867 37.5028 70.7494 37.5 72.6565V75.0002H62.5V72.6565C62.5044 70.744 62.9454 68.8577 63.7896 67.1416C64.6338 65.4255 65.8588 63.9248 67.3711 62.7541C70.7309 60.1285 73.4463 56.7699 75.31 52.9347C77.1738 49.0995 78.1366 44.8892 78.125 40.6252ZM71.8321 36.9768C71.0217 32.4506 68.8441 28.2813 65.5924 25.0303C62.3406 21.7792 58.1709 19.6025 53.6446 18.7932C53.2398 18.725 52.8256 18.7371 52.4256 18.829C52.0255 18.9208 51.6475 19.0906 51.3131 19.3285C50.9786 19.5665 50.6943 19.868 50.4764 20.2158C50.2585 20.5636 50.1112 20.9509 50.043 21.3557C49.9748 21.7604 49.9869 22.1746 50.0788 22.5747C50.1706 22.9747 50.3404 23.3527 50.5783 23.6872C50.8163 24.0216 51.1178 24.3059 51.4656 24.5238C51.8134 24.7417 52.2008 24.889 52.6055 24.9572C59.0781 26.0471 64.5703 31.5393 65.668 38.0236C65.7917 38.7515 66.169 39.412 66.7331 39.8882C67.2973 40.3644 68.0118 40.6255 68.75 40.6252C68.9266 40.6242 69.1029 40.6098 69.2774 40.5822C70.0942 40.4428 70.8222 39.9846 71.3013 39.3085C71.7804 38.6324 71.9713 37.7936 71.8321 36.9768Z" fill="url(#paint0_linear_2104_808)"/>
<defs>
<linearGradient id="paint0_linear_2104_808" x1="49.5933" y1="8.81109" x2="51.717" y2="93.7073" gradientUnits="userSpaceOnUse">
<stop stop-color="#E5E5E5"/>
<stop offset="1" stop-color="#ACACAC"/>
</linearGradient>
</defs>
</svg>
