<svg width="760" height="225" viewBox="0 0 760 225" fill="none" xmlns="http://www.w3.org/2000/svg">
<path d="M749.167 6C749.167 8.94552 751.555 11.3333 754.5 11.3333C757.446 11.3333 759.834 8.94552 759.834 6C759.834 3.05448 757.446 0.666667 754.5 0.666667C751.555 0.666667 749.167 3.05448 749.167 6ZM670 129.5L669.558 128.603L670 129.5ZM66.0005 155.5L66.3422 156.44L66.0005 155.5ZM4.00038 225L11.724 216.416L0.428593 214.019L4.00038 225ZM753.5 6C753.5 37.2178 740.405 93.693 669.558 128.603L670.443 130.397C742.133 95.0712 755.5 37.7822 755.5 6H753.5ZM669.558 128.603C656.752 134.913 638.584 139.769 616.423 143.453C594.277 147.134 568.209 149.636 539.639 151.267C482.499 154.531 415.42 154.313 349.831 153.125C284.27 151.938 220.147 149.781 169.036 149.172C143.472 148.867 121.131 148.949 103.455 149.733C85.8285 150.516 72.7 152 65.6587 154.56L66.3422 156.44C73.051 154 85.8756 152.516 103.544 151.731C121.163 150.95 143.458 150.867 169.012 151.172C220.135 151.781 284.169 153.937 349.795 155.125C415.393 156.312 482.534 156.532 539.753 153.264C568.362 151.63 594.509 149.123 616.751 145.426C638.979 141.731 657.374 136.837 670.443 130.397L669.558 128.603ZM65.6587 154.56C49.0617 160.595 35.5234 171.913 25.3299 183.689C15.1369 195.464 8.24055 207.752 4.94289 215.819L6.79418 216.575C10.0095 208.71 16.7912 196.609 26.842 184.998C36.8922 173.388 50.1634 162.323 66.3422 156.44L65.6587 154.56Z" fill="white"/>
</svg>
