<svg width="184" height="75" viewBox="0 0 184 75" fill="none" xmlns="http://www.w3.org/2000/svg">
<path d="M111.558 24.3734H104.809L103.692 27.6021H100.124L106.217 10.6334H110.174L116.267 27.6021H112.674L111.558 24.3734ZM110.635 21.6545L108.183 14.5661L105.732 21.6545H110.635ZM132.552 27.6021H129.153L121.458 15.9741V27.6021H118.059V10.6334H121.458L129.153 22.2857V10.6334H132.552V27.6021ZM145.815 24.3734H139.066L137.949 27.6021H134.381L140.474 10.6334H144.431L150.524 27.6021H146.931L145.815 24.3734ZM144.892 21.6545L142.44 14.5661L139.988 21.6545H144.892ZM166.809 27.6021H163.41L155.715 15.9741V27.6021H152.316V10.6334H155.715L163.41 22.2857V10.6334H166.809V27.6021ZM181.213 10.6577V13.4009H176.697V27.6021H173.299V13.4009H168.783V10.6577H181.213Z" fill="#E5E5E5"/>
<path d="M143.65 30.5517V69.9829H135.741V44.3357L125.177 69.9829H119.189L108.569 44.3357V69.9829H100.66V30.5517H109.642L122.183 59.8709L134.724 30.5517H143.65ZM172.597 69.9829L158.248 52.414V69.9829H150.339V30.5517H158.248V48.2336L172.597 30.5517H182.144L165.875 50.0978L182.596 69.9829H172.597Z" fill="#EE6F57"/>
<path d="M0 59.0751C0.0766306 53.9408 1.9924 49.6879 4.91713 45.835C7.78652 42.0546 11.3498 39.0192 15.3176 36.4308C16.0243 35.971 16.1989 36.0987 16.2968 36.9033C16.4585 38.2443 16.7012 39.5854 16.9992 40.9009C17.161 41.6033 16.9992 42.0333 16.4756 42.5229C13.4785 45.3199 11.0944 48.5341 10.0258 52.5615C8.16116 59.5902 12.8016 66.2997 20.0091 67.1469C24.4281 67.6662 28.5577 66.653 32.5382 64.9288C39.8266 61.7699 45.7783 56.9763 50.0823 50.2541C51.517 48.0147 52.4281 45.5328 53.271 43.0338C53.535 42.2504 53.8543 42.1568 54.5184 42.5484C55.4337 43.0934 56.3661 43.6042 57.3112 44.0981C57.9455 44.4301 58.0434 44.8303 57.8178 45.5243C56.1149 50.7309 53.3647 55.3159 49.6268 59.3092C42.5513 66.8701 34.1176 72.1449 23.8875 74.2905C18.6681 75.3846 13.4998 75.2654 8.61243 72.826C3.29937 70.178 0.017029 64.7883 0 59.0751Z" fill="#145374"/>
<path d="M26.7912 32.369C26.9019 38.5888 28.2983 44.9917 31.7765 50.854C32.4874 52.0545 33.3559 53.1444 34.2372 54.2257C35.1184 55.3071 35.3526 55.0985 33.9264 55.9925C33.1516 56.4778 32.3171 56.878 31.5508 57.3761C30.8484 57.8359 30.4099 57.6656 29.899 57.0355C26.3527 52.6463 24.0921 47.6355 22.7256 42.216C20.35 32.7734 20.2819 23.3691 23.6068 14.1053C25.1692 9.75869 27.5575 5.92716 31.3465 3.11737C37.6685 -1.56561 46.4044 -0.897222 52.0112 4.61592C56.3196 8.85615 58.4354 14.1564 59.6487 19.9122C60.1085 22.1005 60.3129 24.3228 60.4704 26.5536C60.5215 27.2688 60.3597 27.4859 59.6274 27.2007C58.2651 26.6642 56.8858 26.1576 55.4894 25.7064C54.8849 25.5105 54.7444 25.1061 54.6252 24.5782C53.9397 21.5513 52.8286 18.6947 51.0193 16.1488C48.5756 12.7047 45.3656 10.4824 41.0105 10.4186C35.9018 10.3462 32.4449 13.0666 30.0778 17.3281C27.5746 21.8365 26.8295 26.7664 26.7912 32.369Z" fill="#EE6F57"/>
<path d="M39.6393 33.5102C38.0726 33.5272 35.6077 33.9104 33.1555 34.3957C32.5595 34.5149 32.2785 34.4425 32.27 33.7699C32.2615 32.6375 32.2189 31.505 32.1508 30.3726C32.0997 29.5424 32.5041 29.2487 33.2832 29.104C40.9676 27.6565 48.4135 28.6186 55.6849 31.2794C62.2794 33.6933 68.231 37.197 73.2418 42.1354C77.0308 45.869 80.0236 50.1348 81.1135 55.4734C82.8632 64.022 77.9333 71.9447 69.4614 74.184C63.199 75.8401 57.1579 74.8141 51.2361 72.562C50.2782 72.1959 49.3544 71.7404 48.4093 71.3444C47.8728 71.1188 47.8473 70.8761 48.2901 70.4972C49.5715 69.3989 50.8401 68.2877 52.096 67.1681C52.5132 66.7934 52.9432 66.8743 53.4328 66.9722C57.3452 67.7513 61.2364 67.9216 64.9955 66.2741C71.1175 63.5877 73.5356 56.6825 70.5512 50.4669C68.2779 45.7413 64.523 42.4036 60.1848 39.6492C54.0799 35.7751 46.766 33.5145 39.6393 33.5145V33.5102Z" fill="#E5E5E5"/>
</svg>
