<svg width="372" height="257" viewBox="0 0 372 257" fill="none" xmlns="http://www.w3.org/2000/svg">
<g clip-path="url(#clip0_2104_1251)">
<path d="M359.988 -0.00195312H12.0116C5.37779 -0.00195312 0 5.40973 0 12.0854V244.515C0 251.19 5.37779 256.602 12.0116 256.602H359.988C366.622 256.602 372 251.19 372 244.515V12.0854C372 5.40973 366.622 -0.00195312 359.988 -0.00195312Z" fill="#E3E3E3"/>
<path d="M12.0116 256.602H359.988C366.625 256.602 372 251.193 372 244.514V232.195H0V244.514C0 251.193 5.3752 256.602 12.0116 256.602Z" fill="#124F70"/>
<path d="M191.916 244.392C191.916 241.099 189.263 238.439 186 238.439C182.737 238.439 180.084 241.109 180.084 244.392C180.084 247.676 182.737 250.345 186 250.345C189.263 250.345 191.916 247.676 191.916 244.392Z" fill="#D0D0D6" stroke="#003049" stroke-width="2.27755" stroke-linecap="round" stroke-linejoin="round"/>
<path d="M359.988 -0.00195312H12.0116C5.3752 -0.00195312 0 5.40713 0 12.0854H372C372 5.40713 366.625 -0.00195312 359.988 -0.00195312Z" fill="#124F70"/>
<path d="M345.705 32.2305H24.6543V187.845H345.705V32.2305Z" fill="#EE6F57"/>
<path d="M345.705 187.844H24.6543V210.356H345.705V187.844Z" fill="#1F364E"/>
<path d="M98.8657 44.0566H37.166V48.5088H98.8657V44.0566Z" fill="#1F364E"/>
<path d="M128.524 44.0566H102.629V48.5088H128.524V44.0566Z" fill="#E3E3E3"/>
<path d="M150.195 57.9473H37.1655V62.3994H150.195V57.9473Z" fill="#1F364E"/>
<path d="M204.538 57.9473H157.092V62.3994H204.538V57.9473Z" fill="#E3E3E3"/>
<path d="M274.325 57.9473H213.066V62.3994H274.325V57.9473Z" fill="#1F364E"/>
<path d="M303.783 57.9473H278.068V62.3994H303.783V57.9473Z" fill="#E3E3E3"/>
<path d="M116.572 71.8262H37.1655V76.2783H116.572V71.8262Z" fill="#1F364E"/>
<path d="M154.749 71.8262H121.417V76.2783H154.749V71.8262Z" fill="#E3E3E3"/>
<path d="M75.2924 85.7207H37.1655V90.1729H75.2924V85.7207Z" fill="#1F364E"/>
<path d="M93.6197 85.7207H77.6143V90.1729H93.6197V85.7207Z" fill="#E3E3E3"/>
<path d="M143.249 85.7207H105.122V90.1729H143.249V85.7207Z" fill="#1F364E"/>
<path d="M161.587 85.7207H145.581V90.1729H161.587V85.7207Z" fill="#E3E3E3"/>
<path d="M243.997 85.7207H173.088V90.1729H243.997V85.7207Z" fill="#1F364E"/>
<path d="M278.1 85.7207H248.331V90.1729H278.1V85.7207Z" fill="#E3E3E3"/>
<path d="M154.739 99.6074H37.1655V104.06H154.739V99.6074Z" fill="#1F364E"/>
<path d="M211.264 99.6074H161.917V104.06H211.264V99.6074Z" fill="#E3E3E3"/>
<path d="M247.949 99.6074H137.302V104.06H247.949V99.6074Z" fill="#1F364E"/>
<path d="M301.151 99.6074H254.706V104.06H301.151V99.6074Z" fill="#E3E3E3"/>
<path d="M189.604 113.5H37.166V117.952H189.604V113.5Z" fill="#1F364E"/>
<path d="M262.894 113.5H198.912V117.952H262.894V113.5Z" fill="#E3E3E3"/>
<path d="M283.884 113.5H220.153V117.952H283.884V113.5Z" fill="#1F364E"/>
<path d="M314.514 113.5H287.769V117.952H314.514V113.5Z" fill="#E3E3E3"/>
<path d="M93.6202 127.379H37.1655V131.831H93.6202V127.379Z" fill="#1F364E"/>
<path d="M120.756 127.379H97.063V131.831H120.756V127.379Z" fill="#E3E3E3"/>
<path d="M307.117 127.379H254.506V131.831H307.117V127.379Z" fill="#1F364E"/>
<path d="M332.411 127.379H310.33V131.831H332.411V127.379Z" fill="#E3E3E3"/>
<path d="M206.239 127.379H130.586V131.831H206.239V127.379Z" fill="#1F364E"/>
<path d="M242.604 127.379H210.853V131.831H242.604V127.379Z" fill="#E3E3E3"/>
<path d="M182.256 141.268H37.166V145.72H182.256V141.268Z" fill="#1F364E"/>
<path d="M252.014 141.268H191.115V145.72H252.014V141.268Z" fill="#E3E3E3"/>
<path d="M127.823 155.162H37.1655V159.614H127.823V155.162Z" fill="#1F364E"/>
<path d="M171.395 155.162H133.348V159.614H171.395V155.162Z" fill="#E3E3E3"/>
<path d="M272.794 155.162H186V159.614H272.794V155.162Z" fill="#1F364E"/>
<path d="M314.514 155.162H278.089V159.614H314.514V155.162Z" fill="#E3E3E3"/>
<path d="M115.962 169.051H37.1655V173.503H115.962V169.051Z" fill="#1F364E"/>
<path d="M153.838 169.051H120.766V173.503H153.838V169.051Z" fill="#E3E3E3"/>
<path d="M202.496 169.051H159.784V173.503H202.496V169.051Z" fill="#1F364E"/>
<path d="M223.025 169.051H205.098V173.503H223.025V169.051Z" fill="#E3E3E3"/>
</g>
<defs>
<clipPath id="clip0_2104_1251">
<rect width="372" height="256.604" fill="white"/>
</clipPath>
</defs>
</svg>
