<svg width="124" height="124" viewBox="0 0 124 124" fill="none" xmlns="http://www.w3.org/2000/svg">
<circle cx="62" cy="62" r="62" fill="#145374"/>
<g clip-path="url(#clip0_1427_42722)">
<path d="M34.9036 27.903C31.0434 27.903 27.9033 31.0431 27.9033 34.9032C27.9033 38.7633 31.0434 41.9035 34.9036 41.9035C38.7637 41.9035 41.9038 38.7633 41.9038 34.9032C41.9038 31.0431 38.7637 27.903 34.9036 27.903ZM34.9036 39.1938C32.5376 39.1938 30.613 37.2691 30.613 34.9032C30.613 32.5373 32.5376 30.6126 34.9036 30.6126C37.2695 30.6126 39.1942 32.5373 39.1942 34.9032C39.1942 37.2691 37.2695 39.1938 34.9036 39.1938Z" fill="#EE6F57"/>
<path d="M87.7419 85.0323V80.9677H97.2258V64.7097H70.129V71.4839H62V60.6452H71.4839V55.2258H85.0323V43.0323H97.2258V26.7742H64.7097V33.5484H49.8065V31.5866L45.5453 30.5228C45.5391 30.5058 45.5314 30.4919 45.5252 30.4764L47.7843 26.7107L43.0957 22.0206L39.3285 24.2813C39.313 24.2751 39.2991 24.2674 39.2836 24.2612L38.2199 20H31.5866L30.5228 24.2612C30.5074 24.2674 30.4919 24.2751 30.4764 24.2813L26.7107 22.0222L22.0206 26.7092L24.2797 30.4748C24.2735 30.4903 24.2658 30.5043 24.2596 30.5213L20 31.5866V38.2199L24.2612 39.2836C24.2674 39.2991 24.2751 39.3146 24.2813 39.3285L22.0222 43.0957L26.7107 47.7843L30.4779 45.5252C30.4934 45.5314 30.5074 45.5375 30.5228 45.5453L31.5866 49.8065H38.2199L39.2836 45.5453C39.2991 45.5391 39.3146 45.5314 39.3285 45.5252L43.0957 47.7843L47.7843 43.0957L45.5252 39.3285C45.5314 39.313 45.5375 39.2991 45.5453 39.2836L49.8065 38.2199V36.2581H64.7097V43.0323H82.3226V52.5161H71.4839V47.0968H49.8065V60.6452H59.2903V74.1936H70.129V80.9677H85.0323V85.0323H71.4839V89.775L65.1603 85.0323H30.8387C27.0901 85.0323 20 87.0142 20 94.5161C20 102.018 27.0901 104 30.8387 104H65.1603L71.4839 99.2588V104H104V85.0323H87.7419ZM47.0968 36.1032L43.4828 37.0075L43.2444 37.7105C43.1205 38.0774 42.9657 38.4506 42.7845 38.8129L42.4547 39.4772L44.3747 42.6761L42.6761 44.3747L39.4772 42.4547L38.8129 42.7845C38.4475 42.9657 38.0774 43.1205 37.7105 43.2459L37.0059 43.4828L36.1032 47.0968H33.7048L32.8005 43.4813L32.0975 43.2444C31.7306 43.1205 31.3574 42.9657 30.9951 42.783L30.3308 42.4547L27.1319 44.3747L25.4317 42.6746L27.3517 39.4756L27.0235 38.8129C26.8423 38.4475 26.6875 38.0774 26.5621 37.7089L26.3252 37.0059L22.7097 36.1032V33.7032L26.3236 32.8005L26.5605 32.096C26.6859 31.729 26.8392 31.3574 27.0219 30.9935L27.3502 30.3293L25.4317 27.1303L27.1303 25.4302L30.3293 27.3502L30.9935 27.0219C31.3574 26.8392 31.729 26.6844 32.096 26.5605L32.799 26.3236L33.7032 22.7081H36.1017L37.0059 26.3236L37.7089 26.5605C38.0759 26.6844 38.449 26.8392 38.8114 27.0219L39.4756 27.3502L42.6746 25.4302L44.3732 27.1303L42.4547 30.3293L42.783 30.9935C42.9641 31.3574 43.119 31.729 43.2444 32.096L43.4813 32.799L47.0968 33.7017V36.1032ZM67.4194 40.3226V29.4839H94.5161V40.3226H67.4194ZM52.5161 57.9355V49.8065H68.7742V57.9355H52.5161ZM29.4839 101.173C27.1659 100.843 22.7097 99.5515 22.7097 94.5161C22.7097 89.4808 27.1659 88.1879 29.4839 87.8565V101.173ZM72.8387 78.2581V67.4194H94.5161V78.2581H72.8387ZM34.9032 101.29H32.1935V87.7419H34.9032V101.29ZM62 101.29H37.6129V95.871H62V101.29ZM62 93.1613H37.6129V87.7419H62V93.1613ZM64.7097 100.951V88.0795L73.2893 94.5146L64.7097 100.951ZM101.29 101.29H74.1936V97.2258L77.8075 94.5161L74.1936 91.8064V87.7419H101.29V101.29Z" fill="#EE6F57"/>
<path d="M29.4842 87.8565V101.173C27.1662 100.843 22.71 99.5515 22.71 94.5161C22.71 89.4808 27.1662 88.1879 29.4842 87.8565Z" fill="#E5E5E5"/>
<path d="M34.903 87.7419H32.1934V101.29H34.903V87.7419Z" fill="#145374"/>
<path d="M62.0004 87.7419H37.6133V93.1613H62.0004V87.7419Z" fill="#E5E5E5"/>
<path d="M62.0004 95.871H37.6133V101.29H62.0004V95.871Z" fill="#E5E5E5"/>
<path d="M73.2896 94.5146L64.71 100.951V88.0795L73.2896 94.5146Z" fill="#145374"/>
<path d="M74.1934 87.7419V91.8065L77.8073 94.5161L74.1934 97.2258V101.29H101.29V87.7419H74.1934ZM83.6772 95.871C82.9294 95.871 82.3224 95.264 82.3224 94.5161C82.3224 93.7683 82.9294 93.1613 83.6772 93.1613C84.4251 93.1613 85.0321 93.7683 85.0321 94.5161C85.0321 95.264 84.4251 95.871 83.6772 95.871ZM89.0966 95.871C88.3487 95.871 87.7417 95.264 87.7417 94.5161C87.7417 93.7683 88.3487 93.1613 89.0966 93.1613C89.8445 93.1613 90.4514 93.7683 90.4514 94.5161C90.4514 95.264 89.8445 95.871 89.0966 95.871ZM94.5159 95.871C93.7681 95.871 93.1611 95.264 93.1611 94.5161C93.1611 93.7683 93.7681 93.1613 94.5159 93.1613C95.2638 93.1613 95.8708 93.7683 95.8708 94.5161C95.8708 95.264 95.2638 95.871 94.5159 95.871Z" fill="#145374"/>
<path d="M72.8389 67.4194V78.2581H94.5163V67.4194H72.8389ZM78.2582 74.1936C77.5104 74.1936 76.9034 73.5866 76.9034 72.8387C76.9034 72.0909 77.5104 71.4839 78.2582 71.4839C79.0061 71.4839 79.6131 72.0909 79.6131 72.8387C79.6131 73.5866 79.0061 74.1936 78.2582 74.1936ZM83.6776 74.1936C82.9297 74.1936 82.3227 73.5866 82.3227 72.8387C82.3227 72.0909 82.9297 71.4839 83.6776 71.4839C84.4254 71.4839 85.0324 72.0909 85.0324 72.8387C85.0324 73.5866 84.4254 74.1936 83.6776 74.1936ZM89.0969 74.1936C88.3491 74.1936 87.7421 73.5866 87.7421 72.8387C87.7421 72.0909 88.3491 71.4839 89.0969 71.4839C89.8448 71.4839 90.4518 72.0909 90.4518 72.8387C90.4518 73.5866 89.8448 74.1936 89.0969 74.1936Z" fill="#145374"/>
<path d="M52.5166 49.8065V57.9355H68.7747V49.8065H52.5166ZM57.936 55.2258C57.1881 55.2258 56.5811 54.6188 56.5811 53.871C56.5811 53.1231 57.1881 52.5161 57.936 52.5161C58.6838 52.5161 59.2908 53.1231 59.2908 53.871C59.2908 54.6188 58.6838 55.2258 57.936 55.2258ZM63.3553 55.2258C62.6074 55.2258 62.0005 54.6188 62.0005 53.871C62.0005 53.1231 62.6074 52.5161 63.3553 52.5161C64.1032 52.5161 64.7102 53.1231 64.7102 53.871C64.7102 54.6188 64.1032 55.2258 63.3553 55.2258Z" fill="#145374"/>
<path d="M67.4189 29.4839V40.3226H94.5157V29.4839H67.4189ZM75.548 36.2581C74.8001 36.2581 74.1931 35.6511 74.1931 34.9032C74.1931 34.1554 74.8001 33.5484 75.548 33.5484C76.2958 33.5484 76.9028 34.1554 76.9028 34.9032C76.9028 35.6511 76.2958 36.2581 75.548 36.2581ZM80.9673 36.2581C80.2195 36.2581 79.6125 35.6511 79.6125 34.9032C79.6125 34.1554 80.2195 33.5484 80.9673 33.5484C81.7152 33.5484 82.3222 34.1554 82.3222 34.9032C82.3222 35.6511 81.7152 36.2581 80.9673 36.2581ZM86.3867 36.2581C85.6388 36.2581 85.0318 35.6511 85.0318 34.9032C85.0318 34.1554 85.6388 33.5484 86.3867 33.5484C87.1346 33.5484 87.7415 34.1554 87.7415 34.9032C87.7415 35.6511 87.1346 36.2581 86.3867 36.2581Z" fill="#145374"/>
<path d="M43.2447 37.7105L43.4831 37.0075L47.0971 36.1032V33.7017L43.4816 32.799L43.2447 32.096C43.1193 31.729 42.9644 31.3574 42.7833 30.9935L42.455 30.3293L44.3734 27.1303L42.6749 25.4302L39.4759 27.3502L38.8116 27.0219C38.4493 26.8392 38.0762 26.6844 37.7092 26.5605L37.0062 26.3236L36.102 22.7081H33.7035L32.7993 26.3236L32.0963 26.5605C31.7293 26.6844 31.3577 26.8392 30.9938 27.0219L30.3296 27.3502L27.1306 25.4302L25.432 27.1303L27.3505 30.3293L27.0222 30.9935C26.8395 31.3574 26.6862 31.729 26.5608 32.096L26.3239 32.8005L22.71 33.7032V36.1032L26.3254 37.0059L26.5623 37.7089C26.6878 38.0774 26.8426 38.4475 27.0238 38.8129L27.352 39.4756L25.432 42.6746L27.1322 44.3747L30.3311 42.4547L30.9954 42.783C31.3577 42.9657 31.7309 43.1205 32.0978 43.2444L32.8008 43.4813L33.7051 47.0968H36.1035L37.0062 43.4828L37.7107 43.2459C38.0777 43.1205 38.4478 42.9657 38.8132 42.7845L39.4774 42.4547L42.6764 44.3747L44.375 42.6761L42.455 39.4772L42.7848 38.8129C42.966 38.4506 43.1208 38.0774 43.2447 37.7105ZM34.9035 41.9035C31.0434 41.9035 27.9033 38.7634 27.9033 34.9032C27.9033 31.0431 31.0434 27.903 34.9035 27.903C38.7636 27.903 41.9038 31.0431 41.9038 34.9032C41.9038 38.7634 38.7636 41.9035 34.9035 41.9035Z" fill="#145374"/>
<path d="M34.9029 39.1938C37.2725 39.1938 39.1935 37.2729 39.1935 34.9033C39.1935 32.5336 37.2725 30.6127 34.9029 30.6127C32.5333 30.6127 30.6123 32.5336 30.6123 34.9033C30.6123 37.2729 32.5333 39.1938 34.9029 39.1938Z" fill="#E5E5E5"/>
<path d="M75.5482 36.2581C76.2965 36.2581 76.903 35.6515 76.903 34.9032C76.903 34.155 76.2965 33.5484 75.5482 33.5484C74.7999 33.5484 74.1934 34.155 74.1934 34.9032C74.1934 35.6515 74.7999 36.2581 75.5482 36.2581Z" fill="#E5E5E5"/>
<path d="M80.9681 36.2581C81.7164 36.2581 82.323 35.6515 82.323 34.9032C82.323 34.155 81.7164 33.5484 80.9681 33.5484C80.2199 33.5484 79.6133 34.155 79.6133 34.9032C79.6133 35.6515 80.2199 36.2581 80.9681 36.2581Z" fill="#E5E5E5"/>
<path d="M57.9359 55.2258C58.6841 55.2258 59.2907 54.6192 59.2907 53.871C59.2907 53.1227 58.6841 52.5161 57.9359 52.5161C57.1876 52.5161 56.5811 53.1227 56.5811 53.871C56.5811 54.6192 57.1876 55.2258 57.9359 55.2258Z" fill="#E5E5E5"/>
<path d="M63.3548 55.2258C64.1031 55.2258 64.7097 54.6192 64.7097 53.871C64.7097 53.1227 64.1031 52.5161 63.3548 52.5161C62.6066 52.5161 62 53.1227 62 53.871C62 54.6192 62.6066 55.2258 63.3548 55.2258Z" fill="#E5E5E5"/>
<path d="M86.3871 36.2581C87.1353 36.2581 87.7419 35.6515 87.7419 34.9032C87.7419 34.155 87.1353 33.5484 86.3871 33.5484C85.6388 33.5484 85.0322 34.155 85.0322 34.9032C85.0322 35.6515 85.6388 36.2581 86.3871 36.2581Z" fill="#E5E5E5"/>
<path d="M78.2582 74.1936C79.0064 74.1936 79.613 73.587 79.613 72.8387C79.613 72.0905 79.0064 71.4839 78.2582 71.4839C77.5099 71.4839 76.9033 72.0905 76.9033 72.8387C76.9033 73.587 77.5099 74.1936 78.2582 74.1936Z" fill="#E5E5E5"/>
<path d="M83.6771 74.1936C84.4254 74.1936 85.0319 73.587 85.0319 72.8387C85.0319 72.0905 84.4254 71.4839 83.6771 71.4839C82.9288 71.4839 82.3223 72.0905 82.3223 72.8387C82.3223 73.587 82.9288 74.1936 83.6771 74.1936Z" fill="#E5E5E5"/>
<path d="M89.097 74.1936C89.8453 74.1936 90.4519 73.587 90.4519 72.8387C90.4519 72.0905 89.8453 71.4839 89.097 71.4839C88.3488 71.4839 87.7422 72.0905 87.7422 72.8387C87.7422 73.587 88.3488 74.1936 89.097 74.1936Z" fill="#E5E5E5"/>
<path d="M83.6771 95.871C84.4254 95.871 85.0319 95.2644 85.0319 94.5162C85.0319 93.7679 84.4254 93.1613 83.6771 93.1613C82.9288 93.1613 82.3223 93.7679 82.3223 94.5162C82.3223 95.2644 82.9288 95.871 83.6771 95.871Z" fill="#E5E5E5"/>
<path d="M89.097 95.871C89.8453 95.871 90.4519 95.2644 90.4519 94.5162C90.4519 93.7679 89.8453 93.1613 89.097 93.1613C88.3488 93.1613 87.7422 93.7679 87.7422 94.5162C87.7422 95.2644 88.3488 95.871 89.097 95.871Z" fill="#E5E5E5"/>
<path d="M94.516 95.871C95.2642 95.871 95.8708 95.2644 95.8708 94.5162C95.8708 93.7679 95.2642 93.1613 94.516 93.1613C93.7677 93.1613 93.1611 93.7679 93.1611 94.5162C93.1611 95.2644 93.7677 95.871 94.516 95.871Z" fill="#E5E5E5"/>
</g>
<defs>
<clipPath id="clip0_1427_42722">
<rect width="84" height="84" fill="white" transform="translate(20 20)"/>
</clipPath>
</defs>
</svg>
