<svg width="124" height="124" viewBox="0 0 124 124" fill="none" xmlns="http://www.w3.org/2000/svg">
<circle cx="62" cy="62" r="62" fill="#145374"/>
<g clip-path="url(#clip0_1427_43426)">
<path d="M20 92.8H22.8V95.6H20V92.8Z" fill="#E5E5E5"/>
<path d="M25.5996 92.8H36.7996V95.6H25.5996V92.8Z" fill="#E5E5E5"/>
<path d="M20 98.4H36.8V101.2H20V98.4Z" fill="#E5E5E5"/>
<path d="M22.7998 20H25.5998V22.8H22.7998V20Z" fill="#E5E5E5"/>
<path d="M28.4004 20H39.6004V22.8H28.4004V20Z" fill="#E5E5E5"/>
<path d="M22.7998 25.6H39.5998V28.4H22.7998V25.6Z" fill="#E5E5E5"/>
<path d="M90 21.4H92.8V24.2H90V21.4Z" fill="#E5E5E5"/>
<path d="M95.5996 21.4H104V24.2H95.5996V21.4Z" fill="#E5E5E5"/>
<path d="M90 27H104V29.8H90V27Z" fill="#E5E5E5"/>
<path d="M87.2002 84.4H90.0002V87.2H87.2002V84.4Z" fill="#E5E5E5"/>
<path d="M92.7998 84.4H104V87.2H92.7998V84.4Z" fill="#E5E5E5"/>
<path d="M87.2002 90H104V92.8H87.2002V90Z" fill="#E5E5E5"/>
<path d="M100.85 74.0736C100.213 72.3552 98.7748 71.0576 96.9988 70.5984V59.2C96.9988 58.536 96.5316 57.9632 95.8788 57.8304L84.1412 55.384C85.1588 48.7504 83.082 42.0176 78.5012 37.112L82.2244 35.2592C82.7028 35.0208 83.002 34.5328 82.9988 34V31.2H85.7988C86.17 31.2 86.5268 31.0528 86.7892 30.7888C87.0516 30.5264 87.1988 30.1712 87.1988 29.8V21.4C87.1988 21.0288 87.0516 20.672 86.7892 20.4096C86.5268 20.1472 86.17 20 85.7988 20H77.3988C76.626 20 75.9988 20.6272 75.9988 21.4V29.8C75.9988 30.1712 76.1476 30.5264 76.41 30.7888C76.6724 31.0528 77.0276 31.2 77.3988 31.2H80.1988V33.1344L76.3764 35.0464C70.3236 29.9584 62.0356 28.4432 54.5748 31.0608C47.114 33.6784 41.5892 40.0384 40.0404 47.792L32.6004 46.7776V42.2C34.3748 41.7424 35.8132 40.4448 36.45 38.7264C37.0884 37.0064 36.8436 35.0848 35.7972 33.5808C34.7492 32.0752 33.0324 31.1776 31.2004 31.1776C29.3684 31.1776 27.65 32.0752 26.6036 33.5808C25.5556 35.0848 25.3124 37.0064 25.9492 38.7264C26.586 40.4448 28.0244 41.7424 29.8004 42.2V48C29.8004 48.6992 30.3172 49.2928 31.0116 49.3872L39.6836 50.5696C39.6436 51.1088 39.6004 51.6496 39.6004 52.2C39.6004 57.1088 41.226 61.88 44.2196 65.7712L27.9076 71.888C27.3604 72.0928 26.9988 72.616 26.9988 73.2V78.8H24.1988C23.426 78.8 22.7988 79.4256 22.7988 80.2V88.6C22.8004 88.9712 22.9476 89.328 23.21 89.5904C23.4724 89.8528 23.8292 90 24.2004 90H32.6004C32.9716 90 33.3284 89.8528 33.5908 89.5904C33.8532 89.328 34.0004 88.9712 34.0004 88.6V80.2C34.0004 79.8288 33.8532 79.4736 33.5908 79.2112C33.3284 78.9472 32.9716 78.8 32.6004 78.8H29.8004V74.1696L46.1684 68.0336C49.3396 71.2048 53.3924 73.352 57.7988 74.192V77.4H56.3988C55.626 77.4 54.9988 78.0272 54.9988 78.8V102.6C54.9988 102.971 55.1476 103.328 55.41 103.59C55.6724 103.853 56.0276 104 56.3988 104H67.5988C67.9716 104 68.3268 103.853 68.5892 103.59C68.8516 103.328 68.9988 102.971 68.9988 102.6V78.8C68.9988 78.4288 68.8516 78.0736 68.5892 77.8112C68.3268 77.5472 67.9716 77.4 67.5988 77.4H66.1988V74.192C70.306 73.3984 74.1076 71.4736 77.1796 68.6352C80.25 65.7968 82.466 62.1552 83.5796 58.1248L94.1988 60.3376V70.5984C92.4244 71.0576 90.986 72.3552 90.3492 74.0736C89.7108 75.792 89.9556 77.7152 91.002 79.2192C92.05 80.7232 93.7668 81.6208 95.5988 81.6208C97.4308 81.6208 99.1492 80.7248 100.196 79.2192C101.244 77.7152 101.488 75.792 100.85 74.0736ZM78.8004 28.4V22.8H84.4004V28.4H78.8004ZM29.2196 38.7808C28.6948 38.256 28.4004 37.5424 28.4004 36.8C28.4004 36.0576 28.6948 35.3456 29.2196 34.8208C29.746 34.296 30.458 34 31.2004 34C31.9428 34 32.6548 34.296 33.1812 34.8208C33.706 35.3456 34.0004 36.0576 34.0004 36.8C34.0004 37.5424 33.706 38.256 33.1812 38.7808C32.6548 39.3056 31.9428 39.6 31.2004 39.6C30.458 39.6 29.746 39.3056 29.2196 38.7808ZM31.2004 81.6V87.2H25.6004V81.6H31.2004ZM66.2004 80.2V101.2H57.8004V80.2H66.2004ZM60.6004 77.4V74.6H63.4004V77.4H60.6004ZM73.8052 67.8304C70.4052 70.4 66.2612 71.7936 62.0004 71.8C57.2548 71.7984 52.6724 70.0672 49.1108 66.9296L52.1588 65.7808C56.5604 68.9904 62.25 69.8592 67.41 68.1104C72.5716 66.36 76.5588 62.2112 78.0996 56.984L80.842 57.5552C79.674 61.6544 77.2036 65.2608 73.8052 67.8304ZM76.0004 52.2C75.9988 52.6912 75.9732 53.1824 75.922 53.6704L67.5732 51.9312C67.5444 51.3376 67.4212 50.7552 67.21 50.2064C67.0004 49.6576 66.7044 49.1424 66.3284 48.6816C65.578 47.7584 64.5524 47.0992 63.4004 46.8V44.6656L70.5108 41.1088C73.9668 43.7504 75.9972 47.8512 76.0004 52.2ZM62.4916 61.912C63.0388 61.7072 63.4004 61.184 63.4004 60.6V57.6016C64.9668 57.192 66.2804 56.1232 66.9988 54.672L75.3508 56.4112C74.1028 60.3792 71.154 63.584 67.3044 65.16C63.4548 66.7328 59.1044 66.5136 55.434 64.5584L62.4916 61.912ZM62.0004 55C61.258 55 60.5444 54.7056 60.0196 54.1808C59.4948 53.656 59.2004 52.9424 59.2004 52.2C59.2004 51.4576 59.4948 50.7456 60.0196 50.2208C60.5444 49.696 61.258 49.4 62.0004 49.4C62.7428 49.4 63.4548 49.696 63.9796 50.2208C64.5044 50.7456 64.8004 51.4576 64.8004 52.2C64.8004 52.9424 64.5044 53.656 63.9796 54.1808C63.4548 54.7056 62.7428 55 62.0004 55ZM61.3716 42.5472C60.898 42.7856 60.5988 43.2704 60.6004 43.8V46.8C58.8932 47.2384 57.4932 48.4544 56.8196 50.0832L48.3972 48.9328C49.3604 44.8944 52.0708 41.4928 55.7924 39.6528C59.514 37.8128 63.8628 37.7248 67.6564 39.4128L61.3716 42.5472ZM56.4676 52.8592C56.5332 53.416 56.682 53.9568 56.9076 54.464C57.1332 54.9712 57.434 55.4464 57.802 55.8688C58.5396 56.7136 59.514 57.3184 60.6004 57.6016V59.6304L52.666 62.6064C49.7012 59.96 48.0036 56.1744 48.0004 52.2C48.0004 52.0336 48.0196 51.8736 48.026 51.7072L56.4676 52.8592ZM81.4052 54.8128L78.6596 54.2416C79.3748 48.5328 77.1172 42.856 72.6788 39.1952C68.2388 35.5344 62.2356 34.4 56.7684 36.1888C51.2996 37.976 47.1268 42.4384 45.7076 48.016C44.29 53.5904 45.8244 59.5056 49.7732 63.688L46.9556 64.7456C44.0132 61.2336 42.4004 56.7968 42.4004 52.2144V52.2C42.362 46.7504 44.594 41.5312 48.5604 37.7936C52.5284 34.0576 57.8708 32.1408 63.3092 32.5056C68.7476 32.8688 73.7876 35.4816 77.2212 39.7136C80.6548 43.9456 82.1716 49.4176 81.4052 54.8128ZM97.5812 77.9808C97.0548 78.5056 96.3428 78.8 95.6004 78.8C94.858 78.8 94.146 78.5056 93.6196 77.9808C93.0948 77.456 92.8004 76.7424 92.8004 76C92.8004 75.2576 93.0948 74.5456 93.6196 74.0208C94.146 73.496 94.858 73.2 95.6004 73.2C96.3428 73.2 97.0548 73.496 97.5812 74.0208C98.106 74.5456 98.4004 75.2576 98.4004 76C98.4004 76.7424 98.106 77.456 97.5812 77.9808Z" fill="#EE6F57"/>
<path d="M66.1998 80.2H57.7998V101.2H66.1998V80.2Z" fill="#E5E5E5"/>
<path d="M80.8416 57.5552C79.6736 61.6544 77.2031 65.2608 73.8048 67.8304C70.4048 70.4 66.2607 71.7936 62 71.8C57.2544 71.7984 52.672 70.0672 49.1104 66.9296L52.1584 65.7808C56.56 68.9904 62.2496 69.8592 67.4095 68.1104C72.5711 66.36 76.5583 62.2112 78.0991 56.984L80.8416 57.5552Z" fill="#E5E5E5"/>
<path d="M81.4047 54.8128L78.6591 54.2416C79.3743 48.5328 77.1167 42.856 72.6783 39.1952C68.2383 35.5344 62.2351 34.4 56.7679 36.1888C51.2991 37.976 47.1263 42.4384 45.7071 48.016C44.2895 53.5904 45.8239 59.5056 49.7727 63.688L46.9551 64.7456C44.0127 61.2336 42.3999 56.7968 42.3999 52.2144V52.2C42.3615 46.7504 44.5935 41.5312 48.5599 37.7936C52.5279 34.0576 57.8703 32.1408 63.3087 32.5056C68.7471 32.8688 73.7871 35.4816 77.2207 39.7136C80.6543 43.9456 82.1711 49.4176 81.4047 54.8128Z" fill="#E5E5E5"/>
<path d="M75.3504 56.4112C74.1024 60.3792 71.1536 63.584 67.304 65.16C63.4544 66.7328 59.104 66.5136 55.4336 64.5584L62.4912 61.912C63.0384 61.7072 63.4 61.184 63.4 60.6V57.6016C64.9664 57.192 66.28 56.1232 66.9984 54.672L75.3504 56.4112Z" fill="#145374"/>
<path d="M60.6 57.6016V59.6304L52.6656 62.6064C49.7008 59.96 48.0032 56.1744 48 52.2C48 52.0336 48.0192 51.8736 48.0256 51.7072L56.4672 52.8592C56.5328 53.416 56.6816 53.9568 56.9072 54.464C57.1328 54.9712 57.4336 55.4464 57.8016 55.8688C58.5392 56.7136 59.5136 57.3184 60.6 57.6016Z" fill="#145374"/>
<path d="M67.6557 39.4128L61.3709 42.5472C60.8973 42.7856 60.5981 43.2704 60.5997 43.8V46.8C58.8925 47.2384 57.4925 48.4544 56.8189 50.0832L48.3965 48.9328C49.3597 44.8944 52.0701 41.4928 55.7917 39.6528C59.5133 37.8128 63.8621 37.7248 67.6557 39.4128Z" fill="#145374"/>
<path d="M76.0004 52.2C75.9988 52.6912 75.9732 53.1824 75.922 53.6704L67.5732 51.9312C67.5444 51.3376 67.4212 50.7552 67.21 50.2064C67.0004 49.6576 66.7044 49.1424 66.3284 48.6816C65.578 47.7584 64.5524 47.0992 63.4004 46.8V44.6656L70.5108 41.1088C73.9668 43.7504 75.9972 47.8512 76.0004 52.2Z" fill="#145374"/>
<path d="M84.3998 22.8H78.7998V28.4H84.3998V22.8Z" fill="#145374"/>
<path d="M98.3998 76C98.3998 76.7424 98.1054 77.456 97.5806 77.9808C97.0542 78.5056 96.3422 78.8 95.5998 78.8C94.8574 78.8 94.1454 78.5056 93.619 77.9808C93.0942 77.456 92.7998 76.7424 92.7998 76C92.7998 75.2576 93.0942 74.5456 93.619 74.0208C94.1454 73.496 94.8574 73.2 95.5998 73.2C96.3422 73.2 97.0542 73.496 97.5806 74.0208C98.1054 74.5456 98.3998 75.2576 98.3998 76Z" fill="#145374"/>
<path d="M64.8002 52.2C64.8002 52.9424 64.5042 53.656 63.9794 54.1808C63.4546 54.7056 62.7426 55 62.0002 55C61.2578 55 60.5442 54.7056 60.0194 54.1808C59.4946 53.656 59.2002 52.9424 59.2002 52.2C59.2002 51.4576 59.4946 50.7456 60.0194 50.2208C60.5442 49.696 61.2578 49.4 62.0002 49.4C62.7426 49.4 63.4546 49.696 63.9794 50.2208C64.5042 50.7456 64.8002 51.4576 64.8002 52.2Z" fill="#145374"/>
<path d="M31.1996 81.6H25.5996V87.2H31.1996V81.6Z" fill="#145374"/>
<path d="M34.0004 36.8C34.0004 37.5424 33.706 38.256 33.1812 38.7808C32.6548 39.3056 31.9428 39.6 31.2004 39.6C30.458 39.6 29.746 39.3056 29.2196 38.7808C28.6948 38.256 28.4004 37.5424 28.4004 36.8C28.4004 36.0576 28.6948 35.3456 29.2196 34.8208C29.746 34.296 30.458 34 31.2004 34C31.9428 34 32.6548 34.296 33.1812 34.8208C33.706 35.3456 34.0004 36.0576 34.0004 36.8Z" fill="#145374"/>
</g>
<defs>
<clipPath id="clip0_1427_43426">
<rect width="84" height="84" fill="white" transform="translate(20 20)"/>
</clipPath>
</defs>
</svg>
