<svg width="532" height="479" viewBox="0 0 532 479" fill="none" xmlns="http://www.w3.org/2000/svg">
<g clip-path="url(#clip0_594_617)">
<g opacity="0.2">
<path opacity="0.09" d="M239.4 221.291C246.945 216.944 256.431 214.621 265.917 214.73C269.744 214.785 273.407 215.277 276.797 216.07C280.46 216.917 284.697 218.639 287.622 220.334L518.754 353.792C526.709 358.385 530.864 365.656 530.372 373.556C530.235 375.771 529.716 377.93 528.923 380.063C526.9 385.667 521.187 391.626 514.736 395.371L384.913 470.329C383.246 471.285 381.086 472.379 379.255 473.117C373.022 475.687 365.942 477.135 358.752 477.163C350.524 477.217 343.033 475.44 337.129 472.051L105.149 338.073C97.1943 333.481 93.0664 326.182 93.5585 318.254C93.6952 316.341 94.1052 314.482 94.6793 312.65C96.5655 306.691 102.47 300.349 109.25 296.44L239.373 221.318L239.4 221.291Z" fill="black"/>
<path opacity="0.18" d="M239.974 222.302C247.492 217.956 257.032 215.714 266.436 215.906C270.263 215.988 273.872 216.589 277.207 217.409C280.487 218.229 285.271 220.279 287.923 221.81L518.18 354.749C526.08 359.314 529.825 366.558 528.869 374.24C528.595 376.372 527.912 378.395 527.092 380.445C525.096 385.421 518.563 391.763 512.74 395.125L384.804 468.989C383.328 469.836 380.868 471.094 379.227 471.777C373.104 474.347 366.133 475.851 359.053 475.905C350.961 475.987 343.526 474.292 337.73 470.957L105.723 337.062C97.7684 332.469 94.1053 325.198 95.1441 317.489C95.3901 315.657 95.9642 313.908 96.593 312.131C98.4519 306.828 105.313 300.075 111.409 296.549L239.974 222.33V222.302Z" fill="black"/>
<path opacity="0.27" d="M240.548 223.314C248.038 218.995 257.633 216.808 266.928 217.109C270.755 217.245 274.309 217.956 277.616 218.803C280.514 219.569 285.872 221.975 288.223 223.341L517.606 355.788C525.479 360.326 528.786 367.515 527.337 375.033C526.955 377.056 526.107 378.969 525.233 380.938C523.319 385.312 515.883 392.009 510.717 395.016L384.64 467.814C383.328 468.579 380.621 469.973 379.172 470.602C373.158 473.144 366.297 474.703 359.353 474.839C351.398 474.976 344.017 473.336 338.331 470.055L106.324 336.051C98.3968 331.485 95.1437 324.214 96.7293 316.696C97.0846 314.974 97.7954 313.334 98.4788 311.612C100.31 306.964 108.129 299.802 113.541 296.658L240.548 223.314Z" fill="black"/>
<path opacity="0.36" d="M241.122 224.298C248.612 219.979 258.235 217.874 267.42 218.284C271.219 218.475 274.773 219.268 278.026 220.17C280.569 220.881 286.446 223.642 288.496 224.817L517.004 356.744C524.822 361.255 527.747 368.417 525.779 375.716C525.26 377.63 524.276 379.407 523.346 381.32C521.569 385.093 513.177 392.173 508.666 394.77L384.448 466.501C383.3 467.158 380.348 468.716 379.063 469.262C373.158 471.805 366.406 473.418 359.572 473.582C351.753 473.746 344.455 472.188 338.851 468.962L106.898 335.039C98.9981 330.474 96.1551 323.257 98.2873 315.903C98.7521 314.263 99.6268 312.732 100.338 311.065C102.06 307.046 110.917 299.501 115.646 296.74L241.122 224.298Z" fill="black"/>
<path opacity="0.45" d="M241.723 225.31C249.186 221.018 258.863 218.968 267.939 219.487C271.739 219.733 275.238 220.635 278.464 221.565C280.623 222.193 287.048 225.337 288.824 226.348L516.457 357.783C524.248 362.267 526.791 369.374 524.303 376.509C523.674 378.313 522.526 379.954 521.542 381.812C519.902 384.983 510.58 392.419 506.698 394.633L384.339 465.271C383.355 465.846 380.156 467.568 379.063 468.033C373.268 470.575 366.652 472.242 359.9 472.434C352.191 472.652 344.974 471.149 339.479 467.978L107.473 334.028C99.5996 329.49 97.1667 322.273 99.873 315.111C100.447 313.553 101.459 312.158 102.251 310.518C103.864 307.128 113.76 299.201 117.833 296.85L241.751 225.31H241.723Z" fill="black"/>
<path opacity="0.55" d="M242.297 226.321C249.733 222.029 259.464 220.061 268.431 220.69C272.203 220.963 275.675 221.975 278.846 222.959C280.65 223.505 287.621 227.032 289.07 227.879L515.828 358.795C523.565 363.278 525.752 370.331 522.717 377.247C521.979 378.969 520.995 380.664 519.628 382.25C518.699 385.065 507.846 392.61 504.62 394.469L384.12 464.041C383.3 464.506 379.855 466.392 378.953 466.802C373.267 469.345 366.761 471.067 360.146 471.286C352.573 471.559 345.411 470.11 340.026 466.994L108.046 333.044C100.201 328.506 98.1231 321.316 101.431 314.345C102.114 312.869 102.962 311.393 104.11 310.026C104.957 307.019 116.548 298.955 119.938 296.987L242.297 226.348V226.321Z" fill="black"/>
<path opacity="0.64" d="M242.871 227.332C250.279 223.041 260.066 221.154 268.95 221.892C272.723 222.22 276.14 223.341 279.284 224.353C280.705 224.817 288.223 228.727 289.398 229.41L515.282 359.834C522.991 364.29 524.822 371.315 521.214 378.013C520.366 379.625 519.273 381.238 517.797 382.714C517.059 384.983 505.222 392.829 502.625 394.305L383.983 462.784C383.327 463.166 379.609 465.189 378.899 465.517C373.349 468.032 366.925 469.837 360.419 470.11C352.983 470.411 345.876 469.044 340.6 465.982L108.62 332.032C100.775 327.522 99.0799 320.332 102.989 313.553C103.782 312.158 104.739 310.792 105.969 309.479C106.652 307.074 119.336 298.654 122.043 297.068L242.844 227.305L242.871 227.332Z" fill="black"/>
<path opacity="0.73" d="M243.446 228.317C250.854 224.052 260.668 222.221 269.443 223.068C273.215 223.451 276.578 224.654 279.694 225.72C280.76 226.075 288.825 230.394 289.699 230.886L514.708 360.791C522.362 365.219 523.866 372.217 519.711 378.723C518.754 380.227 517.524 381.73 515.966 383.125C515.391 384.819 502.571 392.993 500.63 394.114L383.874 461.526C383.382 461.8 379.419 464.014 378.899 464.26C373.459 466.775 367.144 468.634 360.775 468.935C353.476 469.29 346.45 467.978 341.257 464.971L109.222 331.021C101.404 326.51 100.065 319.348 104.575 312.76C105.477 311.475 106.543 310.163 107.883 308.96C108.402 307.156 122.18 298.353 124.203 297.205L243.473 228.344L243.446 228.317Z" fill="black"/>
<path opacity="0.82" d="M244.047 229.328C251.428 225.063 261.296 223.314 269.962 224.271C273.707 224.708 277.042 225.993 280.132 227.086C280.842 227.332 289.426 232.062 290 232.39L514.134 361.802C521.761 366.203 522.936 373.201 518.18 379.461C517.114 380.883 515.774 382.277 514.107 383.562C513.724 384.683 499.919 393.184 498.607 393.922L383.71 460.269C383.382 460.46 379.172 462.838 378.817 463.002C373.486 465.517 367.308 467.431 361.021 467.759C353.859 468.169 346.888 466.912 341.803 463.959L109.796 330.009C102.005 325.499 100.994 318.309 106.161 311.967C107.145 310.737 108.32 309.534 109.769 308.413C110.097 307.21 124.996 298.053 126.335 297.287L244.047 229.328Z" fill="black"/>
<path opacity="0.91" d="M244.621 230.339C251.975 226.102 261.898 224.407 270.455 225.474C274.2 225.938 277.48 227.36 280.542 228.481C280.897 228.617 290 233.757 290.301 233.921L513.56 362.813C521.132 367.187 522.007 374.185 516.677 380.227C515.501 381.539 514.052 382.851 512.275 384.027C512.084 384.601 497.267 393.403 496.639 393.786L383.601 459.039C383.437 459.121 378.981 461.663 378.817 461.745C373.596 464.26 367.527 466.201 361.349 466.611C354.296 467.048 347.407 465.873 342.432 462.975L110.371 328.998C102.607 324.515 101.896 317.27 107.719 311.174C108.812 310.026 110.097 308.905 111.628 307.894C111.792 307.292 127.784 297.779 128.44 297.396L244.594 230.339H244.621Z" fill="black"/>
<path d="M342.979 461.964L110.944 328.014C101.787 322.71 102.935 313.47 113.514 307.374L245.195 231.351C255.774 225.255 271.766 224.571 280.952 229.875L512.958 363.825C522.116 369.128 520.968 378.368 510.389 384.464L378.708 460.487C368.128 466.583 352.136 467.267 342.951 461.964H342.979Z" fill="black"/>
</g>
<path d="M342.978 461.745L110.944 327.795C106.871 325.444 104.821 322.3 104.766 318.992C104.766 318.883 104.766 307.593 104.766 307.511C104.848 303.492 107.8 310.463 113.514 307.156L245.195 231.132C255.774 225.036 271.766 224.353 280.951 229.656L512.958 363.606C516.02 365.383 518.234 357.865 519.027 360.271C519.3 361.064 519.136 371.588 519.136 372.408C519.218 376.509 516.266 380.883 510.389 384.273L378.707 460.296C368.128 466.392 352.136 467.075 342.951 461.772L342.978 461.745Z" fill="#002738"/>
<path d="M342.979 450.455L110.944 316.505C101.787 311.201 102.935 301.962 113.514 295.866L245.195 219.842C255.774 213.746 271.766 213.063 280.952 218.366L512.958 352.316C522.116 357.619 520.968 366.859 510.389 372.955L378.708 448.979C368.128 455.075 352.136 455.758 342.951 450.455H342.979Z" fill="#012F44"/>
<path d="M358.506 449.416C353.285 449.416 348.583 448.377 345.302 446.464L113.268 312.486C111.819 311.639 109.414 309.889 109.414 307.538C109.414 305.187 111.819 302.208 115.838 299.884L247.519 223.861C252.385 221.045 258.918 219.432 265.425 219.432C270.646 219.432 275.348 220.471 278.628 222.384L510.635 356.334C512.084 357.182 514.49 358.931 514.49 361.282C514.49 363.633 512.084 366.613 508.065 368.937L376.384 444.96C371.518 447.776 364.985 449.389 358.479 449.389L358.506 449.416Z" fill="#00334E"/>
<path d="M510.389 371.042L378.708 447.065C368.128 453.161 352.136 453.844 342.951 448.541L110.945 314.591C107.145 312.404 105.149 309.507 104.821 306.472C104.356 310.217 106.352 313.853 110.945 316.505L342.951 450.455C352.109 455.758 368.128 455.075 378.708 448.979L510.389 372.955C516.567 369.374 519.519 364.727 519.082 360.435C518.617 364.153 515.692 367.98 510.389 371.042Z" fill="#E5E5E5"/>
<path d="M384.202 401.112L195.798 292.339C192.025 290.152 192.49 286.353 196.864 283.838L267.611 242.996C271.958 240.481 278.546 240.208 282.318 242.395L470.723 351.168C474.495 353.355 474.031 357.155 469.657 359.67L398.909 400.511C394.563 403.026 387.975 403.299 384.202 401.112Z" fill="#145374"/>
<path style="mix-blend-mode:screen" opacity="0.3" d="M271.712 250.951L283.795 257.922C285.325 258.797 287.813 258.824 289.344 257.922C290.875 257.047 290.875 255.598 289.344 254.724L277.261 247.753C275.73 246.878 273.243 246.851 271.712 247.753C270.181 248.628 270.181 250.076 271.712 250.951ZM292.378 262.897L298.092 266.205C299.622 267.08 302.11 267.107 303.641 266.205C305.172 265.33 305.172 263.881 303.641 263.007L297.928 259.699C296.397 258.824 293.909 258.797 292.378 259.699C290.847 260.574 290.847 262.023 292.378 262.897ZM306.703 271.153L312.416 274.461C313.947 275.336 316.435 275.363 317.965 274.461C319.496 273.586 319.496 272.137 317.965 271.262L312.252 267.955C310.721 267.08 308.234 267.052 306.703 267.955C305.172 268.829 305.172 270.278 306.703 271.153ZM321.027 279.409L326.741 282.716C328.271 283.591 330.759 283.619 332.29 282.716C333.821 281.842 333.821 280.393 332.29 279.518L326.576 276.21C325.046 275.336 322.558 275.308 321.027 276.21C319.496 277.085 319.496 278.534 321.027 279.409ZM335.352 287.664L341.065 290.972C342.596 291.847 345.083 291.874 346.614 290.972C348.145 290.097 348.145 288.648 346.614 287.774L340.901 284.466C339.37 283.591 336.882 283.564 335.352 284.466C333.821 285.341 333.821 286.79 335.352 287.664ZM349.676 295.92L355.389 299.228C356.92 300.103 359.408 300.13 360.939 299.228C362.47 298.353 362.47 296.904 360.939 296.029L355.225 292.722C353.695 291.847 351.207 291.82 349.676 292.722C348.145 293.596 348.145 295.045 349.676 295.92ZM364 304.176L369.714 307.484C371.245 308.358 373.732 308.386 375.263 307.484C376.794 306.609 376.794 305.16 375.263 304.285L369.55 300.977C368.019 300.103 365.531 300.075 364 300.977C362.47 301.852 362.47 303.301 364 304.176ZM378.325 312.431L384.038 315.739C385.569 316.614 388.057 316.641 389.588 315.739C391.118 314.864 391.118 313.416 389.588 312.541L383.874 309.233C382.343 308.358 379.856 308.331 378.325 309.233C376.794 310.108 376.794 311.557 378.325 312.431ZM392.649 320.687L398.363 323.995C399.894 324.87 402.381 324.897 403.912 323.995C405.443 323.12 405.443 321.671 403.912 320.796L398.199 317.489C396.668 316.614 394.18 316.587 392.649 317.489C391.119 318.364 391.119 319.812 392.649 320.687ZM406.974 328.943L412.687 332.251C414.218 333.125 416.706 333.153 418.237 332.251C419.767 331.376 419.767 329.927 418.237 329.052L412.523 325.744C410.992 324.87 408.505 324.842 406.974 325.744C405.443 326.619 405.443 328.068 406.974 328.943ZM421.298 337.199L427.012 340.506C428.542 341.381 431.03 341.408 432.561 340.506C434.092 339.631 434.092 338.183 432.561 337.308L426.848 334C425.317 333.125 422.829 333.098 421.298 334C419.767 334.875 419.767 336.324 421.298 337.199ZM435.623 345.454L441.336 348.762C442.867 349.637 445.355 349.664 446.885 348.762C448.416 347.887 448.416 346.438 446.885 345.564L441.172 342.256C439.641 341.381 437.154 341.354 435.623 342.256C434.092 343.131 434.092 344.579 435.623 345.454ZM450.248 353.901L455.961 357.209C457.492 358.084 459.98 358.111 461.511 357.209C463.041 356.334 463.041 354.885 461.511 354.011L455.797 350.703C454.266 349.828 451.779 349.801 450.248 350.703C448.717 351.578 448.717 353.027 450.248 353.901ZM258.836 258.824L263.784 261.694C265.534 262.706 268.349 262.706 270.099 261.694L275.019 258.851C276.769 257.84 276.742 256.227 275.019 255.216L270.071 252.345C268.322 251.334 265.506 251.334 263.757 252.345L258.836 255.188C257.087 256.2 257.114 257.813 258.836 258.824ZM284.423 269.95L289.344 267.107C291.093 266.096 291.066 264.483 289.344 263.471L284.396 260.601C282.646 259.59 279.831 259.59 278.081 260.601L273.16 263.444C271.411 264.455 271.438 266.068 273.16 267.08L278.108 269.95C279.858 270.962 282.674 270.962 284.423 269.95ZM287.485 275.336L292.433 278.206C294.182 279.217 296.998 279.217 298.748 278.206L303.668 275.363C305.418 274.351 305.391 272.739 303.668 271.727L298.72 268.857C296.971 267.845 294.155 267.845 292.406 268.857L287.485 271.7C285.735 272.711 285.763 274.324 287.485 275.336ZM301.809 283.591L306.757 286.462C308.507 287.473 311.323 287.473 313.072 286.462L317.993 283.619C319.742 282.607 319.715 280.994 317.993 279.983L313.045 277.112C311.295 276.101 308.48 276.101 306.73 277.112L301.809 279.955C300.06 280.967 300.087 282.58 301.809 283.591ZM332.29 288.238L327.342 285.368C325.592 284.357 322.777 284.357 321.027 285.368L316.107 288.211C314.357 289.223 314.384 290.835 316.107 291.847L321.054 294.717C322.804 295.729 325.62 295.729 327.369 294.717L332.29 291.874C334.039 290.863 334.012 289.25 332.29 288.238ZM346.614 296.494L341.666 293.624C339.917 292.612 337.101 292.612 335.352 293.624L330.431 296.467C328.681 297.478 328.709 299.091 330.431 300.103L335.379 302.973C337.128 303.984 339.944 303.984 341.694 302.973L346.614 300.13C348.364 299.118 348.337 297.506 346.614 296.494ZM360.939 304.75L355.991 301.879C354.241 300.868 351.426 300.868 349.676 301.879L344.755 304.722C343.006 305.734 343.033 307.347 344.755 308.358L349.703 311.229C351.453 312.24 354.269 312.24 356.018 311.229L360.939 308.386C362.688 307.374 362.661 305.761 360.939 304.75ZM375.263 313.006L370.315 310.135C368.566 309.124 365.75 309.124 364 310.135L359.08 312.978C357.33 313.99 357.358 315.603 359.08 316.614L364.028 319.484C365.777 320.496 368.593 320.496 370.343 319.484L375.263 316.641C377.013 315.63 376.985 314.017 375.263 313.006ZM389.588 321.261L384.64 318.391C382.89 317.379 380.074 317.379 378.325 318.391L373.404 321.234C371.655 322.245 371.682 323.858 373.404 324.87L378.352 327.74C380.102 328.751 382.917 328.751 384.667 327.74L389.588 324.897C391.337 323.886 391.31 322.273 389.588 321.261ZM403.912 329.517L398.964 326.647C397.215 325.635 394.399 325.635 392.649 326.647L387.729 329.49C385.979 330.501 386.007 332.114 387.729 333.125L392.677 335.996C394.426 337.007 397.242 337.007 398.991 335.996L403.912 333.153C405.662 332.141 405.634 330.528 403.912 329.517ZM402.081 341.408L407.028 344.279C408.778 345.29 411.594 345.29 413.343 344.279L418.264 341.436C420.013 340.424 419.986 338.811 418.264 337.8L413.316 334.93C411.566 333.918 408.751 333.918 407.001 334.93L402.081 337.773C400.331 338.784 400.358 340.397 402.081 341.408ZM432.561 346.056L427.613 343.185C425.863 342.174 423.048 342.174 421.298 343.185L416.378 346.028C414.628 347.04 414.655 348.653 416.378 349.664L421.326 352.534C423.075 353.546 425.891 353.546 427.64 352.534L432.561 349.691C434.311 348.68 434.283 347.067 432.561 346.056ZM453.528 358.166L442.211 351.632C440.461 350.621 437.646 350.621 435.896 351.632L430.975 354.475C429.226 355.487 429.253 357.1 430.975 358.111L442.293 364.645C444.042 365.656 446.858 365.656 448.608 364.645L453.528 361.802C455.278 360.79 455.25 359.177 453.528 358.166ZM245.578 266.478L256.895 273.012C258.645 274.023 261.46 274.023 263.21 273.012L268.131 270.169C269.88 269.157 269.853 267.545 268.131 266.533L256.813 260C255.064 258.988 252.248 258.988 250.498 260L245.578 262.843C243.828 263.854 243.856 265.467 245.578 266.478ZM266.244 278.425L271.192 281.295C272.942 282.306 275.757 282.306 277.507 281.295L282.428 278.452C284.177 277.44 284.15 275.828 282.428 274.816L277.48 271.946C275.73 270.934 272.914 270.934 271.165 271.946L266.244 274.789C264.495 275.8 264.522 277.413 266.244 278.425ZM285.517 289.551C287.266 290.562 290.082 290.562 291.831 289.551L296.752 286.708C298.502 285.696 298.474 284.083 296.752 283.072L291.804 280.201C290.055 279.19 287.239 279.19 285.489 280.201L280.569 283.044C278.819 284.056 278.847 285.669 280.569 286.68L285.517 289.551ZM299.841 297.806C301.591 298.818 304.406 298.818 306.156 297.806L311.077 294.963C312.826 293.952 312.799 292.339 311.077 291.327L306.129 288.457C304.379 287.446 301.563 287.446 299.814 288.457L294.893 291.3C293.144 292.312 293.171 293.924 294.893 294.936L299.841 297.806ZM314.111 296.74L309.19 299.583C307.441 300.595 307.468 302.208 309.19 303.219L314.138 306.089C315.888 307.101 318.703 307.101 320.453 306.089L325.374 303.246C327.123 302.235 327.096 300.622 325.374 299.611L320.426 296.74C318.676 295.729 315.86 295.729 314.111 296.74ZM328.736 304.832L323.214 308.03C321.656 308.932 321.656 310.409 323.214 311.311L328.763 314.509C330.349 315.411 332.891 315.438 334.477 314.509L339.999 311.311C341.557 310.409 341.557 308.932 339.999 308.03L334.449 304.832C332.864 303.93 330.322 303.902 328.736 304.832ZM343.061 313.088L337.539 316.286C335.98 317.188 335.98 318.664 337.539 319.566L343.088 322.765C344.673 323.667 347.216 323.694 348.801 322.765L354.323 319.566C355.881 318.664 355.881 317.188 354.323 316.286L348.774 313.088C347.188 312.185 344.646 312.158 343.061 313.088ZM357.385 321.343L351.863 324.542C350.305 325.444 350.305 326.92 351.863 327.822L357.412 331.02C358.998 331.923 361.54 331.95 363.126 331.02L368.648 327.822C370.206 326.92 370.206 325.444 368.648 324.542L363.098 321.343C361.513 320.441 358.971 320.414 357.385 321.343ZM371.709 329.599L366.187 332.797C364.629 333.699 364.629 335.176 366.187 336.078L371.737 339.276C373.322 340.178 375.865 340.206 377.45 339.276L382.972 336.078C384.53 335.176 384.53 333.699 382.972 332.797L377.423 329.599C375.837 328.697 373.295 328.669 371.709 329.599ZM386.034 337.855L380.512 341.053C378.954 341.955 378.954 343.431 380.512 344.333L386.061 347.532C387.647 348.434 390.189 348.461 391.775 347.532L397.297 344.333C398.855 343.431 398.855 341.955 397.297 341.053L391.747 337.855C390.162 336.952 387.619 336.925 386.034 337.855ZM406.099 355.815L411.621 352.616C413.179 351.714 413.179 350.238 411.621 349.336L406.072 346.138C404.486 345.236 401.944 345.208 400.358 346.138L394.836 349.336C393.278 350.238 393.278 351.714 394.836 352.616L400.386 355.815C401.971 356.717 404.514 356.744 406.099 355.815ZM420.423 364.071L425.946 360.872C427.504 359.97 427.504 358.494 425.946 357.592L420.396 354.393C418.811 353.491 416.268 353.464 414.683 354.393L409.161 357.592C407.603 358.494 407.603 359.97 409.161 360.872L414.71 364.071C416.296 364.973 418.838 365 420.423 364.071ZM440.543 366.039L434.994 362.84C433.408 361.938 430.866 361.911 429.281 362.84L423.759 366.039C422.2 366.941 422.2 368.417 423.759 369.319L429.308 372.518C430.893 373.42 433.436 373.447 435.021 372.518L440.543 369.319C442.102 368.417 442.102 366.941 440.543 366.039ZM232.019 273.969L249.979 284.329C251.564 285.231 254.107 285.259 255.692 284.329L261.214 281.131C262.773 280.229 262.773 278.753 261.214 277.85L243.254 267.49C241.669 266.588 239.126 266.56 237.541 267.49L232.019 270.688C230.461 271.59 230.461 273.067 232.019 273.969ZM258.727 289.387L264.276 292.585C265.862 293.487 268.404 293.514 269.989 292.585L275.511 289.387C277.07 288.484 277.07 287.008 275.511 286.106L269.962 282.908C268.377 282.006 265.834 281.978 264.249 282.908L258.727 286.106C257.169 287.008 257.169 288.484 258.727 289.387ZM273.051 297.642L278.601 300.841C280.186 301.743 282.728 301.77 284.314 300.841L289.836 297.642C291.394 296.74 291.394 295.264 289.836 294.362L284.287 291.163C282.701 290.261 280.159 290.234 278.573 291.163L273.051 294.362C271.493 295.264 271.493 296.74 273.051 297.642ZM287.376 305.898L292.925 309.096C294.51 309.998 297.053 310.026 298.638 309.096L304.16 305.898C305.719 304.996 305.719 303.52 304.16 302.618L298.611 299.419C297.025 298.517 294.483 298.49 292.898 299.419L287.376 302.618C285.817 303.52 285.817 304.996 287.376 305.898ZM312.963 317.379L318.485 314.181C320.043 313.279 320.043 311.803 318.485 310.901L312.935 307.702C311.35 306.8 308.808 306.773 307.222 307.702L301.7 310.901C300.142 311.803 300.142 313.279 301.7 314.181L307.249 317.379C308.835 318.282 311.377 318.309 312.963 317.379ZM327.287 325.635L332.809 322.437C334.367 321.535 334.367 320.058 332.809 319.156L327.26 315.958C325.674 315.056 323.132 315.028 321.547 315.958L316.024 319.156C314.466 320.058 314.466 321.535 316.024 322.437L321.574 325.635C323.159 326.537 325.702 326.565 327.287 325.635ZM341.612 333.891L347.134 330.692C348.692 329.79 348.692 328.314 347.134 327.412L341.584 324.214C339.999 323.311 337.456 323.284 335.871 324.214L330.349 327.412C328.791 328.314 328.791 329.79 330.349 330.692L335.898 333.891C337.484 334.793 340.026 334.82 341.612 333.891ZM355.936 342.146L361.458 338.948C363.016 338.046 363.016 336.57 361.458 335.668L355.909 332.469C354.323 331.567 351.781 331.54 350.195 332.469L344.673 335.668C343.115 336.57 343.115 338.046 344.673 338.948L350.223 342.146C351.808 343.049 354.351 343.076 355.936 342.146ZM370.261 350.402L375.783 347.204C377.341 346.302 377.341 344.825 375.783 343.923L370.233 340.725C368.648 339.823 366.105 339.796 364.52 340.725L358.998 343.923C357.44 344.825 357.44 346.302 358.998 347.204L364.547 350.402C366.133 351.304 368.675 351.332 370.261 350.402ZM384.585 358.658L390.107 355.459C391.665 354.557 391.665 353.081 390.107 352.179L384.558 348.981C382.972 348.079 380.43 348.051 378.844 348.981L373.322 352.179C371.764 353.081 371.764 354.557 373.322 355.459L378.872 358.658C380.457 359.56 382.999 359.587 384.585 358.658ZM387.647 363.715L393.196 366.914C394.782 367.816 397.324 367.843 398.909 366.914L404.431 363.715C405.99 362.813 405.99 361.337 404.431 360.435L398.882 357.236C397.297 356.334 394.754 356.307 393.169 357.236L387.647 360.435C386.089 361.337 386.089 362.813 387.647 363.715ZM427.312 373.666L413.179 365.492C411.594 364.59 409.051 364.563 407.466 365.492L401.944 368.69C400.386 369.593 400.386 371.069 401.944 371.971L416.077 380.145C417.662 381.047 420.205 381.074 421.79 380.145L427.312 376.946C428.871 376.044 428.871 374.568 427.312 373.666ZM218.815 282.033L244.293 296.74C246.07 297.779 248.967 297.779 250.744 296.74L255.528 293.979C257.305 292.968 257.305 291.3 255.528 290.261L230.05 275.554C228.274 274.515 225.376 274.515 223.599 275.554L218.815 278.315C217.038 279.327 217.038 280.994 218.815 282.033ZM253.779 302.235L258.59 305.023C260.367 306.062 263.265 306.062 265.041 305.023L269.825 302.262C271.602 301.251 271.602 299.583 269.825 298.544L265.014 295.756C263.237 294.717 260.34 294.717 258.563 295.756L253.779 298.517C252.002 299.529 252.002 301.196 253.779 302.235ZM268.103 310.491L272.914 313.279C274.691 314.318 277.589 314.318 279.366 313.279L284.15 310.518C285.927 309.506 285.927 307.839 284.15 306.8L279.339 304.012C277.562 302.973 274.664 302.973 272.887 304.012L268.103 306.773C266.326 307.784 266.326 309.452 268.103 310.491ZM282.428 318.746L287.239 321.535C289.016 322.573 291.913 322.573 293.69 321.535L298.474 318.774C300.251 317.762 300.251 316.095 298.474 315.056L293.663 312.267C291.886 311.229 288.988 311.229 287.212 312.267L282.428 315.028C280.651 316.04 280.651 317.707 282.428 318.746ZM296.752 327.002L301.563 329.79C303.34 330.829 306.238 330.829 308.015 329.79L312.799 327.029C314.576 326.018 314.576 324.35 312.799 323.311L307.988 320.523C306.211 319.484 303.313 319.484 301.536 320.523L296.752 323.284C294.975 324.296 294.975 325.963 296.752 327.002ZM311.077 335.258L315.888 338.046C317.665 339.085 320.562 339.085 322.339 338.046L327.123 335.285C328.9 334.273 328.9 332.606 327.123 331.567L322.312 328.779C320.535 327.74 317.637 327.74 315.86 328.779L311.077 331.54C309.3 332.551 309.3 334.219 311.077 335.258ZM325.401 343.513L330.212 346.302C331.989 347.34 334.887 347.34 336.664 346.302L341.448 343.541C343.225 342.529 343.225 340.862 341.448 339.823L336.636 337.035C334.859 335.996 331.962 335.996 330.185 337.035L325.401 339.796C323.624 340.807 323.624 342.475 325.401 343.513ZM339.725 351.769L344.537 354.557C346.314 355.596 349.211 355.596 350.988 354.557L355.772 351.796C357.549 350.785 357.549 349.117 355.772 348.079L350.961 345.29C349.184 344.251 346.286 344.251 344.509 345.29L339.725 348.051C337.949 349.063 337.949 350.73 339.725 351.769ZM354.05 360.025L358.861 362.813C360.638 363.852 363.536 363.852 365.313 362.813L370.097 360.052C371.873 359.041 371.873 357.373 370.097 356.334L365.285 353.546C363.508 352.507 360.611 352.507 358.834 353.546L354.05 356.307C352.273 357.318 352.273 358.986 354.05 360.025ZM368.374 368.28L373.186 371.069C374.962 372.108 377.86 372.108 379.637 371.069L384.421 368.308C386.198 367.296 386.198 365.629 384.421 364.59L379.61 361.802C377.833 360.763 374.935 360.763 373.158 361.802L368.374 364.563C366.597 365.574 366.597 367.242 368.374 368.28ZM382.699 376.536L387.51 379.324C389.287 380.363 392.185 380.363 393.962 379.324L398.745 376.563C400.522 375.552 400.522 373.884 398.745 372.846L393.934 370.057C392.157 369.018 389.26 369.018 387.483 370.057L382.699 372.818C380.922 373.83 380.922 375.497 382.699 376.536ZM413.371 381.293L408.559 378.504C406.782 377.466 403.885 377.466 402.108 378.504L397.324 381.265C395.547 382.277 395.547 383.944 397.324 384.983L402.135 387.771C403.912 388.81 406.81 388.81 408.587 387.771L413.371 385.01C415.147 383.999 415.147 382.331 413.371 381.293ZM227.918 289.66L216.737 283.208C214.961 282.17 212.063 282.17 210.286 283.208L205.502 285.969C203.725 286.981 203.725 288.648 205.502 289.687L216.683 296.139C218.46 297.178 221.357 297.178 223.134 296.139L227.918 293.378C229.695 292.366 229.695 290.699 227.918 289.66ZM242.243 297.916L237.431 295.127C235.655 294.089 232.757 294.089 230.98 295.127L226.196 297.888C224.419 298.9 224.419 300.567 226.196 301.606L231.007 304.394C232.784 305.433 235.682 305.433 237.459 304.394L242.243 301.633C244.02 300.622 244.02 298.954 242.243 297.916ZM256.567 306.171L251.756 303.383C249.979 302.344 247.081 302.344 245.304 303.383L240.52 306.144C238.744 307.155 238.744 308.823 240.52 309.862L245.332 312.65C247.109 313.689 250.006 313.689 251.783 312.65L256.567 309.889C258.344 308.878 258.344 307.21 256.567 306.171ZM356.784 364.043L266.053 311.666C264.276 310.627 261.378 310.627 259.601 311.666L254.818 314.427C253.041 315.438 253.041 317.106 254.818 318.145L345.548 370.522C347.325 371.561 350.223 371.561 352 370.522L356.784 367.761C358.56 366.75 358.56 365.082 356.784 364.043ZM371.108 372.299L366.297 369.511C364.52 368.472 361.622 368.472 359.845 369.511L355.061 372.272C353.284 373.283 353.284 374.951 355.061 375.989L359.873 378.778C361.649 379.816 364.547 379.816 366.324 378.778L371.108 376.017C372.885 375.005 372.885 373.338 371.108 372.299ZM385.432 380.555L380.621 377.766C378.844 376.727 375.947 376.727 374.17 377.766L369.386 380.527C367.609 381.539 367.609 383.206 369.386 384.245L374.197 387.033C375.974 388.072 378.872 388.072 380.649 387.033L385.432 384.272C387.209 383.261 387.209 381.593 385.432 380.555ZM400.058 389.002L395.246 386.213C393.469 385.174 390.572 385.174 388.795 386.213L384.011 388.974C382.234 389.986 382.234 391.653 384.011 392.692L388.822 395.48C390.599 396.519 393.497 396.519 395.274 395.48L400.058 392.719C401.835 391.708 401.835 390.04 400.058 389.002Z" fill="url(#paint0_linear_594_617)"/>
<path d="M509.295 350.539L285.735 221.4C277.07 216.398 270.071 203.003 270.071 191.467V16.0742C270.071 4.5381 277.097 -0.765229 285.735 4.23739L509.295 133.376C517.961 138.379 524.959 151.774 524.959 163.31V338.702C524.959 350.238 517.933 355.542 509.295 350.539Z" fill="#00334E"/>
<path d="M511.318 341.545L290.164 213.801C283.193 209.372 278.901 200.542 278.901 191.466V15.2265C278.901 13.0942 281.224 11.7547 283.083 12.8209C283.302 12.9576 283.466 13.0396 283.575 13.0942L504.921 140.975C513.204 145.759 516.184 154.234 516.184 163.31V339.139C516.184 341.436 513.696 342.885 511.7 341.736C511.536 341.654 511.427 341.572 511.345 341.518L511.318 341.545Z" fill="#E5E5E5"/>
<g style="mix-blend-mode:multiply">
<path d="M504.894 141.003L283.548 13.1218C283.548 13.1218 283.275 12.9578 283.056 12.8484C281.197 11.7549 278.874 13.0944 278.874 15.254V191.467C278.874 200.515 283.193 209.372 290.136 213.801L511.29 341.545C511.29 341.545 511.509 341.655 511.646 341.764C513.641 342.912 516.129 341.463 516.129 339.167V163.337C516.129 154.289 513.149 145.787 504.866 141.003H504.894ZM514.407 339.14C514.407 339.905 513.751 340.37 513.177 340.37C512.958 340.37 512.767 340.315 512.575 340.206L291.038 212.243C284.751 208.251 280.65 200.078 280.65 191.439V15.2267C280.65 14.598 281.17 14.2152 281.662 14.2152C281.826 14.2152 282.017 14.2699 282.181 14.3519L504.019 142.507C512.603 147.454 514.407 156.558 514.407 163.31V339.14Z" fill="#BCBEC0"/>
</g>
<path d="M513.723 131.025L290.163 1.88641C286.746 -0.0818298 283.575 -0.464544 281.006 0.546915C280.678 0.683599 276.304 3.00722 276.003 3.17124C278.682 1.88641 282.072 2.13245 285.762 4.26471L509.322 133.403C517.988 138.406 524.986 151.801 524.986 163.337V338.702C524.986 345.892 522.252 350.676 518.097 352.043C518.425 352.043 518.862 351.933 519.464 351.578C519.655 351.469 524.412 348.79 524.603 348.653C527.583 346.575 529.442 342.283 529.442 336.351V160.959C529.442 149.423 522.416 136 513.778 131.025H513.723Z" fill="#002738"/>
<path d="M510.033 133.021L286.473 3.85487C282.92 1.80461 279.667 1.50391 277.042 2.65205C279.284 2.29668 281.853 2.84341 284.587 4.42894L508.147 133.568C516.813 138.57 523.811 151.965 523.811 163.501V338.894C523.811 345.701 521.351 350.321 517.578 351.961C522.417 351.195 525.697 346.22 525.697 338.347V162.955C525.697 151.419 518.672 137.996 510.033 133.021Z" fill="#E5E5E5"/>
<path d="M471.188 132.775V309.014L268.623 192.533V16.2927L471.188 132.775Z" fill="#003049"/>
<path d="M468.181 133.622V309.862L265.615 193.38V17.1401L468.181 133.622Z" fill="#00334E"/>
<path d="M468.181 133.622V148.493L265.615 32.0113V17.1401L468.181 133.622Z" fill="#145374"/>
<path d="M299.24 62.5192C299.24 70.4468 296.506 76.0509 292.051 78.7845C291.914 78.8666 284.451 83.4865 284.314 83.5685C279.694 86.1655 282.647 80.2881 275.621 76.2149C261.488 68.0412 250.007 48.2768 250.007 32.0387C250.007 24.0017 242.598 23.9471 247.136 21.2681C247.273 21.1861 255.611 16.4295 255.747 16.3475C260.367 13.8598 266.682 14.2972 273.626 18.3157C287.759 26.4894 299.24 46.2538 299.24 62.4919V62.5192Z" fill="#D35E4F"/>
<path d="M290.847 67.4945C290.847 83.7326 279.393 90.266 265.233 82.0924C251.1 73.9187 239.618 54.1542 239.618 37.9162C239.618 21.6782 251.072 15.1447 265.233 23.3184C279.366 31.4921 290.847 51.2565 290.847 67.4945Z" fill="#EE6F57"/>
<path d="M266.49 22.717C259.711 18.8078 253.56 18.2884 248.967 20.5574C253.232 19.3546 258.535 20.2567 264.276 23.5644C278.409 31.7381 289.89 51.5025 289.89 67.7406C289.89 76.1876 286.774 82.0103 281.799 84.498C288.059 82.7484 292.105 76.5157 292.105 66.8931C292.105 50.6551 280.651 30.8907 266.49 22.717Z" fill="#E5E5E5"/>
<path d="M255.528 62.9291C255.337 62.601 255.255 62.273 255.255 61.9723V59.5667C255.255 58.6919 255.583 58.1725 256.266 57.9811L262.581 54.4274C264.495 53.7986 265.971 53.2245 267.01 52.7325C268.048 52.2404 268.814 51.6663 269.333 51.0376C269.853 50.4089 270.099 49.6434 270.099 48.7413C270.099 47.2925 269.771 45.953 269.087 44.7228C268.404 43.4927 267.392 42.4812 265.998 41.6884C264.659 40.8957 263.593 40.759 262.827 41.2237C262.062 41.6884 261.57 42.5906 261.378 43.9574C261.296 44.2854 261.132 44.4768 260.914 44.5041C260.695 44.5315 260.449 44.5041 260.175 44.3401L256.54 42.2352C256.294 42.0985 256.102 41.8798 255.938 41.6064C255.774 41.3331 255.692 41.0324 255.692 40.759C255.747 38.9548 256.184 37.5059 257.004 36.3851C257.825 35.2643 259 34.6629 260.558 34.5809C262.116 34.4989 263.893 35.0456 265.971 36.2484C268.13 37.5059 269.962 38.9821 271.493 40.7043C272.996 42.4265 274.145 44.2581 274.91 46.1717C275.675 48.0852 276.031 49.9988 276.031 51.885C276.031 53.9626 275.511 55.5482 274.5 56.6416C273.488 57.7351 271.903 58.6372 269.771 59.3206L264.139 62.6284L275.593 69.2439C275.894 69.4079 276.14 69.6539 276.331 69.982C276.523 70.31 276.605 70.638 276.605 70.9934V74.3285C276.605 74.6565 276.523 74.8752 276.331 74.9846C276.14 75.0939 275.894 75.0392 275.593 74.8752L256.184 63.6672C255.911 63.5032 255.692 63.2571 255.501 62.9564L255.528 62.9291Z" fill="#E5E5E5"/>
<path d="M309.655 70.9116L324.171 79.304C325.073 79.8234 325.784 81.0535 325.784 82.0923V91.9335C325.784 92.945 325.073 93.355 324.171 92.863L309.655 84.4706C308.753 83.9512 308.042 82.7211 308.042 81.6823V71.841C308.042 70.8296 308.753 70.4195 309.655 70.9116Z" fill="#EE6F57"/>
<path opacity="0.5" d="M325.155 80.2606L316.899 85.0172L308.644 70.7748L316.872 83.623L325.101 80.2606H325.155Z" fill="black"/>
<path opacity="0.5" d="M314.576 80.9715L308.671 83.3771L314.138 80.2061L314.576 80.9715Z" fill="black"/>
<path opacity="0.5" d="M319.715 83.4045L325.182 92.8631H325.155L319.25 83.6506L319.715 83.4045Z" fill="black"/>
<path d="M309.655 95.1591L324.171 103.552C325.073 104.071 325.784 105.301 325.784 106.34V116.181C325.784 117.193 325.073 117.603 324.171 117.111L309.655 108.718C308.753 108.199 308.042 106.969 308.042 105.93V96.0886C308.042 95.0771 308.753 94.6671 309.655 95.1591Z" fill="#EE6F57"/>
<path opacity="0.5" d="M325.155 104.481L316.899 109.237L308.644 94.995L316.872 107.843L325.101 104.481H325.155Z" fill="black"/>
<path opacity="0.5" d="M314.576 105.192L308.671 107.597L314.138 104.426L314.576 105.192Z" fill="black"/>
<path opacity="0.5" d="M319.715 107.652L325.182 117.084L325.155 117.111L319.25 107.898L319.715 107.652Z" fill="black"/>
<path d="M309.655 118.751L324.171 127.143C325.073 127.662 325.784 128.893 325.784 129.931V139.773C325.784 140.784 325.073 141.194 324.171 140.702L309.655 132.31C308.753 131.79 308.042 130.56 308.042 129.521V119.68C308.042 118.669 308.753 118.259 309.655 118.751Z" fill="#145374"/>
<path opacity="0.5" d="M325.155 128.073L316.899 132.829L308.644 118.587L316.872 131.435L325.101 128.073H325.155Z" fill="black"/>
<path opacity="0.5" d="M314.576 128.783L308.671 131.189L314.138 128.018L314.576 128.783Z" fill="black"/>
<path opacity="0.5" d="M319.715 131.244L325.182 140.675L325.155 140.702L319.25 131.49L319.715 131.244Z" fill="black"/>
<path d="M309.655 142.725L324.171 151.117C325.073 151.637 325.784 152.867 325.784 153.906V163.747C325.784 164.758 325.073 165.169 324.171 164.676L309.655 156.284C308.753 155.765 308.042 154.535 308.042 153.496V143.655C308.042 142.643 308.753 142.233 309.655 142.725Z" fill="#D35E4F"/>
<path opacity="0.5" d="M325.155 152.047L316.899 156.803L308.644 142.561L316.872 155.409L325.101 152.047H325.155Z" fill="black"/>
<path opacity="0.5" d="M314.576 152.758L308.671 155.163L314.138 151.992L314.576 152.758Z" fill="black"/>
<path opacity="0.5" d="M319.715 155.218L325.182 164.649L325.155 164.677L319.25 155.464L319.715 155.218Z" fill="black"/>
<path d="M309.655 166.863L324.171 175.256C325.073 175.775 325.784 177.005 325.784 178.044V187.885C325.784 188.897 325.073 189.307 324.171 188.815L309.655 180.422C308.753 179.903 308.042 178.673 308.042 177.634V167.793C308.042 166.781 308.753 166.371 309.655 166.863Z" fill="#D35E4F"/>
<path opacity="0.5" d="M325.155 176.185L316.899 180.942L308.644 166.699L316.872 179.547L325.101 176.185H325.155Z" fill="black"/>
<path opacity="0.5" d="M314.576 176.896L308.671 179.302L314.138 176.131L314.576 176.896Z" fill="black"/>
<path opacity="0.5" d="M319.715 179.329L325.182 188.788H325.155L319.25 179.575L319.715 179.329Z" fill="black"/>
<path d="M309.655 190.647L324.171 199.039C325.073 199.558 325.784 200.789 325.784 201.827V211.669C325.784 212.68 325.073 213.09 324.171 212.598L309.655 204.206C308.753 203.686 308.042 202.456 308.042 201.417V191.576C308.042 190.565 308.753 190.155 309.655 190.647Z" fill="#D35E4F"/>
<path opacity="0.5" d="M325.155 199.968L316.899 204.725L308.644 190.482L316.872 203.331L325.101 199.968H325.155Z" fill="black"/>
<path opacity="0.5" d="M314.576 200.707L308.671 203.112L314.138 199.941L314.576 200.707Z" fill="black"/>
<path opacity="0.5" d="M319.715 203.14L325.182 212.598H325.155L319.25 203.386L319.715 203.14Z" fill="black"/>
<path d="M289.726 120.5C289.726 125.776 287.895 129.521 284.942 131.326C284.86 131.38 279.885 134.469 279.776 134.524C276.687 136.246 278.655 132.337 273.98 129.631C264.549 124.191 256.922 111.014 256.922 100.189C256.922 94.8311 251.974 94.8038 255.009 93.0269C255.091 92.9722 260.667 89.8012 260.749 89.7465C263.811 88.079 268.021 88.3797 272.668 91.0587C282.099 96.4987 289.726 109.675 289.726 120.5Z" fill="#001F2D"/>
<path d="M284.15 123.835C284.15 134.661 276.523 139.007 267.092 133.567C257.661 128.127 250.034 114.951 250.034 104.125C250.034 93.3001 257.661 88.9535 267.092 94.3936C276.523 99.8336 284.15 113.01 284.15 123.835Z" fill="#003049"/>
<path d="M267.912 94.0109C263.401 91.4139 259.301 91.0585 256.239 92.5894C259.082 91.7966 262.609 92.398 266.436 94.585C275.867 100.025 283.494 113.201 283.494 124.027C283.494 129.658 281.416 133.54 278.109 135.18C282.264 134.005 284.97 129.877 284.97 123.453C284.97 112.627 277.343 99.4509 267.912 94.0109Z" fill="#E5E5E5"/>
<path d="M266.354 124.82C266.217 124.601 266.163 124.382 266.163 124.191V108.199L262.09 109.429C262.09 109.429 261.843 109.429 261.679 109.347C261.461 109.21 261.297 109.019 261.16 108.746L260.012 106.34C259.93 106.149 259.875 105.985 259.875 105.821C259.875 105.575 259.985 105.411 260.176 105.383L266.217 103.47C266.409 103.442 266.655 103.497 266.901 103.634L269.334 105.028C269.525 105.137 269.662 105.301 269.798 105.52C269.935 105.739 269.99 105.957 269.99 106.149V126.35C269.99 126.569 269.935 126.706 269.798 126.76C269.662 126.843 269.525 126.815 269.334 126.706L266.819 125.257C266.627 125.148 266.491 124.984 266.354 124.765V124.82Z" fill="#E5E5E5"/>
<path d="M289.726 171.593C289.726 176.869 287.895 180.614 284.942 182.418C284.86 182.473 279.885 185.562 279.776 185.616C276.687 187.339 278.655 183.43 273.98 180.723C264.549 175.283 256.922 162.107 256.922 151.282C256.922 145.924 251.974 145.896 255.009 144.119C255.091 144.065 260.667 140.894 260.749 140.839C263.811 139.171 268.021 139.472 272.668 142.151C282.099 147.591 289.726 160.767 289.726 171.593Z" fill="#D35E4F"/>
<path d="M284.15 174.928C284.15 185.753 276.523 190.1 267.092 184.66C257.661 179.22 250.034 166.043 250.034 155.218C250.034 144.393 257.661 140.046 267.092 145.486C276.523 150.926 284.15 164.103 284.15 174.928Z" fill="#EE6F57"/>
<path d="M267.912 145.076C263.401 142.479 259.301 142.124 256.239 143.655C259.082 142.862 262.609 143.463 266.436 145.65C275.867 151.09 283.494 164.266 283.494 175.092C283.494 180.723 281.416 184.605 278.109 186.245C282.264 185.07 284.97 180.942 284.97 174.518C284.97 163.692 277.343 150.516 267.912 145.076Z" fill="#E5E5E5"/>
<path d="M262.69 174.19C261.597 172.987 260.749 171.757 260.203 170.581C259.656 169.379 259.355 168.312 259.328 167.356C259.328 167.164 259.383 167.055 259.492 166.973C259.601 166.918 259.738 166.918 259.902 167.028L262.39 168.449C262.772 168.668 263.046 169.051 263.21 169.543C263.592 171.237 264.795 172.659 266.763 173.807C267.857 174.436 268.732 174.655 269.333 174.436C269.962 174.217 270.263 173.561 270.263 172.495C270.263 171.429 269.989 170.472 269.415 169.679C268.841 168.859 268.021 168.148 266.927 167.52L264.139 165.907C263.948 165.797 263.811 165.633 263.674 165.415C263.538 165.196 263.483 164.977 263.483 164.786V163.446C263.483 163.064 263.592 162.818 263.838 162.708L268.65 160.084L260.968 155.656C260.777 155.546 260.613 155.382 260.476 155.163C260.339 154.945 260.285 154.726 260.285 154.535V152.457C260.285 152.238 260.339 152.074 260.476 152.02C260.613 151.938 260.777 151.965 260.968 152.074L272.586 158.772C272.778 158.881 272.942 159.045 273.078 159.264C273.215 159.483 273.27 159.701 273.27 159.92V161.806C273.27 162.162 273.16 162.38 272.914 162.462L268.267 165.278L268.595 165.497C270.317 166.672 271.684 168.039 272.723 169.679C273.734 171.292 274.254 173.069 274.254 174.983C274.254 176.349 273.926 177.361 273.297 177.99C272.668 178.618 271.766 178.892 270.645 178.81C269.524 178.7 268.24 178.236 266.791 177.416C265.178 176.486 263.838 175.42 262.718 174.217L262.69 174.19Z" fill="#E5E5E5"/>
<path d="M384.311 146.197L369.002 137.504V141.112L384.311 149.805V146.197Z" fill="#E5E5E5"/>
<path d="M383.655 117.958V114.35L366.952 104.973V108.581L383.655 117.958Z" fill="#E5E5E5"/>
<path d="M366.269 128.237V131.845L376.301 137.504V133.895L366.269 128.237Z" fill="#E5E5E5"/>
<path d="M355.171 133.294V129.686L340.764 121.539V125.148L355.171 133.294Z" fill="#E5E5E5"/>
<path d="M389.505 141.522L379.91 135.973V139.581L389.505 145.131V141.522Z" fill="#E5E5E5"/>
<path d="M375.701 117.247V120.856L381.414 124.109V120.5L375.701 117.247Z" fill="#E5E5E5"/>
<path d="M368.948 117.138V113.53L353.476 104.782V108.363L368.948 117.138Z" fill="#E5E5E5"/>
<path d="M387.264 116.4V120.008L404.377 129.822V126.214L387.264 116.4Z" fill="#E5E5E5"/>
<path d="M362.716 129.795V126.186L344.291 115.908V119.489L362.716 129.795Z" fill="#E5E5E5"/>
<path d="M365.476 135.454L359.435 132.064V135.645L365.476 139.062V135.454Z" fill="#E5E5E5"/>
<path d="M401.151 151.883L416.733 160.904V157.295L401.151 148.274V151.883Z" fill="#E5E5E5"/>
<path d="M337.183 119.489L331.661 116.318V119.926L337.183 123.097V119.489Z" fill="#E5E5E5"/>
<path d="M404.759 137.449L410.527 140.812V137.203L404.759 133.841V137.449Z" fill="#E5E5E5"/>
<path d="M407.958 131.872L429.007 143.764V140.156L407.958 128.264V131.872Z" fill="#E5E5E5"/>
<path d="M384.995 126.159L401.206 135.399V131.79L384.995 122.551V126.159Z" fill="#E5E5E5"/>
<path d="M340.682 113.885L331.661 108.828V112.436L340.682 117.493V113.885Z" fill="#E5E5E5"/>
<path d="M397.624 146.224L393.114 143.6V147.208L397.624 149.833V146.224Z" fill="#E5E5E5"/>
<path d="M349.867 102.704L331.661 92.3434V95.9518L349.867 106.312V102.704Z" fill="#E5E5E5"/>
<path d="M363.344 102.923L331.661 84.8533V88.4617L363.344 106.531V102.923Z" fill="#E5E5E5"/>
<path d="M383.655 165.551V161.97L366.952 152.594V156.202L383.655 165.551Z" fill="#E5E5E5"/>
<path d="M375.701 164.868V168.476L381.414 171.729V168.121L375.701 164.868Z" fill="#E5E5E5"/>
<path d="M368.948 164.731V161.123L353.476 152.375V155.984L368.948 164.731Z" fill="#E5E5E5"/>
<path d="M387.264 164.021V167.629L404.377 177.416V173.807L387.264 164.021Z" fill="#E5E5E5"/>
<path d="M407.958 179.493L429.007 191.357V187.776L407.958 175.885V179.493Z" fill="#E5E5E5"/>
<path d="M384.995 173.78L401.206 182.992V179.411L384.995 170.171V173.78Z" fill="#E5E5E5"/>
<path d="M349.867 150.325L331.661 139.964V143.545L349.867 153.933V150.325Z" fill="#E5E5E5"/>
<path d="M363.344 150.543L331.661 132.474V136.055L363.344 154.125V150.543Z" fill="#E5E5E5"/>
<path d="M390.052 216.152V212.543L366.952 199.558V203.167L390.052 216.152Z" fill="#E5E5E5"/>
<path d="M375.701 211.832V215.441L387.811 222.302V218.721L375.701 211.832Z" fill="#E5E5E5"/>
<path d="M368.948 211.696V208.115L353.476 199.339V202.948L368.948 211.696Z" fill="#E5E5E5"/>
<path d="M393.66 214.621V218.229L405.607 224.872V221.263L393.66 214.621Z" fill="#E5E5E5"/>
<path d="M409.216 226.922L417.089 231.324V227.715L409.216 223.314V226.922Z" fill="#E5E5E5"/>
<path d="M391.419 224.38L410.664 234.85V231.269L391.419 220.771V224.38Z" fill="#E5E5E5"/>
<path d="M349.867 197.289L331.661 186.928V190.51L349.867 200.898V197.289Z" fill="#E5E5E5"/>
<path d="M363.344 197.508L331.661 179.438V183.047L363.344 201.089V197.508Z" fill="#E5E5E5"/>
<path d="M384.311 192.505L369.002 183.839V187.448L384.311 196.114V192.505Z" fill="#E5E5E5"/>
<path d="M366.269 174.572V178.181L376.301 183.839V180.231L366.269 174.572Z" fill="#E5E5E5"/>
<path d="M355.171 179.63V176.021L340.764 167.847V171.456L355.171 179.63Z" fill="#E5E5E5"/>
<path d="M389.505 187.858L379.91 182.309V185.917L389.505 191.467V187.858Z" fill="#E5E5E5"/>
<path d="M362.716 176.13V172.522L344.291 162.216V165.824L362.716 176.13Z" fill="#E5E5E5"/>
<path d="M365.476 181.789L359.435 178.372V181.981L365.476 185.398V181.789Z" fill="#E5E5E5"/>
<path d="M401.151 198.191L416.733 207.24V203.631L401.151 194.583V198.191Z" fill="#E5E5E5"/>
<path d="M337.183 165.825L331.661 162.653V166.262L337.183 169.433V165.825Z" fill="#E5E5E5"/>
<path d="M340.682 160.193L331.661 155.163V158.772L340.682 163.802V160.193Z" fill="#E5E5E5"/>
<path d="M397.624 192.532L393.114 189.935V193.544L397.624 196.141V192.532Z" fill="#E5E5E5"/>
<path d="M384.311 240.782L369.002 232.089V235.697L384.311 244.363V240.782Z" fill="#E5E5E5"/>
<path d="M366.269 222.822V226.43L376.301 232.089V228.48L366.269 222.822Z" fill="#E5E5E5"/>
<path d="M355.171 227.879V224.271L340.764 216.097V219.705L355.171 227.879Z" fill="#E5E5E5"/>
<path d="M389.505 236.108L379.91 230.558V234.167L389.505 239.716V236.108Z" fill="#E5E5E5"/>
<path d="M362.716 224.38V220.771L344.291 210.465V214.074L362.716 224.38Z" fill="#E5E5E5"/>
<path d="M365.476 230.039L359.435 226.621V230.23L365.476 233.647V230.039Z" fill="#E5E5E5"/>
<path d="M401.151 246.441L416.733 255.489V251.881L401.151 242.832V246.441Z" fill="#E5E5E5"/>
<path d="M337.183 214.074L331.661 210.903V214.511L337.183 217.682V214.074Z" fill="#E5E5E5"/>
<path d="M340.682 208.443L331.661 203.413V207.021L340.682 212.051V208.443Z" fill="#E5E5E5"/>
<path d="M397.624 240.782L393.114 238.185V241.793L397.624 244.39V240.782Z" fill="#E5E5E5"/>
</g>
<g clip-path="url(#clip1_594_617)">
<g filter="url(#filter0_d_594_617)">
<path d="M34.1902 219.483L124.226 271.47C129.745 274.651 134.235 282.391 134.235 288.729V349.719C134.235 356.057 129.768 358.606 124.226 355.426L34.1902 303.439C28.6711 300.258 24.181 292.518 24.181 286.18V225.19C24.181 218.852 28.6711 216.303 34.1902 219.483Z" fill="#145374"/>
<path opacity="0.5" d="M130.236 277.293C130.236 277.293 130.329 277.457 130.4 277.527L79.2079 306.713L28.0162 218.431C28.0162 218.431 28.1098 218.384 28.1799 218.384L79.2079 298.13L130.236 277.317V277.293Z" fill="black"/>
<path opacity="0.5" d="M64.7086 281.737L28.1565 296.633C28.1565 296.633 28.063 296.47 27.9928 296.4L61.9725 277.036L64.7086 281.737Z" fill="black"/>
<path opacity="0.5" d="M96.4197 296.914L130.399 355.519C130.399 355.519 130.306 355.566 130.236 355.566L93.6836 298.458L96.4197 296.891V296.914Z" fill="black"/>
</g>
<g filter="url(#filter1_d_594_617)">
<path d="M27.8761 137.961L131.125 197.571C137.462 201.219 142.607 210.083 142.607 217.356V287.303C142.607 294.576 137.462 297.499 131.125 293.851L27.8761 234.217C21.5386 230.569 16.3937 221.705 16.3937 214.432V144.485C16.3937 137.212 21.5386 134.289 27.8761 137.937V137.961Z" fill="#EE6F57"/>
<path opacity="0.5" d="M138.047 204.26C138.047 204.26 138.164 204.447 138.234 204.54L79.5354 238.005L20.8135 136.745C20.8135 136.745 20.9304 136.698 21.0006 136.674L79.5354 228.113L138.07 204.236L138.047 204.26Z" fill="black"/>
<path opacity="0.5" d="M62.8846 209.334L20.9771 226.429C20.9771 226.429 20.8602 226.242 20.79 226.149L59.7509 203.932L62.8846 209.334Z" fill="black"/>
<path opacity="0.5" d="M99.2497 226.733L138.211 293.944C138.211 293.944 138.094 293.991 138.023 294.014L96.116 228.534L99.2497 226.757V226.733Z" fill="black"/>
</g>
<g filter="url(#filter2_d_594_617)">
<path d="M15.154 36.8868L151.517 115.604C159.889 120.421 166.671 132.137 166.671 141.726V234.076C166.671 243.688 159.889 247.547 151.517 242.706L15.154 164.012C6.7819 159.172 0 147.479 0 137.89V45.5162C0 35.928 6.7819 32.046 15.154 36.8868Z" fill="#EE6F57"/>
<path opacity="0.5" d="M160.614 124.444C160.708 124.561 160.778 124.677 160.848 124.794L83.3238 168.994L5.79968 35.2967C5.79968 35.2967 5.96338 35.2265 6.03354 35.2031L83.3238 155.968L160.614 124.444Z" fill="black"/>
<path opacity="0.5" d="M61.3879 131.155L6.03354 153.723C5.94 153.606 5.86984 153.489 5.79968 153.372L57.2486 124.046L61.3879 131.179V131.155Z" fill="black"/>
<path opacity="0.5" d="M109.399 154.144L160.848 242.893C160.848 242.893 160.684 242.963 160.614 242.986L105.283 156.506L109.423 154.144H109.399Z" fill="black"/>
</g>
</g>
<defs>
<filter id="filter0_d_594_617" x="24.181" y="218.115" width="124.054" height="155.68" filterUnits="userSpaceOnUse" color-interpolation-filters="sRGB">
<feFlood flood-opacity="0" result="BackgroundImageFix"/>
<feColorMatrix in="SourceAlpha" type="matrix" values="0 0 0 0 0 0 0 0 0 0 0 0 0 0 0 0 0 0 127 0" result="hardAlpha"/>
<feOffset dx="7" dy="10"/>
<feGaussianBlur stdDeviation="3.5"/>
<feComposite in2="hardAlpha" operator="out"/>
<feColorMatrix type="matrix" values="0 0 0 0 0 0 0 0 0 0 0 0 0 0 0 0 0 0 0.2 0"/>
<feBlend mode="normal" in2="BackgroundImageFix" result="effect1_dropShadow_594_617"/>
<feBlend mode="normal" in="SourceGraphic" in2="effect1_dropShadow_594_617" result="shape"/>
</filter>
<filter id="filter1_d_594_617" x="16.3937" y="136.367" width="140.214" height="176.054" filterUnits="userSpaceOnUse" color-interpolation-filters="sRGB">
<feFlood flood-opacity="0" result="BackgroundImageFix"/>
<feColorMatrix in="SourceAlpha" type="matrix" values="0 0 0 0 0 0 0 0 0 0 0 0 0 0 0 0 0 0 127 0" result="hardAlpha"/>
<feOffset dx="7" dy="10"/>
<feGaussianBlur stdDeviation="3.5"/>
<feComposite in2="hardAlpha" operator="out"/>
<feColorMatrix type="matrix" values="0 0 0 0 0 0 0 0 0 0 0 0 0 0 0 0 0 0 0.2 0"/>
<feBlend mode="normal" in2="BackgroundImageFix" result="effect1_dropShadow_594_617"/>
<feBlend mode="normal" in="SourceGraphic" in2="effect1_dropShadow_594_617" result="shape"/>
</filter>
<filter id="filter2_d_594_617" x="0" y="34.8024" width="180.671" height="226.992" filterUnits="userSpaceOnUse" color-interpolation-filters="sRGB">
<feFlood flood-opacity="0" result="BackgroundImageFix"/>
<feColorMatrix in="SourceAlpha" type="matrix" values="0 0 0 0 0 0 0 0 0 0 0 0 0 0 0 0 0 0 127 0" result="hardAlpha"/>
<feOffset dx="7" dy="10"/>
<feGaussianBlur stdDeviation="3.5"/>
<feComposite in2="hardAlpha" operator="out"/>
<feColorMatrix type="matrix" values="0 0 0 0 0 0 0 0 0 0 0 0 0 0 0 0 0 0 0.2 0"/>
<feBlend mode="normal" in2="BackgroundImageFix" result="effect1_dropShadow_594_617"/>
<feBlend mode="normal" in="SourceGraphic" in2="effect1_dropShadow_594_617" result="shape"/>
</filter>
<linearGradient id="paint0_linear_594_617" x1="280.76" y1="239.196" x2="386.581" y2="405.24" gradientUnits="userSpaceOnUse">
<stop offset="0.06" stop-color="#9F79B8"/>
<stop offset="0.25" stop-color="#A17BB9"/>
<stop offset="0.35" stop-color="#A882C0"/>
<stop offset="0.42" stop-color="#B48FCB"/>
<stop offset="0.48" stop-color="#C5A2DB"/>
<stop offset="0.54" stop-color="#DBBAF0"/>
<stop offset="0.56" stop-color="#E6C6FA"/>
<stop offset="0.6" stop-color="#D6B6F0"/>
<stop offset="0.69" stop-color="#B494DC"/>
<stop offset="0.77" stop-color="#9C7CCE"/>
<stop offset="0.85" stop-color="#8E6EC5"/>
<stop offset="0.92" stop-color="#8969C3"/>
</linearGradient>
<clipPath id="clip0_594_617">
<rect width="439.93" height="478.311" fill="white" transform="translate(92)"/>
</clipPath>
<clipPath id="clip1_594_617">
<rect width="166.648" height="322" fill="white" transform="translate(0 34.8054)"/>
</clipPath>
</defs>
</svg>
