<svg width="100" height="100" viewBox="0 0 100 100" fill="none" xmlns="http://www.w3.org/2000/svg">
<path d="M95.6252 58.7505C95.2969 58.9968 94.9233 59.1759 94.5258 59.2778C94.1282 59.3796 93.7145 59.4022 93.3083 59.3441C92.902 59.2861 92.5112 59.1486 92.158 58.9395C91.8049 58.7304 91.4964 58.4538 91.2502 58.1255C89.3667 55.5937 86.915 53.5396 84.0926 52.1283C81.2701 50.7171 78.1558 49.9883 75.0002 50.0005C74.3857 50.0005 73.7848 49.8192 73.2728 49.4795C72.7607 49.1397 72.3602 48.6566 72.1213 48.0904C71.9591 47.7059 71.8755 47.2928 71.8755 46.8755C71.8755 46.4582 71.9591 46.0452 72.1213 45.6607C72.3602 45.0945 72.7607 44.6113 73.2728 44.2716C73.7848 43.9318 74.3857 43.7506 75.0002 43.7505C76.7536 43.7504 78.4718 43.2585 79.9597 42.3308C81.4476 41.403 82.6455 40.0767 83.4173 38.5023C84.1891 36.9279 84.5039 35.1686 84.326 33.4242C84.1481 31.6799 83.4845 30.0204 82.4107 28.6342C81.3369 27.2481 79.8959 26.1908 78.2514 25.5826C76.6069 24.9744 74.8247 24.8396 73.1074 25.1934C71.39 25.5473 69.8064 26.3757 68.5362 27.5845C67.2661 28.7933 66.3604 30.3341 65.9221 32.0318C65.8195 32.4293 65.6396 32.8028 65.3927 33.1308C65.1457 33.4589 64.8366 33.735 64.483 33.9436C64.1293 34.1522 63.738 34.2891 63.3315 34.3464C62.9249 34.4038 62.511 34.3805 62.1135 34.2779C61.7159 34.1753 61.3425 33.9954 61.0144 33.7485C60.6864 33.5015 60.4102 33.1924 60.2017 32.8388C59.9931 32.4851 59.8562 32.0938 59.7989 31.6873C59.7415 31.2807 59.7648 30.8668 59.8674 30.4693C60.4758 28.115 61.6253 25.9353 63.2244 24.1035C64.8235 22.2716 66.828 20.8383 69.0785 19.9175C71.329 18.9967 73.7634 18.6139 76.1879 18.7995C78.6124 18.9851 80.9601 19.7339 83.0442 20.9865C85.1284 22.2391 86.8914 23.9608 88.1931 26.0147C89.4948 28.0685 90.2991 30.3978 90.5421 32.8172C90.7852 35.2367 90.4602 37.6794 89.593 39.9511C88.7258 42.2228 87.3405 44.2608 85.5471 45.9029C89.7963 47.7427 93.4903 50.6623 96.2619 54.3716C96.5081 54.7008 96.687 55.0752 96.7883 55.4736C96.8895 55.872 96.9112 56.2864 96.8521 56.6932C96.7929 57.0999 96.6541 57.491 96.4436 57.8441C96.2331 58.1971 95.955 58.5051 95.6252 58.7505ZM74.5783 82.813C74.8044 83.1687 74.9563 83.5665 75.0247 83.9823C75.0931 84.3982 75.0766 84.8236 74.9764 85.233C74.8761 85.6424 74.6941 86.0272 74.4412 86.3644C74.1883 86.7016 73.8699 86.9841 73.505 87.195C73.1401 87.406 72.7363 87.5409 72.3179 87.5917C71.8995 87.6425 71.4752 87.6082 71.0704 87.4908C70.6656 87.3733 70.2888 87.1752 69.9626 86.9084C69.6363 86.6416 69.3674 86.3115 69.1721 85.938C67.2035 82.6047 64.3999 79.8422 61.0378 77.9232C57.6757 76.0041 53.8714 74.9948 50.0002 74.9948C46.129 74.9948 42.3247 76.0041 38.9626 77.9232C35.6005 79.8422 32.7969 82.6047 30.8283 85.938C30.633 86.3115 30.3641 86.6416 30.0379 86.9084C29.7116 87.1752 29.3348 87.3733 28.93 87.4908C28.5252 87.6082 28.1009 87.6425 27.6825 87.5917C27.2641 87.5409 26.8603 87.406 26.4954 87.195C26.1305 86.9841 25.8121 86.7016 25.5592 86.3644C25.3064 86.0272 25.1243 85.6424 25.024 85.233C24.9238 84.8236 24.9073 84.3982 24.9758 83.9823C25.0442 83.5665 25.196 83.1687 25.4221 82.813C28.4518 77.6075 33.0713 73.511 38.6018 71.1255C35.4898 68.7429 33.2027 65.4449 32.0619 61.6952C30.9212 57.9455 30.9842 53.9325 32.2421 50.2205C33.4999 46.5084 35.8894 43.2839 39.0747 41C42.26 38.7162 46.0808 37.488 50.0002 37.488C53.9196 37.488 57.7405 38.7162 60.9257 41C64.111 43.2839 66.5005 46.5084 67.7584 50.2205C69.0162 53.9325 69.0792 57.9455 67.9385 61.6952C66.7978 65.4449 64.5106 68.7429 61.3986 71.1255C66.9291 73.511 71.5487 77.6075 74.5783 82.813ZM50.0002 68.7505C52.4725 68.7505 54.8892 68.0174 56.9448 66.6439C59.0005 65.2704 60.6026 63.3181 61.5487 61.0341C62.4948 58.75 62.7423 56.2367 62.26 53.8119C61.7777 51.3871 60.5872 49.1599 58.839 47.4117C57.0909 45.6635 54.8636 44.473 52.4388 43.9907C50.0141 43.5084 47.5007 43.7559 45.2167 44.702C42.9326 45.6481 40.9804 47.2503 39.6068 49.3059C38.2333 51.3615 37.5002 53.7783 37.5002 56.2505C37.5002 59.5657 38.8172 62.7452 41.1614 65.0894C43.5056 67.4336 46.685 68.7505 50.0002 68.7505ZM28.1252 46.8755C28.1252 46.0467 27.796 45.2519 27.2099 44.6658C26.6239 44.0798 25.829 43.7505 25.0002 43.7505C23.2468 43.7504 21.5286 43.2585 20.0407 42.3308C18.5528 41.403 17.355 40.0767 16.5831 38.5023C15.8113 36.9279 15.4965 35.1686 15.6744 33.4242C15.8523 31.6799 16.5159 30.0204 17.5897 28.6342C18.6635 27.2481 20.1045 26.1908 21.749 25.5826C23.3936 24.9744 25.1757 24.8396 26.893 25.1934C28.6104 25.5473 30.194 26.3757 31.4642 27.5845C32.7343 28.7933 33.64 30.3341 34.0783 32.0318C34.2855 32.8347 34.8032 33.5224 35.5174 33.9436C36.2317 34.3648 37.084 34.4851 37.8869 34.2779C38.6898 34.0707 39.3775 33.553 39.7988 32.8388C40.22 32.1245 40.3402 31.2722 40.133 30.4693C39.5246 28.115 38.3751 25.9353 36.776 24.1035C35.177 22.2716 33.1724 20.8383 30.9219 19.9175C28.6714 18.9967 26.237 18.6139 23.8125 18.7995C21.388 18.9851 19.0403 19.7339 16.9562 20.9865C14.872 22.2391 13.109 23.9608 11.8073 26.0147C10.5057 28.0685 9.70132 30.3978 9.45829 32.8172C9.21526 35.2367 9.54025 37.6794 10.4074 39.9511C11.2746 42.2228 12.66 44.2608 14.4533 45.9029C10.2083 47.7444 6.51862 50.6639 3.75021 54.3716C3.25241 55.0347 3.03839 55.8683 3.15524 56.6891C3.27208 57.51 3.71021 58.2508 4.37326 58.7486C5.0363 59.2464 5.86993 59.4604 6.69077 59.3436C7.51161 59.2267 8.25241 58.7886 8.75021 58.1255C10.6337 55.5937 13.0854 53.5396 15.9079 52.1283C18.7303 50.7171 21.8446 49.9883 25.0002 50.0005C25.829 50.0005 26.6239 49.6713 27.2099 49.0852C27.796 48.4992 28.1252 47.7043 28.1252 46.8755Z" fill="url(#paint0_linear_2104_806)"/>
<defs>
<linearGradient id="paint0_linear_2104_806" x1="49.4499" y1="20.7769" x2="50.4145" y2="87.6086" gradientUnits="userSpaceOnUse">
<stop stop-color="#E5E5E5"/>
<stop offset="1" stop-color="#ACACAC"/>
</linearGradient>
</defs>
</svg>
