<svg width="100" height="100" viewBox="0 0 100 100" fill="none" xmlns="http://www.w3.org/2000/svg">
<path d="M89.1602 24.6367L87.3399 23.5859C87.5534 22.4553 87.5534 21.2947 87.3399 20.1641L89.1602 19.1133C89.8781 18.6989 90.4021 18.0162 90.6167 17.2156C90.8313 16.4149 90.7191 15.5617 90.3047 14.8438C89.8903 14.1258 89.2077 13.6019 88.407 13.3872C87.6063 13.1726 86.7531 13.2848 86.0352 13.6992L84.211 14.7539C83.338 14.0049 82.3342 13.4235 81.25 13.0391V10.9375C81.25 10.1087 80.9208 9.31384 80.3347 8.72779C79.7487 8.14174 78.9538 7.8125 78.125 7.8125C77.2962 7.8125 76.5014 8.14174 75.9153 8.72779C75.3293 9.31384 75 10.1087 75 10.9375V13.0391C73.9159 13.4235 72.9121 14.0049 72.0391 14.7539L70.2149 13.6992C69.8594 13.494 69.467 13.3609 69.06 13.3073C68.653 13.2538 68.2395 13.281 67.8431 13.3872C67.4466 13.4935 67.075 13.6768 66.7494 13.9268C66.4237 14.1767 66.1505 14.4883 65.9454 14.8438C65.7402 15.1992 65.607 15.5917 65.5535 15.9986C65.4999 16.4056 65.5271 16.8191 65.6334 17.2156C65.7396 17.612 65.923 17.9837 66.1729 18.3093C66.4228 18.6349 66.7344 18.9081 67.0899 19.1133L68.9102 20.1641C68.6966 21.2947 68.6966 22.4553 68.9102 23.5859L67.0899 24.6367C66.4938 24.9805 66.0278 25.5115 65.7643 26.1472C65.5008 26.7829 65.4545 27.4878 65.6326 28.1525C65.8107 28.8172 66.2032 29.4045 66.7492 29.8233C67.2952 30.2421 67.9642 30.469 68.6524 30.4688C69.2011 30.4704 69.7403 30.3262 70.2149 30.0508L72.0391 28.9961C72.9121 29.7451 73.9159 30.3265 75 30.7109V32.8125C75 33.6413 75.3293 34.4362 75.9153 35.0222C76.5014 35.6083 77.2962 35.9375 78.125 35.9375C78.9538 35.9375 79.7487 35.6083 80.3347 35.0222C80.9208 34.4362 81.25 33.6413 81.25 32.8125V30.7109C82.3342 30.3265 83.338 29.7451 84.211 28.9961L86.0352 30.0508C86.5097 30.3262 87.049 30.4704 87.5977 30.4688C88.2858 30.469 88.9548 30.2421 89.5008 29.8233C90.0469 29.4045 90.4394 28.8172 90.6175 28.1525C90.7955 27.4878 90.7492 26.7829 90.4857 26.1472C90.2223 25.5115 89.7563 24.9805 89.1602 24.6367ZM75 21.875C75 21.2569 75.1833 20.6527 75.5267 20.1388C75.8701 19.6249 76.3581 19.2244 76.9292 18.9879C77.5002 18.7514 78.1285 18.6895 78.7347 18.81C79.3409 18.9306 79.8977 19.2283 80.3347 19.6653C80.7718 20.1023 81.0694 20.6592 81.19 21.2653C81.3106 21.8715 81.2487 22.4999 81.0122 23.0709C80.7756 23.6419 80.3751 24.13 79.8612 24.4733C79.3473 24.8167 78.7431 25 78.125 25C77.2962 25 76.5014 24.6708 75.9153 24.0847C75.3293 23.4987 75 22.7038 75 21.875ZM86.4649 40.668C85.6475 40.8048 84.9179 41.2606 84.4366 41.9353C83.9553 42.61 83.7618 43.4482 83.8985 44.2656C84.2158 46.1606 84.3752 48.0786 84.375 50C84.3824 58.4148 81.2897 66.5375 75.6875 72.8164C72.2023 67.7659 67.3015 63.8587 61.6016 61.5859C64.6634 59.1744 66.8976 55.8687 67.9935 52.1285C69.0894 48.3883 68.9926 44.3996 67.7165 40.717C66.4404 37.0344 64.0484 33.841 60.8732 31.5808C57.698 29.3207 53.8975 28.1062 50 28.1062C46.1026 28.1062 42.302 29.3207 39.1268 31.5808C35.9517 33.841 33.5597 37.0344 32.2836 40.717C31.0075 44.3996 30.9106 48.3883 32.0066 52.1285C33.1025 55.8687 35.3367 59.1744 38.3985 61.5859C32.6985 63.8587 27.7978 67.7659 24.3125 72.8164C19.9169 67.8631 17.0456 61.7456 16.044 55.1994C15.0423 48.6532 15.9529 41.9569 18.6662 35.9159C21.3795 29.8748 25.7801 24.7462 31.3388 21.1465C36.8975 17.5469 43.3776 15.6295 50 15.625C51.9214 15.6247 53.8395 15.7841 55.7344 16.1016C56.5481 16.23 57.3796 16.0319 58.048 15.5503C58.7165 15.0688 59.1677 14.3429 59.3036 13.5304C59.4396 12.7179 59.2492 11.8846 58.7739 11.2118C58.2986 10.5389 57.5769 10.081 56.7657 9.9375C48.2791 8.50982 39.5584 9.81615 31.8627 13.6679C24.1669 17.5196 17.8944 23.7174 13.9508 31.3664C10.0071 39.0154 8.59635 47.7198 9.92221 56.2229C11.2481 64.7259 15.242 72.5876 21.3272 78.6729C27.4124 84.7581 35.2741 88.752 43.7772 90.0778C52.2802 91.4037 60.9846 89.993 68.6336 86.0493C76.2827 82.1056 82.4804 75.8331 86.3322 68.1374C90.1839 60.4416 91.4902 51.7209 90.0625 43.2344C89.9257 42.417 89.4699 41.6874 88.7952 41.2061C88.1205 40.7248 87.2823 40.5313 86.4649 40.668ZM37.5 46.875C37.5 44.4027 38.2332 41.986 39.6067 39.9304C40.9802 37.8748 42.9324 36.2726 45.2165 35.3265C47.5006 34.3804 50.0139 34.1329 52.4387 34.6152C54.8634 35.0975 57.0907 36.288 58.8389 38.0362C60.587 39.7843 61.7775 42.0116 62.2599 44.4364C62.7422 46.8611 62.4946 49.3745 61.5485 51.6585C60.6024 53.9426 59.0003 55.8949 56.9447 57.2684C54.8891 58.6419 52.4723 59.375 50 59.375C46.6848 59.375 43.5054 58.058 41.1612 55.7138C38.817 53.3696 37.5 50.1902 37.5 46.875ZM28.9375 77.1484C31.1982 73.6128 34.3126 70.7032 37.9935 68.6877C41.6744 66.6723 45.8035 65.6158 50 65.6158C54.1966 65.6158 58.3257 66.6723 62.0066 68.6877C65.6875 70.7032 68.8019 73.6128 71.0625 77.1484C65.0404 81.832 57.629 84.3747 50 84.3747C42.371 84.3747 34.9597 81.832 28.9375 77.1484Z" fill="url(#paint0_linear_2104_810)"/>
<defs>
<linearGradient id="paint0_linear_2104_810" x1="49.6" y1="10.2435" x2="51.2065" y2="90.54" gradientUnits="userSpaceOnUse">
<stop stop-color="#E5E5E5"/>
<stop offset="1" stop-color="#ACACAC"/>
</linearGradient>
</defs>
</svg>
