<svg width="124" height="124" viewBox="0 0 124 124" fill="none" xmlns="http://www.w3.org/2000/svg">
<circle cx="62" cy="62" r="62" fill="#145374"/>
<g clip-path="url(#clip0_1427_43391)">
<path d="M87.7419 80.0322H85.0322V82.7419H87.7419V80.0322Z" fill="#145374"/>
<path d="M82.323 80.0322H79.6133V82.7419H82.323V80.0322Z" fill="#145374"/>
<path d="M76.903 80.0322H74.1934V82.7419H76.903V80.0322Z" fill="#145374"/>
<path d="M90.4516 31.2581C89.8617 31.2581 89.2779 31.3092 88.6988 31.385C86.847 21.9523 78.529 15 68.7742 15C61.5711 15 55.0214 18.7394 51.3533 24.8508C49.2692 23.7546 46.9017 23.129 44.3871 23.129C36.5972 23.129 30.1961 29.1368 29.5474 36.761C24.1775 37.4021 20 41.9775 20 47.5161C20 53.4929 24.8619 58.3548 30.8387 58.3548V81.3871C30.8387 85.1218 33.8766 88.1613 37.6129 88.1613H51.1613V90.871H49.8065C46.0702 90.871 43.0323 93.9089 43.0323 97.6452V99H80.9677V97.6452C80.9677 93.9089 77.9283 90.871 74.1936 90.871H72.8387V88.1613H86.3871C90.1218 88.1613 93.1613 85.1218 93.1613 81.3871V58.0808C99.4183 56.8173 104 51.3112 104 44.8065C104 37.3355 97.9226 31.2581 90.4516 31.2581ZM74.1936 93.5806C75.9603 93.5806 77.4668 94.7125 78.0274 96.2903H45.9742C46.5332 94.7125 48.0397 93.5806 49.8065 93.5806H74.1936ZM53.8725 90.871V88.1613H70.1306V90.871H53.8725ZM90.4532 81.3871C90.4532 83.6276 88.6292 85.4516 86.3886 85.4516H37.6145C35.3724 85.4516 33.5499 83.6276 33.5499 81.3871V80.0323H70.6911L73.4008 77.3226H90.4532V81.3871ZM66.6111 70.3966C65.8168 69.9507 64.9512 69.6178 64.0361 69.4181L77.2036 57.1285C77.8307 56.5417 78.577 56.1159 79.3822 55.8743C79.1406 56.681 78.7164 57.4258 78.1296 58.0545L66.6111 70.3966ZM70.6261 70.0668C71.9081 71.3535 72.8836 72.9097 73.489 74.6129H72.2782L71.0503 75.8392C70.5982 74.3977 69.807 73.1063 68.7742 72.0503L70.6261 70.0668ZM68.6379 77.3226H55.3636C55.9938 74.2351 58.7298 71.9032 62.0015 71.9032C65.2733 71.9032 68.0077 74.2351 68.6379 77.3226ZM60.0986 69.3855C56.2137 70.1799 53.1959 73.3618 52.6245 77.3226H49.887C50.5652 71.2343 55.7352 66.4839 62.0015 66.4839C62.3778 66.4839 62.7479 66.5319 63.1195 66.5659L60.0986 69.3855ZM90.4532 74.6129H76.335C75.6351 72.1463 74.3019 69.8934 72.4748 68.0849L80.1084 59.9063C81.5376 58.3765 82.3241 56.3822 82.3241 54.2903V52.9355H80.9693C78.8759 52.9355 76.8815 53.7205 75.3533 55.1481L65.6263 64.2279C64.4449 63.9306 63.2294 63.7742 62.0015 63.7742C54.2395 63.7742 47.8539 69.737 47.1665 77.3226H33.5499V51.5806C33.5499 49.3386 35.3724 47.5161 37.6145 47.5161H86.3886C88.6292 47.5161 90.4532 49.3386 90.4532 51.5806V74.6129ZM93.1613 55.2921V51.5791C93.1613 47.8444 90.1218 44.8049 86.3871 44.8049H37.6129C33.8766 44.8049 30.8387 47.8444 30.8387 51.5791V55.6436C26.3546 55.6436 22.7112 52.0003 22.7097 47.5161C22.7097 43.032 26.3561 39.3871 30.8387 39.3871C33.4942 39.3871 35.9886 40.6893 37.5123 42.871L39.7357 41.3195C37.9799 38.8049 35.2547 37.1714 32.2586 36.775C32.8888 30.6403 38.0883 25.8372 44.3871 25.8372C50.6859 25.8372 55.8994 30.5551 56.5218 36.8106L59.2175 36.5443C58.801 32.3621 56.6999 28.7512 53.6294 26.3295C56.799 20.983 62.5001 17.7081 68.7742 17.7081C77.2594 17.7081 84.4888 23.7794 86.0573 32.0013C83.888 32.7461 81.9138 34.0297 80.3515 35.7732L82.3706 37.5801C84.4268 35.2839 87.3734 33.9662 90.4516 33.9662C96.4284 33.9662 101.29 38.8297 101.29 44.8049C101.29 49.8217 97.8854 54.0813 93.1613 55.2921Z" fill="#EE6F57"/>
<path d="M78.0278 96.2903H45.9746C46.5336 94.7125 48.0402 93.5806 49.8069 93.5806H74.194C75.9607 93.5806 77.4673 94.7125 78.0278 96.2903Z" fill="#E5E5E5"/>
<path d="M73.4006 77.3226L70.691 80.0322H33.5498V81.3871C33.5498 83.6276 35.3723 85.4516 37.6143 85.4516H86.3885C88.629 85.4516 90.453 83.6276 90.453 81.3871V77.3226H73.4006ZM76.9031 82.7419H74.1934V80.0322H76.9031V82.7419ZM82.3224 82.7419H79.6128V80.0322H82.3224V82.7419ZM87.7418 82.7419H85.0321V80.0322H87.7418V82.7419Z" fill="#E5E5E5"/>
<path d="M68.6376 77.3226H55.3633C55.9935 74.2351 58.7295 71.9032 62.0012 71.9032C65.273 71.9032 68.0074 74.2351 68.6376 77.3226Z" fill="#145374"/>
<path d="M73.4893 74.6129H72.2784L71.0505 75.8392C70.5984 74.3977 69.8072 73.1063 68.7744 72.0503L70.6263 70.0668C71.9083 71.3535 72.8838 72.9097 73.4893 74.6129Z" fill="#E5E5E5"/>
<path d="M79.3822 55.8743C79.1407 56.681 78.7164 57.4258 78.1296 58.0545L66.6111 70.3966C65.8168 69.9507 64.9512 69.6178 64.0361 69.4181L77.2036 57.1285C77.8307 56.5417 78.577 56.1159 79.3822 55.8743Z" fill="#E5E5E5"/>
<path d="M63.1192 66.566L60.0983 69.3856C56.2134 70.1799 53.1956 73.3618 52.6243 77.3226H49.8867C50.5649 71.2343 55.735 66.4839 62.0013 66.4839C62.3776 66.4839 62.7476 66.5319 63.1192 66.566Z" fill="#E5E5E5"/>
<path d="M86.3885 47.5161H37.6143C35.3723 47.5161 33.5498 49.3386 33.5498 51.5806V77.3226H47.1663C47.8538 69.737 54.2394 63.7742 62.0014 63.7742C63.2293 63.7742 64.4448 63.9306 65.6262 64.2279L75.3532 55.1481C76.8814 53.7205 78.8757 52.9355 80.9692 52.9355H82.324V54.2903C82.324 56.3822 81.5374 58.3765 80.1083 59.9063L72.4747 68.0849C74.3018 69.8934 75.635 72.1463 76.3348 74.6129H90.453V51.5806C90.453 49.3386 88.629 47.5161 86.3885 47.5161ZM38.9676 69.1935H36.2579V66.4839H38.9676V69.1935ZM44.387 69.1935H41.6773V66.4839H44.387V69.1935ZM49.8063 69.1935H47.0966V66.4839H49.8063V69.1935ZM55.2257 63.7742H36.2579V61.0645H55.2257V63.7742ZM55.2257 58.3548H36.2579V55.6451H55.2257V58.3548ZM55.2257 52.9355H36.2579V50.2258H55.2257V52.9355ZM87.7418 71.9032H85.0321V69.1935H87.7418V71.9032ZM87.7418 66.4839H85.0321V63.7742H87.7418V66.4839ZM87.7418 61.0645H85.0321V58.3548H87.7418V61.0645Z" fill="#145374"/>
<path d="M90.4519 33.9662C87.3737 33.9662 84.4271 35.2839 82.3709 37.5801L80.3518 35.7732C81.9141 34.0297 83.8883 32.7461 86.0576 32.0013C84.4891 23.7794 77.2596 17.7081 68.7745 17.7081C62.5004 17.7081 56.7993 20.983 53.6297 26.3295C56.7002 28.7512 58.8013 32.3621 59.2178 36.5443L56.5221 36.8106C55.8996 30.5551 50.6831 25.8372 44.3874 25.8372C38.0916 25.8372 32.8891 30.6403 32.2589 36.775C35.255 37.1714 37.9802 38.8049 39.736 41.3195L37.5125 42.871C35.9889 40.6893 33.4945 39.3871 30.839 39.3871C26.3564 39.3871 22.71 43.032 22.71 47.5161C22.7115 52.0003 26.3549 55.6436 30.839 55.6436V51.5791C30.839 47.8444 33.8769 44.8049 37.6132 44.8049H86.3874C90.1221 44.8049 93.1616 47.8444 93.1616 51.5791V55.2921C97.8857 54.0813 101.291 49.8217 101.291 44.8049C101.291 38.8297 96.4287 33.9662 90.4519 33.9662ZM51.1616 38.0323C51.1616 34.296 48.1236 31.2581 44.3874 31.2581V28.5484C49.6178 28.5484 53.8713 32.8018 53.8713 38.0323H51.1616ZM68.7745 23.129C64.9035 23.129 61.3469 24.9066 59.0196 28.0065L56.8519 26.3791C59.6978 22.5917 64.0426 20.4194 68.7745 20.4194V23.129ZM95.8713 44.8065C95.8713 41.8165 93.4403 39.3871 90.4519 39.3871V36.6774C94.936 36.6774 98.5809 40.3223 98.5809 44.8065H95.8713Z" fill="#E5E5E5"/>
<path d="M55.2256 50.2258H36.2578V52.9355H55.2256V50.2258Z" fill="#E5E5E5"/>
<path d="M55.2256 55.6451H36.2578V58.3548H55.2256V55.6451Z" fill="#E5E5E5"/>
<path d="M55.2256 61.0645H36.2578V63.7742H55.2256V61.0645Z" fill="#E5E5E5"/>
<path d="M38.9675 66.4839H36.2578V69.1936H38.9675V66.4839Z" fill="#E5E5E5"/>
<path d="M44.3874 66.4839H41.6777V69.1936H44.3874V66.4839Z" fill="#E5E5E5"/>
<path d="M49.8064 66.4839H47.0967V69.1936H49.8064V66.4839Z" fill="#E5E5E5"/>
<path d="M87.7419 69.1935H85.0322V71.9032H87.7419V69.1935Z" fill="#E5E5E5"/>
<path d="M87.7419 63.7742H85.0322V66.4838H87.7419V63.7742Z" fill="#E5E5E5"/>
<path d="M87.7419 58.3549H85.0322V61.0645H87.7419V58.3549Z" fill="#E5E5E5"/>
<path d="M68.7741 20.4194V23.1291C64.9032 23.1291 61.3465 24.9066 59.0193 28.0065L56.8516 26.3791C59.6975 22.5918 64.0423 20.4194 68.7741 20.4194Z" fill="#EE6F57"/>
<path d="M53.8706 38.0323H51.1609C51.1609 34.296 48.123 31.2581 44.3867 31.2581V28.5484C49.6172 28.5484 53.8706 32.8018 53.8706 38.0323Z" fill="#EE6F57"/>
<path d="M98.5802 44.8065H95.8705C95.8705 41.8165 93.4396 39.3871 90.4512 39.3871V36.6774C94.9353 36.6774 98.5802 40.3223 98.5802 44.8065Z" fill="#EE6F57"/>
<path d="M101.29 91.1203V69.1935H98.5808V91.1203C97.0076 91.6808 95.8711 93.1703 95.8711 94.9355C95.8711 97.176 97.6951 99 99.9356 99C102.176 99 104 97.176 104 94.9355C104 93.1719 102.864 91.6808 101.29 91.1203ZM99.9356 96.2903C99.1893 96.2903 98.5808 95.6818 98.5808 94.9355C98.5808 94.1892 99.1893 93.5806 99.9356 93.5806C100.682 93.5806 101.29 94.1876 101.29 94.9355C101.29 95.6833 100.682 96.2903 99.9356 96.2903Z" fill="#EE6F57"/>
<path d="M99.9359 96.2903C100.684 96.2903 101.291 95.6837 101.291 94.9355C101.291 94.1872 100.684 93.5806 99.9359 93.5806C99.1876 93.5806 98.5811 94.1872 98.5811 94.9355C98.5811 95.6837 99.1876 96.2903 99.9359 96.2903Z" fill="#145374"/>
<path d="M98.5811 63.7742H101.291V66.4838H98.5811V63.7742Z" fill="#E5E5E5"/>
<path d="M98.5811 58.3549H101.291V61.0645H98.5811V58.3549Z" fill="#E5E5E5"/>
<path d="M25.4194 91.1203V69.1935H22.7097V91.1203C21.1365 91.6808 20 93.1719 20 94.9355C20 97.176 21.824 99 24.0645 99C26.305 99 28.129 97.176 28.129 94.9355C28.129 93.1719 26.9925 91.6808 25.4194 91.1203ZM24.0645 96.2903C23.3182 96.2903 22.7097 95.6818 22.7097 94.9355C22.7097 94.1892 23.3182 93.5806 24.0645 93.5806C24.8108 93.5806 25.4194 94.1876 25.4194 94.9355C25.4194 95.6833 24.8108 96.2903 24.0645 96.2903Z" fill="#EE6F57"/>
<path d="M24.0648 96.2903C24.8131 96.2903 25.4196 95.6837 25.4196 94.9355C25.4196 94.1872 24.8131 93.5806 24.0648 93.5806C23.3165 93.5806 22.71 94.1872 22.71 94.9355C22.71 95.6837 23.3165 96.2903 24.0648 96.2903Z" fill="#145374"/>
<path d="M22.71 63.7742H25.4196V66.4838H22.71V63.7742Z" fill="#E5E5E5"/>
<path d="M22.71 58.3549H25.4196V61.0645H22.71V58.3549Z" fill="#E5E5E5"/>
</g>
<defs>
<clipPath id="clip0_1427_43391">
<rect width="84" height="84" fill="white" transform="translate(20 15)"/>
</clipPath>
</defs>
</svg>
