<svg width="248" height="170" viewBox="0 0 248 170" fill="none" xmlns="http://www.w3.org/2000/svg">
<g clip-path="url(#clip0_594_8746)">
<path d="M239.992 0H8.00775C3.58519 0 0 3.58524 0 8.00785V161.992C0 166.415 3.58519 170 8.00775 170H239.992C244.415 170 248 166.415 248 161.992V8.00785C248 3.58524 244.415 0 239.992 0Z" fill="#E3E3E3"/>
<path d="M8.00775 170H239.992C244.417 170 248 166.416 248 161.992V153.831H0V161.992C0 166.416 3.58347 170 8.00775 170Z" fill="#124F70"/>
<path d="M127.944 161.912C127.944 159.73 126.175 157.968 124 157.968C121.825 157.968 120.056 159.737 120.056 161.912C120.056 164.088 121.825 165.856 124 165.856C126.175 165.856 127.944 164.088 127.944 161.912Z" fill="#D0D0D6" stroke="#142433" stroke-width="1.5" stroke-linecap="round" stroke-linejoin="round"/>
<path d="M239.992 0H8.00775C3.58347 0 0 3.58351 0 8.00785H248C248 3.58351 244.417 0 239.992 0Z" fill="#124F70"/>
<path d="M106.189 21.3542H16.5227V82.2606H106.189V21.3542Z" fill="#EE6F57"/>
<path d="M106.189 80.0852H16.5227V82.2673H106.189V80.0852Z" fill="#F99AAA"/>
<path d="M24.8641 25.585H20.7534V29.6957H24.8641V25.585Z" stroke="#142433" stroke-width="1.5" stroke-linecap="round" stroke-linejoin="round"/>
<path d="M33.092 29.6956H28.9813" stroke="#142433" stroke-width="1.5" stroke-linecap="round" stroke-linejoin="round"/>
<path d="M31.7507 65.0037L43.8224 41.6274L55.6138 59.3982L69.534 45.3778L78.4693 55.8481L92.6363 62.628" stroke="#142433" stroke-width="1.5" stroke-linecap="round" stroke-linejoin="round"/>
<path d="M33.2255 65.0036C33.2255 64.1895 32.5649 63.5288 31.7508 63.5288C30.9366 63.5288 30.276 64.1895 30.276 65.0036C30.276 65.8177 30.9366 66.4784 31.7508 66.4784C32.5649 66.4784 33.2255 65.8177 33.2255 65.0036Z" fill="#E3E3E3"/>
<path d="M71.0087 45.3776C71.0087 44.5635 70.3481 43.9028 69.534 43.9028C68.7198 43.9028 68.0592 44.5635 68.0592 45.3776C68.0592 46.1917 68.7198 46.8524 69.534 46.8524C70.3481 46.8524 71.0087 46.1917 71.0087 45.3776Z" fill="#E3E3E3"/>
<path d="M55.6138 60.8729C56.4283 60.8729 57.0886 60.2126 57.0886 59.3981C57.0886 58.5836 56.4283 57.9233 55.6138 57.9233C54.7993 57.9233 54.139 58.5836 54.139 59.3981C54.139 60.2126 54.7993 60.8729 55.6138 60.8729Z" fill="#E3E3E3"/>
<path d="M79.944 55.8481C79.944 55.0339 79.2834 54.3733 78.4693 54.3733C77.6551 54.3733 76.9945 55.0339 76.9945 55.8481C76.9945 56.6622 77.6551 57.3228 78.4693 57.3228C79.2834 57.3228 79.944 56.6622 79.944 55.8481Z" fill="#E3E3E3"/>
<path d="M45.2972 41.6274C45.2972 40.8132 44.6365 40.1526 43.8224 40.1526C43.0083 40.1526 42.3477 40.8132 42.3477 41.6274C42.3477 42.4415 43.0083 43.1021 43.8224 43.1021C44.6365 43.1021 45.2972 42.4415 45.2972 41.6274Z" fill="#E3E3E3"/>
<path d="M94.1111 62.6279C94.1111 61.8137 93.4505 61.1531 92.6364 61.1531C91.8223 61.1531 91.1616 61.8137 91.1616 62.6279C91.1616 63.442 91.8223 64.1026 92.6364 64.1026C93.4505 64.1026 94.1111 63.442 94.1111 62.6279Z" fill="#E3E3E3"/>
<path d="M31.7507 72.4309H92.6363" stroke="#142433" stroke-width="1.5" stroke-linecap="round" stroke-linejoin="round"/>
<path d="M101.698 25.585H78.3225V29.6957H101.698V25.585Z" fill="#E3E3E3"/>
<path d="M101.698 31.6509H89.7736V35.7616H101.698V31.6509Z" fill="#003049"/>
<path d="M106.189 87.7327H16.5227V140.478H106.189V87.7327Z" fill="#EE6F57"/>
<path d="M106.189 138.302H16.5227V140.484H106.189V138.302Z" fill="#F99AAA"/>
<path d="M24.8641 91.9634H20.7534V96.0741H24.8641V91.9634Z" stroke="#142433" stroke-width="1.5" stroke-linecap="round" stroke-linejoin="round"/>
<path d="M33.092 96.074H28.9813" stroke="#142433" stroke-width="1.5" stroke-linecap="round" stroke-linejoin="round"/>
<path d="M101.692 101.586H24.8641V104.536H101.692V101.586Z" fill="#003049"/>
<path d="M101.692 108.573H24.8641V111.523H101.692V108.573Z" fill="#E3E3E3"/>
<path d="M72.4769 115.553H24.8641V118.503H72.4769V115.553Z" fill="#E3E3E3"/>
<path d="M59.3108 122.54H24.8641V125.49H59.3108V122.54Z" fill="#003049"/>
<path d="M82.3464 122.54H62.9944V125.49H82.3464V122.54Z" fill="#003049"/>
<path d="M45.8177 129.527H24.8641V132.476H45.8177V129.527Z" fill="#E3E3E3"/>
<path d="M231.477 21.3542H115.672V36.4357H231.477V21.3542Z" fill="#EE6F57"/>
<path d="M231.477 36.4358H115.672V38.6179H231.477V36.4358Z" fill="#F99AAA"/>
<path d="M119.896 25.5852H124.013" stroke="#142433" stroke-width="1.5" stroke-linecap="round" stroke-linejoin="round"/>
<path d="M128.124 25.5852H132.241" stroke="#142433" stroke-width="1.5" stroke-linecap="round" stroke-linejoin="round"/>
<path d="M124.007 23.9902H119.896V25.5851H124.007V23.9902Z" stroke="#142433" stroke-width="1.5" stroke-linecap="round" stroke-linejoin="round"/>
<path d="M165.146 29.1885H124.013V32.138H165.146V29.1885Z" fill="#003049"/>
<path d="M184.919 29.1885H167.656V32.138H184.919V29.1885Z" fill="#E3E3E3"/>
<path d="M231.477 41.6741H115.672V56.7555H231.477V41.6741Z" fill="#EE6F57"/>
<path d="M231.477 56.7556H115.672V58.9378H231.477V56.7556Z" fill="#F99AAA"/>
<path d="M119.896 45.905H124.013" stroke="#142433" stroke-width="1.5" stroke-linecap="round" stroke-linejoin="round"/>
<path d="M128.124 45.905H132.241" stroke="#142433" stroke-width="1.5" stroke-linecap="round" stroke-linejoin="round"/>
<path d="M124.007 44.3101H119.896V45.905H124.007V44.3101Z" stroke="#142433" stroke-width="1.5" stroke-linecap="round" stroke-linejoin="round"/>
<path d="M142.818 49.5083H124.013V52.4579H142.818V49.5083Z" fill="#003049"/>
<path d="M220.727 49.5083H165.814V52.4579H220.727V49.5083Z" fill="#003049"/>
<path d="M163.205 49.5083H145.941V52.4579H163.205V49.5083Z" fill="#E3E3E3"/>
<path d="M231.477 61.9941H115.672V77.0756H231.477V61.9941Z" fill="#EE6F57"/>
<path d="M231.477 77.0757H115.672V79.2578H231.477V77.0757Z" fill="#F99AAA"/>
<path d="M119.896 66.2251H124.013" stroke="#142433" stroke-width="1.5" stroke-linecap="round" stroke-linejoin="round"/>
<path d="M128.124 66.2251H132.241" stroke="#142433" stroke-width="1.5" stroke-linecap="round" stroke-linejoin="round"/>
<path d="M124.007 64.6301H119.896V66.225H124.007V64.6301Z" stroke="#142433" stroke-width="1.5" stroke-linecap="round" stroke-linejoin="round"/>
<path d="M165.146 69.8352H124.013V72.7848H165.146V69.8352Z" fill="#003049"/>
<path d="M231.477 82.3208H115.672V97.4023H231.477V82.3208Z" fill="#EE6F57"/>
<path d="M231.477 97.4023H115.672V99.5845H231.477V97.4023Z" fill="#F99AAA"/>
<path d="M119.896 86.5449H124.013" stroke="#142433" stroke-width="1.5" stroke-linecap="round" stroke-linejoin="round"/>
<path d="M128.124 86.5449H132.241" stroke="#142433" stroke-width="1.5" stroke-linecap="round" stroke-linejoin="round"/>
<path d="M124.007 84.95H119.896V86.5448H124.007V84.95Z" stroke="#142433" stroke-width="1.5" stroke-linecap="round" stroke-linejoin="round"/>
<path d="M152.828 90.155H124.013V93.1046H152.828V90.155Z" fill="#003049"/>
<path d="M204.671 90.155H156.164V93.1046H204.671V90.155Z" fill="#E3E3E3"/>
<path d="M216.303 90.155H208.315V93.1046H216.303V90.155Z" fill="#E3E3E3"/>
<path d="M231.477 106.024H115.672V140.478H231.477V106.024Z" fill="#EE6F57"/>
<path d="M231.477 138.302H115.672V140.484H231.477V138.302Z" fill="#F99AAA"/>
<path d="M124.007 110.255H119.896V114.366H124.007V110.255Z" stroke="#142433" stroke-width="1.5" stroke-linecap="round" stroke-linejoin="round"/>
<path d="M132.241 114.365H128.124" stroke="#142433" stroke-width="1.5" stroke-linecap="round" stroke-linejoin="round"/>
<path d="M154.256 114.939H137.626V131.569H154.256V114.939Z" fill="#003049"/>
<path d="M141.824 127.372L150.065 119.137" stroke="#142433" stroke-width="1.5" stroke-linecap="round" stroke-linejoin="round"/>
<path d="M150.065 127.372L141.824 119.137" stroke="#142433" stroke-width="1.5" stroke-linecap="round" stroke-linejoin="round"/>
<path d="M176.958 114.939H160.328V131.569H176.958V114.939Z" fill="#003049"/>
<path d="M164.526 127.372L172.761 119.137" stroke="#142433" stroke-width="1.5" stroke-linecap="round" stroke-linejoin="round"/>
<path d="M199.653 114.939H183.024V131.569H199.653V114.939Z" fill="#003049"/>
<path d="M195.449 119.524H187.989V126.985H195.449V119.524Z" stroke="#142433" stroke-width="1.5" stroke-linecap="round" stroke-linejoin="round"/>
<path d="M222.349 114.939H205.719V131.569H222.349V114.939Z" fill="#003049"/>
</g>
<defs>
<clipPath id="clip0_594_8746">
<rect width="248" height="170" fill="white"/>
</clipPath>
</defs>
</svg>
