<svg width="105" height="180" viewBox="0 0 105 180" fill="none" xmlns="http://www.w3.org/2000/svg">
<path d="M13.827 158.475C16.5498 157.19 19.0292 157.023 20.8089 157.897L23.6229 159.284C21.8432 158.411 19.3638 158.526 16.641 159.862C13.794 161.423 11.4249 163.531 9.72764 166.014C8.03035 168.496 7.05302 171.283 6.87557 174.146C6.87557 176.715 7.97077 178.577 9.73525 179.438L6.92125 178.063C5.15677 177.203 4.07678 175.366 4.06157 172.758C4.24023 169.896 5.21803 167.11 6.91522 164.627C8.6124 162.145 10.9808 160.037 13.827 158.475Z" fill="#C4C4C4"/>
<path d="M16.6404 159.863C13.7933 161.424 11.4243 163.532 9.72697 166.014C8.02968 168.497 7.05235 171.283 6.8749 174.146C6.8749 179.387 11.3014 181.506 16.7165 178.86C19.5558 177.301 21.9198 175.199 23.6166 172.724C25.3134 170.249 26.295 167.471 26.4819 164.615C26.4667 159.336 22.0555 157.217 16.6404 159.863Z" fill="#A9ABAC"/>
<path d="M16.3813 163.702C19.7886 162.032 22.4657 163.368 22.4657 166.669C22.3599 168.467 21.7539 170.217 20.6967 171.78C19.6396 173.342 18.1611 174.672 16.3813 175.661C12.9892 177.318 10.2969 175.995 10.2969 172.694C10.4039 170.897 11.0104 169.147 12.0674 167.584C13.1245 166.022 14.6024 164.692 16.3813 163.702ZM17.9024 171.679V166.323L13.1109 171.345L17.9024 171.679Z" fill="white"/>
<path d="M9.14138 135.51L18.268 131.014C18.7995 130.691 19.4237 130.492 20.0762 130.44C20.7286 130.389 21.3857 130.485 21.9795 130.719L24.7936 132.093C24.1981 131.862 23.5406 131.769 22.8884 131.823C22.2362 131.877 21.6128 132.077 21.0821 132.401L11.9555 136.884C10.4473 137.714 9.19268 138.833 8.29393 140.15C7.39517 141.467 6.8777 142.945 6.78369 144.463V153.454C6.71612 153.993 6.82166 154.538 7.08932 155.031C7.35697 155.523 7.77686 155.946 8.30479 156.254L5.49079 154.88C4.96281 154.569 4.54319 154.143 4.27569 153.649C4.00819 153.154 3.90257 152.608 3.96969 152.067V143.076C4.06363 141.559 4.58115 140.083 5.48002 138.768C6.37889 137.454 7.63354 136.337 9.14138 135.51Z" fill="#C4C4C4"/>
<path d="M11.9552 136.884C10.4471 137.714 9.19243 138.833 8.29368 140.15C7.39492 141.467 6.87745 142.945 6.78344 144.463V153.454C6.78344 156.229 9.12591 157.308 11.9856 156.023L21.2035 151.527C22.7096 150.699 23.963 149.582 24.8617 148.267C25.7603 146.953 26.2789 145.477 26.3752 143.962V134.97C26.3752 132.183 24.0328 131.117 21.1579 132.401L11.9552 136.884Z" fill="#A9ABAC"/>
<path d="M16.382 138.324C19.7893 136.667 22.4664 137.99 22.4664 141.291C22.3607 143.088 21.7546 144.839 20.6974 146.401C19.6403 147.963 18.1618 149.293 16.382 150.282C12.99 151.939 10.2976 150.616 10.2976 147.315C10.407 145.519 11.0146 143.769 12.0714 142.207C13.1283 140.645 14.6048 139.315 16.382 138.324ZM17.9031 146.313V140.944L13.1116 145.966L17.9031 146.313Z" fill="#F0907E"/>
<path d="M7.83232 113.12C7.49077 113.309 7.20673 113.564 7.00325 113.863C6.79977 114.162 6.68254 114.497 6.66104 114.841V131.54C6.66104 132.169 7.19347 132.426 7.84754 132.105L25.0817 123.704C25.4252 123.516 25.7114 123.262 25.9175 122.963C26.1236 122.664 26.2437 122.328 26.2681 121.983V105.285C26.2681 104.655 25.7357 104.399 25.0817 104.72L7.83232 113.12Z" fill="#114860"/>
<path d="M5.04905 111.733L22.2832 103.333C22.4108 103.272 22.5549 103.24 22.7015 103.24C22.8481 103.24 22.9921 103.272 23.1197 103.333L25.9338 104.707C25.7991 104.655 25.6502 104.635 25.503 104.649C25.3557 104.662 25.2154 104.709 25.0972 104.784L7.83269 113.121C7.49115 113.31 7.2071 113.564 7.00362 113.863C6.80014 114.162 6.68291 114.498 6.66141 114.842V131.54C6.64736 131.662 6.67245 131.785 6.73401 131.895C6.79558 132.006 6.89141 132.101 7.01133 132.17L4.19723 130.795C4.07732 130.727 3.98158 130.632 3.92001 130.521C3.85844 130.41 3.83336 130.288 3.84741 130.166V113.468C3.86992 113.119 3.99065 112.779 4.19965 112.478C4.40864 112.176 4.69984 111.921 5.04905 111.733Z" fill="#2A7596"/>
<path d="M16.381 112.427C19.7883 110.77 22.4655 112.093 22.4655 115.394C22.3609 117.192 21.7553 118.943 20.698 120.505C19.6408 122.068 18.1617 123.397 16.381 124.386C12.989 126.055 10.2966 124.72 10.2966 121.431C10.4037 119.633 11.0102 117.881 12.0671 116.316C13.1241 114.752 14.6018 113.42 16.381 112.427ZM17.9021 120.417V115.047L13.1106 120.07L17.9021 120.417Z" fill="#A9ABAC"/>
<path fill-rule="evenodd" clip-rule="evenodd" d="M84.7239 97.6674V96.537L86.5948 95.625V96.7554L84.7239 97.6674Z" fill="#EE6F57"/>
<path fill-rule="evenodd" clip-rule="evenodd" d="M81.3792 99.2992V98.1688L83.2501 97.2568V98.4L81.3792 99.2992Z" fill="#EE6F57"/>
<path fill-rule="evenodd" clip-rule="evenodd" d="M77.8034 101.008L78.3662 99.6206L79.9938 98.8242L79.796 100.109C79.1724 100.391 78.5031 100.712 77.8034 101.008Z" fill="#EE6F57"/>
<path fill-rule="evenodd" clip-rule="evenodd" d="M94.7797 92.774V91.6308L96.6506 90.7188V91.862L94.7797 92.774Z" fill="#EE6F57"/>
<path fill-rule="evenodd" clip-rule="evenodd" d="M91.4324 94.4048V93.2616L93.3033 92.3496V93.4928L91.4324 94.4048Z" fill="#EE6F57"/>
<path fill-rule="evenodd" clip-rule="evenodd" d="M88.1012 96.0247V94.8944L89.9722 93.9824V95.1128L88.1012 96.0247Z" fill="#EE6F57"/>
<path fill-rule="evenodd" clip-rule="evenodd" d="M104.043 86.0304L102.917 85.8763V84.3092L104.088 84.0908C104.088 84.7459 104.073 85.3882 104.043 86.0304Z" fill="#EE6F57"/>
<path fill-rule="evenodd" clip-rule="evenodd" d="M101.73 89.3322L101.015 88.5872C101.617 88.272 102.11 87.8291 102.445 87.3027L103.434 87.7395C103.029 88.3803 102.444 88.9272 101.73 89.3322Z" fill="#EE6F57"/>
<path fill-rule="evenodd" clip-rule="evenodd" d="M98.1861 91.1041L98.11 90.0122L99.7376 89.2158L100.179 90.1278L98.1861 91.1041Z" fill="#EE6F57"/>
<path fill-rule="evenodd" clip-rule="evenodd" d="M104.088 76.0249L102.917 76.6028V74.7917L104.088 74.2266V76.0249Z" fill="#EE6F57"/>
<path fill-rule="evenodd" clip-rule="evenodd" d="M104.088 79.275L102.917 79.853V78.0418L104.088 77.4639V79.275Z" fill="#EE6F57"/>
<path fill-rule="evenodd" clip-rule="evenodd" d="M104.088 82.536L102.917 83.037V81.2773L104.088 80.6992V82.536Z" fill="#EE6F57"/>
<path fill-rule="evenodd" clip-rule="evenodd" d="M104.088 66.2878L102.917 66.853V65.2088L104.088 64.3867V66.2878Z" fill="#EE6F57"/>
<path fill-rule="evenodd" clip-rule="evenodd" d="M104.088 69.5259L102.917 70.104V68.2929L104.088 67.7148V69.5259Z" fill="#EE6F57"/>
<path fill-rule="evenodd" clip-rule="evenodd" d="M104.088 72.7623L102.917 73.3274V71.5292L104.088 70.9512V72.7623Z" fill="#EE6F57"/>
<path fill-rule="evenodd" clip-rule="evenodd" d="M99.1292 62.1133L98.8858 63.3721L97.1821 64.207V63.0766L99.1292 62.1133Z" fill="#EE6F57"/>
<path fill-rule="evenodd" clip-rule="evenodd" d="M102.628 60.6885L101.776 62.1271C101.202 62.2434 100.659 62.4527 100.179 62.7436L100.712 61.3564C101.292 61.0292 101.944 60.8023 102.628 60.6885Z" fill="#EE6F57"/>
<path fill-rule="evenodd" clip-rule="evenodd" d="M104.073 62.8331L102.917 63.9378C102.917 63.6809 102.917 63.4112 102.917 63.1543C102.909 62.9288 102.835 62.7085 102.704 62.512L103.739 61.2275C103.913 61.4539 104.013 61.7155 104.028 61.9853C104.058 62.2165 104.058 62.5249 104.073 62.8331Z" fill="#EE6F57"/>
<path fill-rule="evenodd" clip-rule="evenodd" d="M88.9835 67.0586V68.2018L87.1278 69.1138V67.9706L88.9835 67.0586Z" fill="#EE6F57"/>
<path fill-rule="evenodd" clip-rule="evenodd" d="M92.3457 65.4287V66.5718L90.4747 67.4839V66.3406L92.3457 65.4287Z" fill="#EE6F57"/>
<path fill-rule="evenodd" clip-rule="evenodd" d="M95.677 63.8086V64.9389L93.806 65.8509V64.7205L95.677 63.8086Z" fill="#EE6F57"/>
<path fill-rule="evenodd" clip-rule="evenodd" d="M78.7929 72.043L79.1884 72.9806C78.6408 73.2504 78.1084 73.4945 77.5608 73.7771L76.8306 73.0577C77.4695 72.698 78.1236 72.3769 78.7929 72.043Z" fill="#EE6F57"/>
<path fill-rule="evenodd" clip-rule="evenodd" d="M82.2751 70.334V71.4772L80.4803 72.3506L80.3738 71.2589L82.2751 70.334Z" fill="#EE6F57"/>
<path fill-rule="evenodd" clip-rule="evenodd" d="M85.6224 68.7158V69.8461L83.7515 70.7581V69.6149L85.6224 68.7158Z" fill="#EE6F57"/>
<path fill-rule="evenodd" clip-rule="evenodd" d="M74.6548 81.3798L75.826 80.8018V82.6128L74.6548 83.1909V81.3798Z" fill="#EE6F57"/>
<path fill-rule="evenodd" clip-rule="evenodd" d="M74.6548 77.9902L75.826 77.8232V79.3904L74.6548 79.9298V77.9902Z" fill="#EE6F57"/>
<path fill-rule="evenodd" clip-rule="evenodd" d="M75.4311 74.4053L76.4045 74.8805C76.0244 75.3876 75.8238 75.9759 75.8266 76.5761L74.7009 76.4733C74.7317 75.7427 74.983 75.0308 75.4311 74.4053Z" fill="#EE6F57"/>
<path fill-rule="evenodd" clip-rule="evenodd" d="M74.6548 91.1307L75.826 90.5527V92.3638L74.6548 92.9419V91.1307Z" fill="#EE6F57"/>
<path fill-rule="evenodd" clip-rule="evenodd" d="M74.6548 87.8806L75.826 87.3154V89.1265L74.6548 89.6917V87.8806Z" fill="#EE6F57"/>
<path fill-rule="evenodd" clip-rule="evenodd" d="M74.6548 84.6443L75.826 84.0791V85.8903L74.6548 86.4554V84.6443Z" fill="#EE6F57"/>
<path fill-rule="evenodd" clip-rule="evenodd" d="M74.8981 100.983L75.9629 99.6982C76.054 99.8839 76.2202 100.036 76.432 100.128C76.6437 100.22 76.8872 100.245 77.1189 100.199L76.2975 101.638C76.0111 101.677 75.7172 101.634 75.4634 101.515C75.2096 101.396 75.0104 101.209 74.8981 100.983Z" fill="#EE6F57"/>
<path fill-rule="evenodd" clip-rule="evenodd" d="M74.6548 97.7075L75.826 96.9111V98.4911L74.67 99.6215C74.6548 99.0049 74.6548 98.3498 74.6548 97.7075Z" fill="#EE6F57"/>
<path fill-rule="evenodd" clip-rule="evenodd" d="M74.6548 94.3923L75.826 93.8271V95.6382L74.6548 96.2034V94.3923Z" fill="#EE6F57"/>
<path fill-rule="evenodd" clip-rule="evenodd" d="M47.3973 115.868V114.738L49.2682 113.826V114.957L47.3973 115.868Z" fill="#EE6F57"/>
<path fill-rule="evenodd" clip-rule="evenodd" d="M44.0499 117.501V116.371L45.9209 115.459V116.589L44.0499 117.501Z" fill="#EE6F57"/>
<path fill-rule="evenodd" clip-rule="evenodd" d="M40.5201 119.21L41.0829 117.81L42.7104 117.026L42.5127 118.311C41.8434 118.581 41.1741 118.915 40.5201 119.21Z" fill="#EE6F57"/>
<path fill-rule="evenodd" clip-rule="evenodd" d="M57.4517 110.962V109.832L59.3226 108.92V110.05L57.4517 110.962Z" fill="#EE6F57"/>
<path fill-rule="evenodd" clip-rule="evenodd" d="M54.1043 112.594V111.464L55.9752 110.552V111.682L54.1043 112.594Z" fill="#EE6F57"/>
<path fill-rule="evenodd" clip-rule="evenodd" d="M50.7732 114.226V113.096L52.6442 112.184V113.314L50.7732 114.226Z" fill="#EE6F57"/>
<path fill-rule="evenodd" clip-rule="evenodd" d="M66.7146 104.244L65.589 104.09V102.51L66.7603 102.305C66.7603 102.96 66.745 103.589 66.7146 104.244Z" fill="#EE6F57"/>
<path fill-rule="evenodd" clip-rule="evenodd" d="M64.4034 107.533L63.6885 106.788C64.2916 106.471 64.7889 106.029 65.1336 105.504L66.1071 105.928C65.7023 106.572 65.1175 107.123 64.4034 107.533Z" fill="#EE6F57"/>
<path fill-rule="evenodd" clip-rule="evenodd" d="M60.858 109.305L60.782 108.213L62.4096 107.417L62.8507 108.329L60.858 109.305Z" fill="#EE6F57"/>
<path fill-rule="evenodd" clip-rule="evenodd" d="M66.7603 94.2243L65.6042 94.8023V92.9911L66.7603 92.4131V94.2243Z" fill="#EE6F57"/>
<path fill-rule="evenodd" clip-rule="evenodd" d="M66.7603 97.4752L65.6042 98.0403V96.2292L66.7603 95.6641V97.4752Z" fill="#EE6F57"/>
<path fill-rule="evenodd" clip-rule="evenodd" d="M66.7603 100.738L65.6042 101.239V99.4665L66.7603 98.9014V100.738Z" fill="#EE6F57"/>
<path fill-rule="evenodd" clip-rule="evenodd" d="M66.7603 84.4762L65.6042 85.0542V83.4101L66.7603 82.5752V84.4762Z" fill="#EE6F57"/>
<path fill-rule="evenodd" clip-rule="evenodd" d="M66.7603 87.7262L65.6042 88.3042V86.4931L66.7603 85.915V87.7262Z" fill="#EE6F57"/>
<path fill-rule="evenodd" clip-rule="evenodd" d="M66.7603 90.9634L65.6042 91.5286V89.7175L66.7603 89.1523V90.9634Z" fill="#EE6F57"/>
<path fill-rule="evenodd" clip-rule="evenodd" d="M61.8158 80.3154L61.5572 81.5742L59.8536 82.4091V81.2659L61.8158 80.3154Z" fill="#EE6F57"/>
<path fill-rule="evenodd" clip-rule="evenodd" d="M65.3005 78.8896L64.4639 80.3283C63.8807 80.4347 63.331 80.6449 62.8516 80.9448L63.3839 79.5576C63.9576 79.2199 64.6117 78.9919 65.3005 78.8896Z" fill="#EE6F57"/>
<path fill-rule="evenodd" clip-rule="evenodd" d="M66.7455 81.0333L65.5894 82.1379C65.5894 81.881 65.5894 81.6113 65.5894 81.3544C65.5832 81.1286 65.51 80.9078 65.3765 80.7121L66.4108 79.3506C66.5835 79.5777 66.6831 79.8389 66.6999 80.1085C66.7303 80.4167 66.7455 80.725 66.7455 81.0333Z" fill="#EE6F57"/>
<path fill-rule="evenodd" clip-rule="evenodd" d="M51.6567 85.2598V86.403L49.801 87.3021V86.1718L51.6567 85.2598Z" fill="#EE6F57"/>
<path fill-rule="evenodd" clip-rule="evenodd" d="M55.0178 83.6279V84.7583L53.1469 85.6702V84.5399L55.0178 83.6279Z" fill="#EE6F57"/>
<path fill-rule="evenodd" clip-rule="evenodd" d="M58.349 81.998V83.1413L56.4781 84.0533V82.9101L58.349 81.998Z" fill="#EE6F57"/>
<path fill-rule="evenodd" clip-rule="evenodd" d="M41.4651 90.2314L41.8606 91.182C41.313 91.4388 40.7806 91.6957 40.233 91.9783L39.5029 91.259C40.1418 90.8994 40.7958 90.5654 41.4651 90.2314Z" fill="#EE6F57"/>
<path fill-rule="evenodd" clip-rule="evenodd" d="M44.9485 88.5352V89.6655L43.1536 90.5518L43.0471 89.4599L44.9485 88.5352Z" fill="#EE6F57"/>
<path fill-rule="evenodd" clip-rule="evenodd" d="M48.2944 86.9033V88.0465L46.4235 88.9457V87.8153L48.2944 86.9033Z" fill="#EE6F57"/>
<path fill-rule="evenodd" clip-rule="evenodd" d="M37.3268 99.5819L38.498 99.0039V100.815L37.3268 101.38V99.5819Z" fill="#EE6F57"/>
<path fill-rule="evenodd" clip-rule="evenodd" d="M37.3268 96.1904L38.498 96.0234V97.5906L37.3268 98.13V96.1904Z" fill="#EE6F57"/>
<path fill-rule="evenodd" clip-rule="evenodd" d="M38.1031 92.6074L39.0767 93.0698C38.7048 93.5848 38.5051 94.1751 38.4986 94.7782L37.373 94.6754C37.4038 93.9448 37.6551 93.233 38.1031 92.6074Z" fill="#EE6F57"/>
<path fill-rule="evenodd" clip-rule="evenodd" d="M37.3268 109.33L38.498 108.752V110.563L37.3268 111.128V109.33Z" fill="#EE6F57"/>
<path fill-rule="evenodd" clip-rule="evenodd" d="M37.3268 106.081L38.498 105.516V107.314L37.3268 107.892V106.081Z" fill="#EE6F57"/>
<path fill-rule="evenodd" clip-rule="evenodd" d="M37.3268 102.844L38.498 102.279V104.09L37.3268 104.656V102.844Z" fill="#EE6F57"/>
<path fill-rule="evenodd" clip-rule="evenodd" d="M37.5701 119.183L38.6348 117.898C38.7286 118.082 38.896 118.231 39.1075 118.32C39.319 118.41 39.561 118.433 39.7909 118.387L38.9695 119.838C38.6835 119.873 38.3919 119.828 38.1393 119.709C37.8866 119.591 37.6867 119.406 37.5701 119.183Z" fill="#EE6F57"/>
<path fill-rule="evenodd" clip-rule="evenodd" d="M37.3268 115.908L38.498 115.111V116.691L37.342 117.822C37.3268 117.205 37.3268 116.55 37.3268 115.908Z" fill="#EE6F57"/>
<path fill-rule="evenodd" clip-rule="evenodd" d="M37.3268 112.595L38.498 112.017V113.828L37.3268 114.406V112.595Z" fill="#EE6F57"/>
<path fill-rule="evenodd" clip-rule="evenodd" d="M10.0692 134.07V132.939L11.9402 132.027V133.158L10.0692 134.07Z" fill="#EE6F57"/>
<path fill-rule="evenodd" clip-rule="evenodd" d="M6.72307 135.7V134.57L8.59399 133.658V134.789L6.72307 135.7Z" fill="#EE6F57"/>
<path fill-rule="evenodd" clip-rule="evenodd" d="M3.19486 137.409L3.75766 136.009L5.38525 135.213L5.1875 136.497L3.19486 137.409Z" fill="#EE6F57"/>
<path fill-rule="evenodd" clip-rule="evenodd" d="M20.1389 129.163V128.033L21.9946 127.121V128.251L20.1389 129.163Z" fill="#EE6F57"/>
<path fill-rule="evenodd" clip-rule="evenodd" d="M16.7763 130.795V129.665L18.6472 128.753V129.883L16.7763 130.795Z" fill="#EE6F57"/>
<path fill-rule="evenodd" clip-rule="evenodd" d="M13.4452 132.426V131.283L15.3162 130.384V131.514L13.4452 132.426Z" fill="#EE6F57"/>
<path fill-rule="evenodd" clip-rule="evenodd" d="M29.387 122.421L28.2614 122.28V120.7L29.4175 120.494C29.4327 121.136 29.4175 121.791 29.387 122.421Z" fill="#EE6F57"/>
<path fill-rule="evenodd" clip-rule="evenodd" d="M27.0754 125.735L26.3757 124.991C26.9723 124.67 27.4641 124.229 27.8055 123.706L28.7791 124.143C28.3723 124.782 27.7877 125.329 27.0754 125.735Z" fill="#EE6F57"/>
<path fill-rule="evenodd" clip-rule="evenodd" d="M23.5299 127.505L23.4539 126.401L25.0815 125.617L25.5226 126.529L23.5299 127.505Z" fill="#EE6F57"/>
<path fill-rule="evenodd" clip-rule="evenodd" d="M29.4484 112.426L28.2771 113.004V111.193L29.4484 110.615V112.426Z" fill="#EE6F57"/>
<path fill-rule="evenodd" clip-rule="evenodd" d="M29.4484 115.676L28.2771 116.242V114.43L29.4484 113.865V115.676Z" fill="#EE6F57"/>
<path fill-rule="evenodd" clip-rule="evenodd" d="M29.4484 118.926L28.2771 119.427V117.668L29.4484 117.103V118.926Z" fill="#EE6F57"/>
<path fill-rule="evenodd" clip-rule="evenodd" d="M29.4484 102.676L28.2771 103.254V101.61L29.4484 100.775V102.676Z" fill="#EE6F57"/>
<path fill-rule="evenodd" clip-rule="evenodd" d="M29.4484 105.926L28.2771 106.492V104.68L29.4484 104.115V105.926Z" fill="#EE6F57"/>
<path fill-rule="evenodd" clip-rule="evenodd" d="M29.4484 109.166L28.2771 109.731V107.92L29.4484 107.354V109.166Z" fill="#EE6F57"/>
<path fill-rule="evenodd" clip-rule="evenodd" d="M24.4893 98.5156L24.2307 99.7616L22.527 100.596V99.4662L24.4893 98.5156Z" fill="#EE6F57"/>
<path fill-rule="evenodd" clip-rule="evenodd" d="M27.9723 97.0771L27.1357 98.5158C26.5546 98.6344 26.0068 98.8483 25.5233 99.1452L26.0861 97.8222C26.6474 97.4669 27.2895 97.2132 27.9723 97.0771Z" fill="#EE6F57"/>
<path fill-rule="evenodd" clip-rule="evenodd" d="M29.4172 99.2354L28.2764 100.34C28.2764 100.083 28.2764 99.8134 28.2764 99.5565C28.2678 99.327 28.1948 99.1026 28.0634 98.9015L29.113 97.5527C29.272 97.7851 29.3706 98.0435 29.402 98.3106C29.402 98.606 29.4172 98.9271 29.4172 99.2354Z" fill="#EE6F57"/>
<path fill-rule="evenodd" clip-rule="evenodd" d="M14.3438 103.462V104.592L12.4727 105.504V104.374L14.3438 103.462Z" fill="#EE6F57"/>
<path fill-rule="evenodd" clip-rule="evenodd" d="M17.6898 101.83V102.96L15.8189 103.872V102.742L17.6898 101.83Z" fill="#EE6F57"/>
<path fill-rule="evenodd" clip-rule="evenodd" d="M21.021 100.198V101.341L19.1501 102.241V101.11L21.021 100.198Z" fill="#EE6F57"/>
<path fill-rule="evenodd" clip-rule="evenodd" d="M4.13709 108.432L4.53259 109.369L2.905 110.179L2.1749 109.459C2.81377 109.1 3.46781 108.766 4.13709 108.432Z" fill="#EE6F57"/>
<path fill-rule="evenodd" clip-rule="evenodd" d="M7.61926 106.736V107.867L5.82437 108.74L5.71788 107.661L7.61926 106.736Z" fill="#EE6F57"/>
<path fill-rule="evenodd" clip-rule="evenodd" d="M10.9666 105.104V106.235L9.09563 107.147V106.017L10.9666 105.104Z" fill="#EE6F57"/>
<path fill-rule="evenodd" clip-rule="evenodd" d="M0.000108123 117.77L1.17139 117.205V119.016L0.000108123 119.581V117.77Z" fill="#EE6F57"/>
<path fill-rule="evenodd" clip-rule="evenodd" d="M0.000108123 114.394L1.17139 114.214V115.794L0.000108123 116.333V114.394Z" fill="#EE6F57"/>
<path fill-rule="evenodd" clip-rule="evenodd" d="M0.775129 110.809L1.74866 111.271C1.37685 111.786 1.1771 112.376 1.17063 112.979L0.0450301 112.864C0.0756536 112.137 0.327056 111.429 0.775129 110.809Z" fill="#EE6F57"/>
<path fill-rule="evenodd" clip-rule="evenodd" d="M0.000108123 127.519L1.17139 126.954V128.765L0.000108123 129.33V127.519Z" fill="#EE6F57"/>
<path fill-rule="evenodd" clip-rule="evenodd" d="M0.000108123 124.284L1.17139 123.706V125.517L0.000108123 126.082V124.284Z" fill="#EE6F57"/>
<path fill-rule="evenodd" clip-rule="evenodd" d="M0.000108123 121.046L1.17139 120.468V122.279L0.000108123 122.857V121.046Z" fill="#EE6F57"/>
<path fill-rule="evenodd" clip-rule="evenodd" d="M0.227366 137.384L1.27693 136.1C1.3707 136.283 1.5381 136.432 1.74958 136.522C1.96107 136.611 2.20308 136.634 2.43298 136.588L1.61153 138.026C1.32871 138.068 1.03754 138.027 0.785896 137.911C0.534256 137.794 0.337221 137.608 0.227366 137.384Z" fill="#EE6F57"/>
<path fill-rule="evenodd" clip-rule="evenodd" d="M0.000108123 134.109L1.17139 133.312V134.88L0.0305599 136.023C0.000137806 135.393 0.000108123 134.751 0.000108123 134.109Z" fill="#EE6F57"/>
<path fill-rule="evenodd" clip-rule="evenodd" d="M0.000108123 130.797L1.17139 130.219V132.03L0.000108123 132.608V130.797Z" fill="#EE6F57"/>
<path d="M79.7201 103.794L96.9541 95.3936C97.0754 95.3183 97.2181 95.2715 97.3677 95.258C97.5174 95.2445 97.6686 95.2646 97.8059 95.3165L100.62 96.7038C100.49 96.643 100.343 96.6112 100.194 96.6112C100.045 96.6112 99.8986 96.643 99.7682 96.7038L82.5341 105.104C82.1925 105.293 81.9085 105.548 81.705 105.847C81.5016 106.146 81.3843 106.481 81.3628 106.826V123.524C81.3443 123.646 81.3657 123.771 81.4246 123.884C81.4836 123.997 81.5779 124.095 81.6975 124.166L78.8834 122.779C78.7663 122.709 78.6735 122.613 78.6147 122.503C78.5559 122.392 78.5331 122.27 78.5488 122.149V105.451C78.5795 105.117 78.7012 104.794 78.9044 104.507C79.1076 104.219 79.3868 103.975 79.7201 103.794Z" fill="#F1A394"/>
<path d="M82.534 105.168C82.1924 105.358 81.9084 105.612 81.7049 105.911C81.5014 106.21 81.3842 106.545 81.3627 106.89V123.588C81.3627 124.217 81.8799 124.474 82.534 124.153L99.8441 115.804C100.182 115.615 100.464 115.362 100.667 115.066C100.87 114.769 100.989 114.437 101.015 114.096V97.3973C101.015 96.7679 100.483 96.5239 99.8289 96.8321L82.534 105.168Z" fill="#EE6F57"/>
<path d="M79.7201 75.3065L96.9541 66.906C97.0831 66.8416 97.2302 66.8076 97.38 66.8076C97.5299 66.8076 97.677 66.8416 97.8059 66.906L100.62 68.2804C100.483 68.2286 100.331 68.2084 100.182 68.2219C100.032 68.2355 99.8895 68.2822 99.7682 68.3575L82.5341 76.758C82.1908 76.9456 81.9055 77.1996 81.7018 77.4989C81.4981 77.7983 81.3819 78.1344 81.3628 78.4792V95.1776C81.3472 95.2981 81.3699 95.42 81.4288 95.5307C81.4876 95.6413 81.5804 95.7367 81.6975 95.8069L78.8834 94.4325C78.7662 94.3594 78.6737 94.2616 78.615 94.149C78.5563 94.0363 78.5335 93.9127 78.5488 93.7903V77.092C78.5583 76.7365 78.6699 76.3884 78.8739 76.0774C79.0779 75.7664 79.3683 75.5019 79.7201 75.3065Z" fill="#2A7596"/>
<path d="M82.5336 76.6918C82.1904 76.8794 81.9051 77.1334 81.7014 77.4328C81.4977 77.7321 81.3815 78.0682 81.3624 78.4131V95.1114C81.3624 95.7408 81.8796 95.9849 82.5336 95.6766L99.783 87.2632C100.123 87.0761 100.407 86.8239 100.61 86.5271C100.814 86.2303 100.932 85.8972 100.954 85.5548V68.8565C100.954 68.2143 100.422 67.9702 99.7678 68.2913L82.5336 76.6918Z" fill="#114860"/>
<path d="M79.7201 46.8292L96.9541 38.4158C97.0846 38.3551 97.2311 38.3232 97.38 38.3232C97.529 38.3232 97.6755 38.3551 97.8059 38.4158L100.62 39.7389C100.484 39.6839 100.334 39.6608 100.184 39.6721C100.034 39.6834 99.8902 39.7287 99.7682 39.8031L82.5341 48.2036C82.1925 48.3927 81.9085 48.6471 81.705 48.9461C81.5016 49.2452 81.3843 49.5805 81.3628 49.9249V66.6232C81.349 66.7455 81.3725 66.8686 81.4311 66.9811C81.4897 67.0935 81.5814 67.1914 81.6975 67.2654L78.8834 65.8782C78.7663 65.8079 78.6735 65.7125 78.6147 65.6019C78.5559 65.4912 78.5331 65.3693 78.5488 65.2488V48.5504C78.5666 48.2053 78.6823 47.8689 78.8861 47.5694C79.0899 47.2698 79.3759 47.016 79.7201 46.8292Z" fill="#F1A394"/>
<path d="M81.7893 48.3574C81.4477 48.5465 81.1637 48.8009 80.9602 49.1C80.7568 49.399 80.6395 49.7343 80.618 50.0787V66.777C80.618 67.4064 81.1352 67.6633 81.7893 67.3422L99.0386 58.9416C99.3777 58.7503 99.6598 58.4954 99.8629 58.1968C100.066 57.8982 100.185 57.5641 100.21 57.2204V40.5221C100.21 39.8927 99.6775 39.6358 99.0234 39.9569L81.7893 48.3574Z" fill="#EE6F57"/>
<path d="M41.9969 93.6731L59.231 85.2725C59.3549 85.2017 59.498 85.1587 59.6471 85.1475C59.7961 85.1363 59.946 85.1572 60.0828 85.2083L62.8969 86.5827C62.7595 86.5309 62.6082 86.5107 62.4586 86.5242C62.309 86.5378 62.1663 86.5846 62.045 86.6598L44.8109 95.0603C44.4694 95.2494 44.1854 95.5038 43.9819 95.8028C43.7784 96.1019 43.6612 96.4372 43.6397 96.7816V113.48C43.624 113.6 43.6468 113.722 43.7056 113.833C43.7644 113.944 43.8572 114.039 43.9743 114.109L41.1603 112.735C41.0407 112.664 40.9464 112.566 40.8874 112.453C40.8285 112.34 40.8071 112.215 40.8256 112.093V95.3943C40.8471 95.0499 40.9644 94.7146 41.1679 94.4156C41.3713 94.1165 41.6553 93.8622 41.9969 93.6731Z" fill="#2A7596"/>
<path d="M44.8103 95.0606C44.4687 95.2497 44.1847 95.5041 43.9812 95.8031C43.7778 96.1021 43.6605 96.4374 43.639 96.7818V113.48C43.639 114.11 44.1562 114.366 44.8103 114.045L62.0596 105.645C62.3986 105.453 62.6807 105.199 62.8839 104.9C63.0871 104.601 63.2058 104.267 63.2308 103.924V87.2252C63.2308 86.5958 62.6985 86.3389 62.0444 86.6601L44.8103 95.0606Z" fill="#114860"/>
<path d="M52.9938 102.587L56.614 100.814L58.0287 103.961L56.6597 104.629V104.963L59.4585 103.602V103.268L58.5915 103.679L53.9369 93.7754L52.4158 94.5076L47.8525 108.932L47.0159 109.343V109.677L52.9634 106.813V106.479L51.6552 107.108L52.9938 102.587ZM56.5076 100.506L53.1916 102.125L54.7127 96.7041L56.5076 100.506Z" fill="#A9ABAC"/>
<path d="M41.9969 65.1974L59.231 56.7969C59.3523 56.7216 59.495 56.6749 59.6446 56.6613C59.7942 56.6478 59.9454 56.668 60.0828 56.7198L62.8969 58.1071C62.7664 58.0464 62.6199 58.0145 62.4709 58.0145C62.322 58.0145 62.1755 58.0464 62.045 58.1071L44.8109 66.5076C44.4694 66.6967 44.1854 66.9511 43.9819 67.2501C43.7784 67.5491 43.6612 67.8844 43.6397 68.2288V84.9272C43.6212 85.0498 43.6425 85.1743 43.7015 85.2875C43.7604 85.4006 43.8548 85.4981 43.9743 85.5694L41.1603 84.1821C41.0432 84.1119 40.9504 84.0165 40.8916 83.9059C40.8327 83.7952 40.81 83.6733 40.8256 83.5527V66.8544C40.8564 66.5207 40.978 66.1974 41.1812 65.91C41.3844 65.6225 41.6636 65.3786 41.9969 65.1974Z" fill="#2A7596"/>
<path d="M44.8103 66.5712C44.4687 66.7603 44.1847 67.0147 43.9812 67.3137C43.7778 67.6127 43.6605 67.948 43.639 68.2924V84.9908C43.639 85.6202 44.1562 85.8771 44.8103 85.5559L62.0596 77.1554C62.3975 76.9661 62.679 76.7134 62.8822 76.4171C63.0853 76.1207 63.2047 75.7888 63.2308 75.447V58.7487C63.2308 58.1065 62.6985 57.8624 62.0444 58.1707L44.8103 66.5712Z" fill="#114860"/>
<path d="M51.3211 74.4716L56.2647 72.0568L58.2574 76.3855L59.1244 75.9744L53.8005 64.4141L48.4767 81.1895L49.3285 80.7784L51.3211 74.4716ZM51.6101 73.5467L53.8005 66.6748L55.9757 71.4145L51.6101 73.5467Z" fill="#EE6F57"/>
<path d="M41.9969 8.49898L59.231 0.0983905C59.36 0.033973 59.5071 0 59.6569 0C59.8067 0 59.9538 0.033973 60.0828 0.0983905L62.8969 1.4728C62.7664 1.41208 62.6199 1.38021 62.4709 1.38021C62.322 1.38021 62.1755 1.41208 62.045 1.4728L44.8109 9.88617C44.4668 10.073 44.1808 10.3268 43.977 10.6263C43.7732 10.9258 43.6575 11.2623 43.6397 11.6074V28.3057C43.624 28.4263 43.6468 28.5482 43.7056 28.6588C43.7644 28.7695 43.8572 28.8649 43.9743 28.9351L41.1603 27.5479C41.0432 27.4776 40.9504 27.3823 40.8916 27.2717C40.8327 27.161 40.81 27.039 40.8256 26.9185V10.2201C40.8471 9.87575 40.9644 9.54045 41.1679 9.24142C41.3713 8.94239 41.6553 8.68809 41.9969 8.49898Z" fill="#C4C4C4"/>
<path d="M44.8103 9.8868C44.4661 10.0736 44.1802 10.3274 43.9764 10.627C43.7726 10.9265 43.6569 11.2629 43.639 11.608V28.3064C43.639 28.9358 44.1562 29.1798 44.8103 28.8715L62.0596 20.4582C62.3999 20.2711 62.6834 20.0189 62.8869 19.7221C63.0903 19.4253 63.2082 19.0922 63.2308 18.7498V2.05146C63.2308 1.40922 62.6985 1.16515 62.0444 1.47343L44.8103 9.8868Z" fill="#A9ABAC"/>
<path d="M50.7277 19.7769L55.8082 17.2978L57.2228 19.9824L58.9873 19.1218L53.1919 8.57617L53.0854 8.64038L47.3052 24.812L49.3587 23.8102L50.7277 19.7769ZM51.3362 17.9914L53.2223 12.3911L55.1693 16.1161L51.3362 17.9914Z" fill="#EE6F57"/>
<path d="M41.9969 36.7069L59.231 28.3064C59.36 28.242 59.5071 28.208 59.6569 28.208C59.8067 28.208 59.9538 28.242 60.0828 28.3064L62.8969 29.6808C62.7595 29.629 62.6082 29.6088 62.4586 29.6223C62.309 29.6359 62.1663 29.6826 62.045 29.7579L44.8109 38.1584C44.4677 38.346 44.1824 38.6 43.9786 38.8993C43.7749 39.1987 43.6588 39.5348 43.6397 39.8796V56.578C43.624 56.6985 43.6468 56.8204 43.7056 56.9311C43.7644 57.0417 43.8572 57.1371 43.9743 57.2073L41.1603 55.8329C41.0407 55.7616 40.9464 55.6642 40.8874 55.551C40.8285 55.4379 40.8071 55.3133 40.8256 55.1907V38.4924C40.8352 38.1369 40.9468 37.7888 41.1508 37.4778C41.3548 37.1668 41.6451 36.9023 41.9969 36.7069Z" fill="#C4C4C4"/>
<path d="M44.8103 38.0947C44.467 38.2823 44.1817 38.5363 43.978 38.8357C43.7743 39.135 43.6581 39.4711 43.639 39.816V56.5143C43.639 57.1437 44.1562 57.3878 44.8103 57.0795L62.0596 48.666C62.3999 48.479 62.6834 48.2268 62.8869 47.93C63.0903 47.6332 63.2082 47.3002 63.2308 46.9577V30.2594C63.2308 29.63 62.6985 29.3731 62.0444 29.6942L44.8103 38.0947Z" fill="#A9ABAC"/>
<path d="M54.592 35.627L52.3712 36.7187L49.7701 53.2244L51.5041 52.3766L51.9605 49.2425L54.8049 47.8552L55.2156 50.5655L56.9801 49.7049L54.592 35.627ZM54.592 46.5065L52.1734 47.6754L53.4207 39.0179L54.592 46.5065Z" fill="#EE6F57"/>
<path d="M79.7201 20.1239L96.9541 11.7619C97.078 11.691 97.2212 11.648 97.3702 11.6367C97.5192 11.6255 97.6692 11.6465 97.8059 11.6977L100.62 13.0463C100.483 12.9945 100.331 12.9743 100.182 12.9879C100.032 13.0014 99.8895 13.0482 99.7682 13.1234L82.5341 21.5239C82.1925 21.713 81.9085 21.9674 81.705 22.2664C81.5016 22.5655 81.3843 22.9008 81.3628 23.2452V39.9435C81.3472 40.0641 81.3699 40.186 81.4287 40.2966C81.4876 40.4073 81.5804 40.5027 81.6975 40.5729L78.8834 39.1985C78.7639 39.1272 78.6695 39.0297 78.6106 38.9166C78.5516 38.8034 78.5303 38.6789 78.5488 38.5562V21.8579C78.5679 21.5113 78.6841 21.1735 78.8877 20.872C79.0912 20.5706 79.3765 20.3142 79.7201 20.1239Z" fill="#C4C4C4"/>
<path d="M82.5336 21.5108C82.1921 21.6999 81.9081 21.9542 81.7046 22.2533C81.5011 22.5523 81.3839 22.8876 81.3624 23.232V39.9303C81.3624 40.5597 81.8796 40.8166 82.5336 40.4955L99.783 32.095C100.122 31.9037 100.404 31.6488 100.607 31.3502C100.81 31.0516 100.929 30.7174 100.954 30.3737V13.6754C100.954 13.046 100.422 12.7891 99.7678 13.1102L82.5336 21.5108Z" fill="#A9ABAC"/>
</svg>
